<svg width="33" height="32" viewBox="0 0 69 70" fill="none" xmlns="http://www.w3.org/2000/svg">
<g clip-path="url(#clip0_97_864)">
<path fill-rule="evenodd" clip-rule="evenodd" d="M0 35.5551C0 52.7717 12.4479 67.088 28.7281 69.9911V44.9801H20.1096V35.3618H28.7281V27.6654C28.7281 19.0081 34.2812 14.2004 42.1355 14.2004C44.6233 14.2004 47.3065 14.5842 49.7944 14.968V23.8187H45.3903C41.1759 23.8187 40.2193 25.9339 40.2193 28.6293V35.3618H49.4123L47.8811 44.9801H40.2193V69.9911C56.4995 67.088 68.9474 52.7746 68.9474 35.5551C68.9474 16.4022 53.4342 0.732422 34.4737 0.732422C15.5132 0.732422 0 16.4022 0 35.5551Z" fill="#FFFBDF"/>
</g>
<defs>
<clipPath id="clip0_97_864">
<rect width="68.9474" height="69.2587" fill="white" transform="translate(0 0.732422)"/>
</clipPath>
</defs>
</svg>
