<svg width="1727" height="134" viewBox="0 0 1727 134" fill="none" xmlns="http://www.w3.org/2000/svg">
<path d="M338 31.8024V37.8024H340V49.8024H338V55.8024H368V49.8024H366V37.8024H368V31.8024L338 31.8024ZM340 51.8024H342V53.8024H340V51.8024ZM340 33.8024H342V35.8024H340V33.8024ZM342 37.8024H352V49.8024H342V37.8024ZM344 51.8024H346V53.8024H344V51.8024ZM344 33.8024H346V35.8024H344V33.8024ZM348 51.8024H350V53.8024H348V51.8024ZM348 33.8024H350V35.8024H348V33.8024ZM352 51.8024H354V53.8024H352V51.8024ZM352 33.8024H354V35.8024H352V33.8024ZM354 37.8024H364V49.8024H354V37.8024ZM356 51.8024H358V53.8024H356V51.8024ZM356 33.8024H358V35.8024H356V33.8024ZM360 51.8024H362V53.8024H360V51.8024ZM360 33.8024H362V35.8024H360V33.8024ZM364 51.8024H366V53.8024H364V51.8024ZM364 33.8024H366V35.8024H364V33.8024Z" fill="#89C747"/>
<path d="M249.419 53.8389L249.015 44.5377L252.999 48.1898L255.251 45.733L249.53 40.4882L254.774 34.7667L252.318 32.5146L248.666 36.4986L248.261 27.1974C248.181 25.3608 246.623 23.9322 244.786 24.012L226.47 24.8084C224.634 24.8882 223.205 26.4468 223.285 28.2834L224.443 54.9249C224.523 56.7615 226.081 58.1901 227.918 58.1103L246.234 57.3139C248.071 57.2341 249.499 55.6755 249.419 53.8389ZM226.615 28.1386L244.931 27.3422L246.089 53.9837L227.773 54.7834L226.615 28.1386Z" fill="#89C747"/>
<path d="M594.419 109.839L594.015 100.538L597.999 104.19L600.251 101.733L594.53 96.4882L599.774 90.7667L597.318 88.5146L593.666 92.4986L593.261 83.1974C593.181 81.3608 591.623 79.9322 589.786 80.012L571.47 80.8084C569.634 80.8882 568.205 82.4468 568.285 84.2834L569.443 110.925C569.523 112.761 571.081 114.19 572.918 114.11L591.234 113.314C593.071 113.234 594.499 111.676 594.419 109.839ZM571.615 84.1386L589.931 83.3422L591.089 109.984L572.773 110.783L571.615 84.1386Z" fill="#89C747"/>
<path d="M294.615 87.7573L299.595 103.085C299.711 103.265 299.779 103.471 299.793 103.685L301.5 108.95V87.0523C301.5 86.7208 301.632 86.4028 301.866 86.1684C302.101 85.934 302.418 85.8023 302.75 85.8023H315.25C316.908 85.8023 318.497 86.4608 319.669 87.6329C320.842 88.805 321.5 90.3947 321.5 92.0523V109.552C321.5 111.21 320.842 112.8 319.669 113.972C318.497 115.144 316.908 115.802 315.25 115.802H302.75C302.485 115.802 302.238 115.72 302.033 115.577L300.528 116.065C298.951 116.577 297.236 116.442 295.759 115.689C294.282 114.937 293.165 113.629 292.653 112.052L287.245 95.4098C286.733 93.8334 286.868 92.1182 287.62 90.6414C288.373 89.1645 289.681 88.0471 291.258 87.5348L293.04 86.9548C293.355 86.8524 293.698 86.8794 293.994 87.0299C294.289 87.1804 294.513 87.442 294.615 87.7573V87.7573ZM295.028 97.1173L289.463 93.9048C289.491 94.1537 289.545 94.3991 289.623 94.6373L290.633 97.7498L296.295 101.02L295.028 97.1198V97.1173ZM290.08 91.3798C290.112 91.3952 290.142 91.4119 290.173 91.4298L293.873 93.5648L292.623 89.7198L292.03 89.9123C291.234 90.1693 290.547 90.6861 290.08 91.3798V91.3798ZM291.788 101.305L293.055 105.205L298.718 108.477L297.45 104.577L291.788 101.302V101.305ZM300.35 113.495L299.875 112.027L294.21 108.76L295.03 111.28C295.337 112.226 296.008 113.011 296.894 113.462C297.78 113.914 298.809 113.995 299.755 113.687L300.35 113.495V113.495ZM304 113.302H315.25C316.245 113.302 317.198 112.907 317.902 112.204C318.605 111.501 319 110.547 319 109.552V92.0523C319 91.0578 318.605 90.1039 317.902 89.4007C317.198 88.6974 316.245 88.3023 315.25 88.3023H304V113.302Z" fill="#89C747"/>
<g clip-path="url(#clip0_160_905)">
<path d="M31.0747 102.397L43.3697 94.4736M32.0598 109.766L31.0747 102.397L21.7415 89.6684L34.544 83.517L43.3697 94.4736L42.9534 101.21L32.0598 109.766V109.766Z" stroke="#89C747" stroke-width="0.833333" stroke-linecap="round" stroke-linejoin="round"/>
<path d="M22.012 90.1087C21.5636 90.0548 21.0662 90.8338 21.2754 91.2523C21.2754 91.2523 19.5611 89.5849 18.0881 90.7772C16.6151 91.9695 17.339 94.4174 17.339 94.4174C17.339 94.4174 6.32285 95.7038 11.2968 104.099C15.4213 111.061 20.7896 108.956 20.7896 108.956C20.7896 108.956 18.6894 113.454 22.666 114.624C27.0751 115.886 26.758 111.231 26.758 111.231C26.758 111.231 28.8244 112.806 30.1364 112.029C31.7568 111.069 31.9113 108.73 31.9113 108.73" stroke="#89C747" stroke-width="0.833333" stroke-linecap="round" stroke-linejoin="round"/>
<path d="M26.6992 99.7203C25.2592 97.2898 22.4639 99.3237 22.6409 99.8678C22.9136 100.457 23.2452 101.016 23.6306 101.538C23.9019 102.125 24.232 102.682 24.6161 103.202C25.0398 103.59 28.1349 102.144 26.6992 99.7203Z" stroke="#89C747" stroke-width="0.833333" stroke-linecap="round" stroke-linejoin="round"/>
<path d="M26.5286 105.972C26.0289 105.129 24.9402 104.85 24.0968 105.35C23.2534 105.849 22.9747 106.938 23.4744 107.781C23.9741 108.625 25.0629 108.904 25.9063 108.404C26.7497 107.904 27.0283 106.815 26.5286 105.972Z" stroke="#89C747" stroke-width="0.833333" stroke-linecap="round" stroke-linejoin="round"/>
<path d="M20.8963 96.4652C20.3966 95.6218 19.3078 95.3431 18.4644 95.8428C17.621 96.3425 17.3424 97.4313 17.8421 98.2746C18.3418 99.118 19.4305 99.3967 20.2739 98.897C21.1173 98.3973 21.396 97.3086 20.8963 96.4652Z" stroke="#89C747" stroke-width="0.833333" stroke-linecap="round" stroke-linejoin="round"/>
<path d="M19.4387 96.9316C19.2628 96.6346 18.8794 96.5365 18.5825 96.7124C18.2855 96.8884 18.1874 97.2718 18.3633 97.5687C18.5393 97.8657 18.9226 97.9638 19.2196 97.7879C19.5166 97.6119 19.6147 97.2286 19.4387 96.9316Z" fill="#89C747"/>
<path d="M25.0371 106.381C24.8612 106.084 24.4778 105.986 24.1808 106.162C23.8839 106.338 23.7858 106.721 23.9617 107.018C24.1376 107.315 24.521 107.413 24.818 107.237C25.115 107.061 25.2131 106.678 25.0371 106.381Z" fill="#89C747"/>
<path d="M23.6039 92.207L36.3225 85.7179M25.8634 95.2852L38.3891 88.2905M28.5202 98.9029L40.8446 91.3397M31.4082 104.873L43.2295 96.8039M31.7539 107.467L43.079 99.1983" stroke="#89C747" stroke-width="0.833333" stroke-linecap="round" stroke-linejoin="round"/>
</g>
<g clip-path="url(#clip1_160_905)">
<path d="M457.075 30.3971L469.37 22.4736M458.06 37.7657L457.075 30.3971L447.741 17.6684L460.544 11.517L469.37 22.4736L468.953 29.2098L458.06 37.7657V37.7657Z" stroke="#89C747" stroke-width="0.833333" stroke-linecap="round" stroke-linejoin="round"/>
<path d="M448.012 18.1087C447.564 18.0548 447.066 18.8338 447.275 19.2523C447.275 19.2523 445.561 17.5849 444.088 18.7772C442.615 19.9695 443.339 22.4174 443.339 22.4174C443.339 22.4174 432.323 23.7038 437.297 32.0994C441.421 39.061 446.79 36.9556 446.79 36.9556C446.79 36.9556 444.689 41.4544 448.666 42.6242C453.075 43.8864 452.758 39.2312 452.758 39.2312C452.758 39.2312 454.824 40.8062 456.136 40.0289C457.757 39.0689 457.911 36.7302 457.911 36.7302" stroke="#89C747" stroke-width="0.833333" stroke-linecap="round" stroke-linejoin="round"/>
<path d="M452.699 27.7203C451.259 25.2898 448.464 27.3237 448.641 27.8678C448.914 28.4566 449.245 29.0163 449.631 29.5383C449.902 30.1247 450.232 30.682 450.616 31.2016C451.04 31.5899 454.135 30.1436 452.699 27.7203Z" stroke="#89C747" stroke-width="0.833333" stroke-linecap="round" stroke-linejoin="round"/>
<path d="M452.529 33.972C452.029 33.1286 450.94 32.85 450.097 33.3496C449.253 33.8493 448.975 34.9381 449.474 35.7815C449.974 36.6249 451.063 36.9035 451.906 36.4038C452.75 35.9042 453.028 34.8154 452.529 33.972Z" stroke="#89C747" stroke-width="0.833333" stroke-linecap="round" stroke-linejoin="round"/>
<path d="M446.896 24.4652C446.397 23.6218 445.308 23.3431 444.464 23.8428C443.621 24.3425 443.342 25.4313 443.842 26.2746C444.342 27.118 445.431 27.3967 446.274 26.897C447.117 26.3973 447.396 25.3086 446.896 24.4652Z" stroke="#89C747" stroke-width="0.833333" stroke-linecap="round" stroke-linejoin="round"/>
<path d="M445.439 24.9316C445.263 24.6346 444.879 24.5365 444.582 24.7124C444.285 24.8884 444.187 25.2718 444.363 25.5687C444.539 25.8657 444.923 25.9638 445.22 25.7879C445.517 25.6119 445.615 25.2286 445.439 24.9316Z" fill="#89C747"/>
<path d="M451.037 34.381C450.861 34.0841 450.478 33.986 450.181 34.1619C449.884 34.3379 449.786 34.7212 449.962 35.0182C450.138 35.3152 450.521 35.4133 450.818 35.2373C451.115 35.0614 451.213 34.678 451.037 34.381Z" fill="#89C747"/>
<path d="M449.604 20.207L462.323 13.7179M451.863 23.2852L464.389 16.2905M454.52 26.9029L466.845 19.3397M457.408 32.873L469.23 24.8039M457.754 35.4674L469.079 27.1983" stroke="#89C747" stroke-width="0.833333" stroke-linecap="round" stroke-linejoin="round"/>
</g>
<g clip-path="url(#clip2_160_905)">
<path d="M430.385 87.6364C428.067 87.2082 425.68 87.3556 423.432 88.0655C421.185 88.7754 419.146 90.0261 417.495 91.7079L415.862 88.118L413.586 89.1533L415.741 93.8903C414.2 96.2395 413.381 98.9887 413.385 101.798C413.39 104.608 414.217 107.355 415.765 109.699C414.975 110.942 414.704 112.446 415.01 113.886C415.317 115.327 416.177 116.59 417.404 117.403C418.632 118.217 420.13 118.516 421.576 118.237C423.022 117.958 424.301 117.123 425.138 115.91C427.912 116.424 430.776 116.111 433.373 115.009C435.97 113.907 438.186 112.066 439.744 109.714C441.303 107.362 442.135 104.604 442.137 101.783C442.14 98.9615 441.312 96.202 439.758 93.8475C440.548 92.6045 440.819 91.1011 440.512 89.6605C440.206 88.2199 439.346 86.9571 438.118 86.1435C436.891 85.3299 435.393 85.0305 433.946 85.3097C432.5 85.5888 431.221 86.4243 430.385 87.6364ZM438.067 90.1824C438.239 90.9821 438.088 91.8171 437.648 92.5065L436.779 93.8732L437.671 95.2247C438.956 97.1697 439.64 99.4497 439.638 101.781C439.636 104.111 438.948 106.39 437.661 108.333C436.373 110.276 434.543 111.798 432.397 112.708C430.251 113.618 427.885 113.877 425.593 113.452L424.001 113.158L423.081 114.49C422.616 115.164 421.906 115.628 421.102 115.783C420.299 115.938 419.467 115.772 418.785 115.32C418.103 114.868 417.625 114.167 417.455 113.366C417.285 112.566 417.435 111.731 417.875 111.04L418.743 109.674L417.851 108.322C416.567 106.377 415.883 104.097 415.885 101.766C415.887 99.4354 416.575 97.1567 417.862 95.2137C419.15 93.2707 420.98 91.7494 423.126 90.8391C425.272 89.9289 427.638 89.67 429.93 90.0946L431.522 90.3893L432.442 89.0566C432.789 88.5544 433.275 88.1647 433.841 87.9357C434.406 87.7068 435.027 87.6486 435.625 87.7683C436.223 87.8881 436.774 88.1806 437.208 88.6096C437.642 89.0386 437.94 89.5854 438.067 90.1824V90.1824Z" fill="#89C747"/>
<path d="M421.359 105.778L423.085 103.173L425.69 104.899L423.964 107.504L421.359 105.778ZM427.228 96.9212L428.954 94.3162L431.559 96.0424L429.833 98.6474L427.228 96.9212ZM435.055 106.607C435.509 105.922 435.823 105.156 435.98 104.35C436.137 103.544 436.134 102.716 435.971 101.911C435.807 101.107 435.487 100.343 435.029 99.6621C434.57 98.9814 433.982 98.3977 433.298 97.9444L426.393 108.364C427.077 108.818 427.844 109.132 428.65 109.289C429.455 109.446 430.284 109.443 431.088 109.28C432.713 108.95 434.14 107.988 435.055 106.607V106.607Z" fill="#89C747"/>
</g>
<g clip-path="url(#clip3_160_905)">
<path d="M98.3846 27.6364C96.0669 27.2082 93.6796 27.3556 91.4322 28.0655C89.1849 28.7754 87.1461 30.0261 85.4949 31.7079L83.8616 28.118L81.5861 29.1533L83.7413 33.8903C82.2002 36.2395 81.3812 38.9887 81.3854 41.7983C81.3895 44.6079 82.2167 47.3547 83.7648 49.6993C82.9747 50.9423 82.7038 52.4457 83.0104 53.8863C83.317 55.327 84.1766 56.5898 85.4044 57.4034C86.6321 58.2169 88.1301 58.5163 89.5763 58.2372C91.0225 57.958 92.3014 57.1226 93.1382 55.9105C95.9122 56.4242 98.7761 56.1106 101.373 55.0088C103.97 53.907 106.186 52.0655 107.744 49.7138C109.303 47.3621 110.135 44.6039 110.137 41.7827C110.14 38.9615 109.312 36.202 107.758 33.8475C108.548 32.6045 108.819 31.1011 108.512 29.6605C108.206 28.2199 107.346 26.9571 106.118 26.1435C104.891 25.3299 103.393 25.0305 101.946 25.3097C100.5 25.5888 99.2213 26.4243 98.3846 27.6364ZM106.067 30.1824C106.239 30.9821 106.088 31.8171 105.648 32.5065L104.779 33.8732L105.671 35.2247C106.956 37.1697 107.64 39.4497 107.638 41.7805C107.636 44.1114 106.948 46.3902 105.661 48.3332C104.373 50.2762 102.543 51.7975 100.397 52.7077C98.2512 53.618 95.885 53.8769 93.5932 53.4522L92.0008 53.1575L91.0808 54.4902C90.6162 55.1637 89.9058 55.628 89.1024 55.7832C88.299 55.9384 87.4668 55.7721 86.7848 55.3201C86.1027 54.8682 85.6252 54.1666 85.455 53.3663C85.2848 52.566 85.4355 51.7308 85.8746 51.0404L86.7433 49.6737L85.8513 48.3221C84.567 46.377 83.8832 44.0971 83.8851 41.7663C83.887 39.4354 84.5745 37.1567 85.862 35.2137C87.1495 33.2707 88.9801 31.7494 91.1259 30.8391C93.2716 29.9289 95.6378 29.67 97.9296 30.0946L99.5219 30.3893L100.442 29.0566C100.789 28.5544 101.275 28.1647 101.841 27.9357C102.406 27.7068 103.027 27.6486 103.625 27.7683C104.223 27.8881 104.774 28.1806 105.208 28.6096C105.642 29.0386 105.94 29.5854 106.067 30.1824V30.1824Z" fill="#89C747"/>
<path d="M89.3589 45.7782L91.0851 43.1732L93.69 44.8994L91.9639 47.5044L89.3589 45.7782ZM95.2279 36.9212L96.954 34.3162L99.559 36.0424L97.8328 38.6474L95.2279 36.9212ZM103.055 46.6067C103.509 45.9225 103.823 45.1557 103.98 44.3501C104.137 43.5445 104.134 42.7159 103.971 41.9115C103.807 41.1071 103.487 40.3428 103.029 39.6621C102.57 38.9814 101.982 38.3977 101.298 37.9444L94.3931 48.3643C95.0773 48.8177 95.8441 49.1318 96.6497 49.2889C97.4553 49.4459 98.2839 49.4427 99.0883 49.2795C100.713 48.9499 102.14 47.9884 103.055 46.6067V46.6067Z" fill="#89C747"/>
</g>
<path d="M502.209 59.6359L507.559 56.219L506.398 54.402L501.049 57.8189L502.209 59.636L502.209 59.6359V59.6359ZM508.556 66.0283L510.549 66.8512L512.97 60.9853L510.978 60.1632L508.556 66.0283ZM497.918 49.3732L504.257 49.6417L504.349 47.4879L498.009 47.2185L497.917 49.3729L497.918 49.3732V49.3732ZM508.442 54.376C511.281 58.8209 516.282 60.7 519.612 58.5729L530.539 45.1551L526.099 38.2033L509.33 42.4764C506 44.6035 505.603 49.9305 508.442 54.3756L508.442 54.376V54.376ZM519.28 67.8044L521.385 67.3339L520.005 61.1414L517.899 61.609L519.28 67.8045L519.28 67.8044V67.8044ZM500.815 38.8964L505.856 42.754L507.167 41.0421L502.127 37.1841L500.815 38.8964V38.8964ZM524.034 58.0321L528.72 62.3131L530.174 60.7241L525.49 56.4419L524.034 58.0321L524.034 58.0321V58.0321ZM511.68 38.6916L513.735 38.0385L511.819 31.9888L509.766 32.6407L511.68 38.6917L511.68 38.6916V38.6916ZM531.613 44.6117L534.02 43.0741L529.45 35.9196L527.044 37.4569L531.614 44.6114L531.613 44.6117ZM535.217 42.3098L537.624 40.7723L533.054 33.6177L530.647 35.155L535.217 42.3095L535.217 42.3098Z" fill="#89C747"/>
<path opacity="0.7" d="M141.209 106.636L146.559 103.219L145.398 101.402L140.049 104.819L141.209 106.636L141.209 106.636V106.636ZM147.556 113.028L149.549 113.851L151.97 107.985L149.978 107.163L147.556 113.028ZM136.918 96.3732L143.257 96.6417L143.349 94.4879L137.009 94.2185L136.917 96.3729L136.918 96.3732V96.3732ZM147.442 101.376C150.281 105.821 155.282 107.7 158.612 105.573L169.539 92.1551L165.099 85.2033L148.33 89.4764C145 91.6035 144.603 96.9305 147.442 101.376L147.442 101.376V101.376ZM158.28 114.804L160.385 114.334L159.005 108.141L156.899 108.609L158.28 114.804L158.28 114.804V114.804ZM139.815 85.8964L144.856 89.754L146.167 88.0421L141.127 84.1841L139.815 85.8964V85.8964ZM163.034 105.032L167.72 109.313L169.174 107.724L164.49 103.442L163.034 105.032L163.034 105.032V105.032ZM150.68 85.6916L152.735 85.0385L150.819 78.9888L148.766 79.6407L150.68 85.6917L150.68 85.6916V85.6916ZM170.613 91.6117L173.02 90.0741L168.45 82.9196L166.044 84.4569L170.614 91.6114L170.613 91.6117ZM174.217 89.3098L176.624 87.7723L172.054 80.6177L169.647 82.155L174.217 89.3095L174.217 89.3098Z" fill="#89C747"/>
<path d="M1461 36.8024V42.8024H1463V54.8024H1461V60.8024H1491V54.8024H1489V42.8024H1491V36.8024H1461ZM1463 56.8024H1465V58.8024H1463V56.8024ZM1463 38.8024H1465V40.8024H1463V38.8024ZM1465 42.8024H1475V54.8024H1465V42.8024ZM1467 56.8024H1469V58.8024H1467V56.8024ZM1467 38.8024H1469V40.8024H1467V38.8024ZM1471 56.8024H1473V58.8024H1471V56.8024ZM1471 38.8024H1473V40.8024H1471V38.8024ZM1475 56.8024H1477V58.8024H1475V56.8024ZM1475 38.8024H1477V40.8024H1475V38.8024ZM1477 42.8024H1487V54.8024H1477V42.8024ZM1479 56.8024H1481V58.8024H1479V56.8024ZM1479 38.8024H1481V40.8024H1479V38.8024ZM1483 56.8024H1485V58.8024H1483V56.8024ZM1483 38.8024H1485V40.8024H1483V38.8024ZM1487 56.8024H1489V58.8024H1487V56.8024ZM1487 38.8024H1489V40.8024H1487V38.8024Z" fill="#89C747"/>
<path d="M1372.42 58.8389L1372.02 49.5377L1376 53.1898L1378.25 50.733L1372.53 45.4882L1377.77 39.7667L1375.32 37.5146L1371.67 41.4986L1371.26 32.1974C1371.18 30.3608 1369.62 28.9322 1367.79 29.012L1349.47 29.8084C1347.63 29.8882 1346.2 31.4468 1346.28 33.2834L1347.44 59.9249C1347.52 61.7615 1349.08 63.1901 1350.92 63.1103L1369.23 62.3139C1371.07 62.2341 1372.5 60.6755 1372.42 58.8389ZM1349.61 33.1386L1367.93 32.3422L1369.09 58.9837L1350.77 59.7834L1349.61 33.1386Z" fill="#89C747"/>
<path d="M1717.42 114.839L1717.01 105.538L1721 109.19L1723.25 106.733L1717.53 101.488L1722.77 95.7667L1720.32 93.5146L1716.67 97.4986L1716.26 88.1974C1716.18 86.3608 1714.62 84.9322 1712.79 85.012L1694.47 85.8084C1692.63 85.8882 1691.2 87.4468 1691.28 89.2834L1692.44 115.925C1692.52 117.761 1694.08 119.19 1695.92 119.11L1714.23 118.314C1716.07 118.234 1717.5 116.676 1717.42 114.839ZM1694.61 89.1386L1712.93 88.3422L1714.09 114.984L1695.77 115.783L1694.61 89.1386Z" fill="#89C747"/>
<path d="M1417.62 92.7573L1422.6 108.085C1422.71 108.265 1422.78 108.471 1422.79 108.685L1424.5 113.95V92.0523C1424.5 91.7208 1424.63 91.4028 1424.87 91.1684C1425.1 90.934 1425.42 90.8023 1425.75 90.8023H1438.25C1439.91 90.8023 1441.5 91.4608 1442.67 92.6329C1443.84 93.805 1444.5 95.3947 1444.5 97.0523V114.552C1444.5 116.21 1443.84 117.8 1442.67 118.972C1441.5 120.144 1439.91 120.802 1438.25 120.802H1425.75C1425.49 120.802 1425.24 120.72 1425.03 120.577L1423.53 121.065C1421.95 121.577 1420.24 121.442 1418.76 120.689C1417.28 119.937 1416.16 118.629 1415.65 117.052L1410.25 100.41C1409.73 98.8334 1409.87 97.1182 1410.62 95.6414C1411.37 94.1645 1412.68 93.0471 1414.26 92.5348L1416.04 91.9548C1416.36 91.8524 1416.7 91.8794 1416.99 92.0299C1417.29 92.1804 1417.51 92.442 1417.62 92.7573V92.7573ZM1418.03 102.117L1412.46 98.9048C1412.49 99.1537 1412.54 99.3991 1412.62 99.6373L1413.63 102.75L1419.3 106.02L1418.03 102.12V102.117ZM1413.08 96.3798C1413.11 96.3952 1413.14 96.4119 1413.17 96.4298L1416.87 98.5648L1415.62 94.7198L1415.03 94.9123C1414.23 95.1693 1413.55 95.6861 1413.08 96.3798V96.3798ZM1414.79 106.305L1416.06 110.205L1421.72 113.477L1420.45 109.577L1414.79 106.302V106.305ZM1423.35 118.495L1422.88 117.027L1417.21 113.76L1418.03 116.28C1418.34 117.226 1419.01 118.011 1419.89 118.462C1420.78 118.914 1421.81 118.995 1422.76 118.687L1423.35 118.495V118.495ZM1427 118.302H1438.25C1439.24 118.302 1440.2 117.907 1440.9 117.204C1441.6 116.501 1442 115.547 1442 114.552V97.0523C1442 96.0578 1441.6 95.1039 1440.9 94.4007C1440.2 93.6974 1439.24 93.3023 1438.25 93.3023H1427V118.302Z" fill="#89C747"/>
<g clip-path="url(#clip4_160_905)">
<path d="M767.715 40.8314L779.108 50.0043M761.032 44.0876L767.715 40.8314L776.855 27.9636L786.727 38.1764L779.108 50.0043L772.584 51.7313L761.032 44.0876V44.0876Z" stroke="#89C747" stroke-width="0.833333" stroke-linecap="round" stroke-linejoin="round"/>
<path d="M776.523 28.3591C776.433 27.9165 775.537 27.6898 775.205 28.0202C775.205 28.0202 776.248 25.8679 774.652 24.8455C773.057 23.8232 770.961 25.2813 770.961 25.2813C770.961 25.2813 766.27 15.2313 759.869 22.5968C754.561 28.7043 758.25 33.1361 758.25 33.1361C758.25 33.1361 753.319 32.56 753.462 36.7026C753.653 41.2849 757.971 39.5175 757.971 39.5175C757.971 39.5175 757.127 41.9748 758.278 42.9752C759.7 44.2106 761.968 43.6205 761.968 43.6205" stroke="#89C747" stroke-width="0.833333" stroke-linecap="round" stroke-linejoin="round"/>
<path d="M768.877 35.8354C770.73 33.7031 767.919 31.6908 767.459 32.0302C766.986 32.4745 766.559 32.9655 766.185 33.4958C765.714 33.9379 765.289 34.4269 764.917 34.9551C764.682 35.4795 767.029 37.9614 768.877 35.8354Z" stroke="#89C747" stroke-width="0.833333" stroke-linecap="round" stroke-linejoin="round"/>
<path d="M762.89 37.643C763.533 36.9031 763.455 35.7819 762.715 35.1389C761.975 34.4958 760.854 34.5744 760.21 35.3143C759.567 36.0542 759.646 37.1753 760.386 37.8184C761.126 38.4614 762.247 38.3829 762.89 37.643Z" stroke="#89C747" stroke-width="0.833333" stroke-linecap="round" stroke-linejoin="round"/>
<path d="M770.139 29.3025C770.782 28.5626 770.703 27.4415 769.963 26.7984C769.223 26.1554 768.102 26.2339 767.459 26.9738C766.816 27.7138 766.895 28.8349 767.634 29.4779C768.374 30.121 769.495 30.0424 770.139 29.3025Z" stroke="#89C747" stroke-width="0.833333" stroke-linecap="round" stroke-linejoin="round"/>
<path d="M769.237 28.0661C769.463 27.8056 769.436 27.4108 769.175 27.1844C768.914 26.958 768.52 26.9856 768.293 27.2462C768.067 27.5067 768.095 27.9014 768.355 28.1279C768.616 28.3543 769.01 28.3266 769.237 28.0661Z" fill="#89C747"/>
<path d="M762.032 36.3563C762.258 36.0957 762.231 35.701 761.97 35.4745C761.71 35.2481 761.315 35.2758 761.088 35.5363C760.862 35.7968 760.89 36.1916 761.15 36.418C761.411 36.6445 761.806 36.6168 762.032 36.3563Z" fill="#89C747"/>
<path d="M775.033 30.5309L785.198 40.5577M772.823 33.645L783.408 43.3294M770.227 37.3062L781.287 46.6205M765.47 41.9278L776.853 50.6053M763.117 43.0732L774.533 51.2168" stroke="#89C747" stroke-width="0.833333" stroke-linecap="round" stroke-linejoin="round"/>
</g>
<g clip-path="url(#clip5_160_905)">
<path d="M1580.07 35.3971L1592.37 27.4736M1581.06 42.7657L1580.07 35.3971L1570.74 22.6684L1583.54 16.517L1592.37 27.4736L1591.95 34.2098L1581.06 42.7657V42.7657Z" stroke="#89C747" stroke-width="0.833333" stroke-linecap="round" stroke-linejoin="round"/>
<path d="M1571.01 23.1087C1570.56 23.0548 1570.07 23.8338 1570.28 24.2523C1570.28 24.2523 1568.56 22.5849 1567.09 23.7772C1565.62 24.9695 1566.34 27.4174 1566.34 27.4174C1566.34 27.4174 1555.32 28.7038 1560.3 37.0994C1564.42 44.061 1569.79 41.9556 1569.79 41.9556C1569.79 41.9556 1567.69 46.4544 1571.67 47.6242C1576.08 48.8864 1575.76 44.2312 1575.76 44.2312C1575.76 44.2312 1577.82 45.8062 1579.14 45.0289C1580.76 44.0689 1580.91 41.7302 1580.91 41.7302" stroke="#89C747" stroke-width="0.833333" stroke-linecap="round" stroke-linejoin="round"/>
<path d="M1575.7 32.7203C1574.26 30.2898 1571.46 32.3237 1571.64 32.8678C1571.91 33.4566 1572.24 34.0163 1572.63 34.5383C1572.9 35.1247 1573.23 35.682 1573.62 36.2016C1574.04 36.5899 1577.13 35.1436 1575.7 32.7203Z" stroke="#89C747" stroke-width="0.833333" stroke-linecap="round" stroke-linejoin="round"/>
<path d="M1575.53 38.972C1575.03 38.1286 1573.94 37.85 1573.1 38.3496C1572.25 38.8493 1571.97 39.9381 1572.47 40.7815C1572.97 41.6249 1574.06 41.9035 1574.91 41.4038C1575.75 40.9042 1576.03 39.8154 1575.53 38.972Z" stroke="#89C747" stroke-width="0.833333" stroke-linecap="round" stroke-linejoin="round"/>
<path d="M1569.9 29.4652C1569.4 28.6218 1568.31 28.3431 1567.46 28.8428C1566.62 29.3425 1566.34 30.4313 1566.84 31.2746C1567.34 32.118 1568.43 32.3967 1569.27 31.897C1570.12 31.3973 1570.4 30.3086 1569.9 29.4652Z" stroke="#89C747" stroke-width="0.833333" stroke-linecap="round" stroke-linejoin="round"/>
<path d="M1568.44 29.9316C1568.26 29.6346 1567.88 29.5365 1567.58 29.7124C1567.29 29.8884 1567.19 30.2718 1567.36 30.5687C1567.54 30.8657 1567.92 30.9638 1568.22 30.7879C1568.52 30.6119 1568.61 30.2286 1568.44 29.9316Z" fill="#89C747"/>
<path d="M1574.04 39.381C1573.86 39.0841 1573.48 38.986 1573.18 39.1619C1572.88 39.3379 1572.79 39.7212 1572.96 40.0182C1573.14 40.3152 1573.52 40.4133 1573.82 40.2373C1574.11 40.0614 1574.21 39.678 1574.04 39.381Z" fill="#89C747"/>
<path d="M1572.6 25.207L1585.32 18.7179M1574.86 28.2852L1587.39 21.2905M1577.52 31.9029L1589.84 24.3397M1580.41 37.873L1592.23 29.8039M1580.75 40.4674L1592.08 32.1983" stroke="#89C747" stroke-width="0.833333" stroke-linecap="round" stroke-linejoin="round"/>
</g>
<g clip-path="url(#clip6_160_905)">
<path d="M1553.38 92.6364C1551.07 92.2082 1548.68 92.3556 1546.43 93.0655C1544.18 93.7754 1542.15 95.0261 1540.49 96.7079L1538.86 93.118L1536.59 94.1533L1538.74 98.8903C1537.2 101.239 1536.38 103.989 1536.39 106.798C1536.39 109.608 1537.22 112.355 1538.76 114.699C1537.97 115.942 1537.7 117.446 1538.01 118.886C1538.32 120.327 1539.18 121.59 1540.4 122.403C1541.63 123.217 1543.13 123.516 1544.58 123.237C1546.02 122.958 1547.3 122.123 1548.14 120.91C1550.91 121.424 1553.78 121.111 1556.37 120.009C1558.97 118.907 1561.19 117.066 1562.74 114.714C1564.3 112.362 1565.13 109.604 1565.14 106.783C1565.14 103.962 1564.31 101.202 1562.76 98.8475C1563.55 97.6045 1563.82 96.1011 1563.51 94.6605C1563.21 93.2199 1562.35 91.9571 1561.12 91.1435C1559.89 90.3299 1558.39 90.0305 1556.95 90.3097C1555.5 90.5888 1554.22 91.4243 1553.38 92.6364ZM1561.07 95.1824C1561.24 95.9821 1561.09 96.8171 1560.65 97.5065L1559.78 98.8732L1560.67 100.225C1561.96 102.17 1562.64 104.45 1562.64 106.781C1562.64 109.111 1561.95 111.39 1560.66 113.333C1559.37 115.276 1557.54 116.798 1555.4 117.708C1553.25 118.618 1550.89 118.877 1548.59 118.452L1547 118.158L1546.08 119.49C1545.62 120.164 1544.91 120.628 1544.1 120.783C1543.3 120.938 1542.47 120.772 1541.78 120.32C1541.1 119.868 1540.63 119.167 1540.46 118.366C1540.28 117.566 1540.44 116.731 1540.87 116.04L1541.74 114.674L1540.85 113.322C1539.57 111.377 1538.88 109.097 1538.89 106.766C1538.89 104.435 1539.57 102.157 1540.86 100.214C1542.15 98.2707 1543.98 96.7494 1546.13 95.8391C1548.27 94.9289 1550.64 94.67 1552.93 95.0946L1554.52 95.3893L1555.44 94.0566C1555.79 93.5544 1556.27 93.1647 1556.84 92.9357C1557.41 92.7068 1558.03 92.6486 1558.63 92.7683C1559.22 92.8881 1559.77 93.1806 1560.21 93.6096C1560.64 94.0386 1560.94 94.5854 1561.07 95.1824V95.1824Z" fill="#89C747"/>
<path d="M1544.36 110.778L1546.09 108.173L1548.69 109.899L1546.96 112.504L1544.36 110.778ZM1550.23 101.921L1551.95 99.3162L1554.56 101.042L1552.83 103.647L1550.23 101.921ZM1558.06 111.607C1558.51 110.922 1558.82 110.156 1558.98 109.35C1559.14 108.544 1559.13 107.716 1558.97 106.911C1558.81 106.107 1558.49 105.343 1558.03 104.662C1557.57 103.981 1556.98 103.398 1556.3 102.944L1549.39 113.364C1550.08 113.818 1550.84 114.132 1551.65 114.289C1552.46 114.446 1553.28 114.443 1554.09 114.28C1555.71 113.95 1557.14 112.988 1558.06 111.607V111.607Z" fill="#89C747"/>
</g>
<g clip-path="url(#clip7_160_905)">
<path d="M1221.38 32.6364C1219.07 32.2082 1216.68 32.3556 1214.43 33.0655C1212.18 33.7754 1210.15 35.0261 1208.49 36.7079L1206.86 33.118L1204.59 34.1533L1206.74 38.8903C1205.2 41.2395 1204.38 43.9887 1204.39 46.7983C1204.39 49.6079 1205.22 52.3547 1206.76 54.6993C1205.97 55.9423 1205.7 57.4457 1206.01 58.8863C1206.32 60.327 1207.18 61.5898 1208.4 62.4034C1209.63 63.2169 1211.13 63.5163 1212.58 63.2372C1214.02 62.958 1215.3 62.1226 1216.14 60.9105C1218.91 61.4242 1221.78 61.1106 1224.37 60.0088C1226.97 58.907 1229.19 57.0655 1230.74 54.7138C1232.3 52.3621 1233.13 49.6039 1233.14 46.7827C1233.14 43.9615 1232.31 41.202 1230.76 38.8475C1231.55 37.6045 1231.82 36.1011 1231.51 34.6605C1231.21 33.2199 1230.35 31.9571 1229.12 31.1435C1227.89 30.3299 1226.39 30.0305 1224.95 30.3097C1223.5 30.5888 1222.22 31.4243 1221.38 32.6364ZM1229.07 35.1824C1229.24 35.9821 1229.09 36.8171 1228.65 37.5065L1227.78 38.8732L1228.67 40.2247C1229.96 42.1697 1230.64 44.4497 1230.64 46.7805C1230.64 49.1114 1229.95 51.3902 1228.66 53.3332C1227.37 55.2762 1225.54 56.7975 1223.4 57.7077C1221.25 58.618 1218.89 58.8769 1216.59 58.4522L1215 58.1575L1214.08 59.4902C1213.62 60.1637 1212.91 60.628 1212.1 60.7832C1211.3 60.9384 1210.47 60.7721 1209.78 60.3201C1209.1 59.8682 1208.63 59.1666 1208.46 58.3663C1208.28 57.566 1208.44 56.7308 1208.87 56.0404L1209.74 54.6737L1208.85 53.3221C1207.57 51.377 1206.88 49.0971 1206.89 46.7663C1206.89 44.4354 1207.57 42.1567 1208.86 40.2137C1210.15 38.2707 1211.98 36.7494 1214.13 35.8391C1216.27 34.9289 1218.64 34.67 1220.93 35.0946L1222.52 35.3893L1223.44 34.0566C1223.79 33.5544 1224.27 33.1647 1224.84 32.9357C1225.41 32.7068 1226.03 32.6486 1226.63 32.7683C1227.22 32.8881 1227.77 33.1806 1228.21 33.6096C1228.64 34.0386 1228.94 34.5854 1229.07 35.1824V35.1824Z" fill="#89C747"/>
<path d="M1212.36 50.7782L1214.09 48.1732L1216.69 49.8994L1214.96 52.5044L1212.36 50.7782ZM1218.23 41.9212L1219.95 39.3162L1222.56 41.0424L1220.83 43.6474L1218.23 41.9212ZM1226.06 51.6067C1226.51 50.9225 1226.82 50.1557 1226.98 49.3501C1227.14 48.5445 1227.13 47.7159 1226.97 46.9115C1226.81 46.1071 1226.49 45.3428 1226.03 44.6621C1225.57 43.9814 1224.98 43.3977 1224.3 42.9444L1217.39 53.3643C1218.08 53.8177 1218.84 54.1318 1219.65 54.2889C1220.46 54.4459 1221.28 54.4427 1222.09 54.2795C1223.71 53.9499 1225.14 52.9884 1226.06 51.6067V51.6067Z" fill="#89C747"/>
</g>
<path d="M1625.21 64.6359L1630.56 61.219L1629.4 59.402L1624.05 62.8189L1625.21 64.636L1625.21 64.6359V64.6359ZM1631.56 71.0283L1633.55 71.8512L1635.97 65.9853L1633.98 65.1632L1631.56 71.0283ZM1620.92 54.3732L1627.26 54.6417L1627.35 52.4879L1621.01 52.2185L1620.92 54.3729L1620.92 54.3732V54.3732ZM1631.44 59.376C1634.28 63.8209 1639.28 65.7 1642.61 63.5729L1653.54 50.1551L1649.1 43.2033L1632.33 47.4764C1629 49.6035 1628.6 54.9305 1631.44 59.3756L1631.44 59.376V59.376ZM1642.28 72.8044L1644.38 72.3339L1643 66.1414L1640.9 66.609L1642.28 72.8045L1642.28 72.8044V72.8044ZM1623.81 43.8964L1628.86 47.754L1630.17 46.0421L1625.13 42.1841L1623.81 43.8964V43.8964ZM1647.03 63.0321L1651.72 67.3131L1653.17 65.7241L1648.49 61.4419L1647.03 63.0321L1647.03 63.0321V63.0321ZM1634.68 43.6916L1636.74 43.0385L1634.82 36.9888L1632.77 37.6407L1634.68 43.6917L1634.68 43.6916V43.6916ZM1654.61 49.6117L1657.02 48.0741L1652.45 40.9196L1650.04 42.4569L1654.61 49.6114L1654.61 49.6117ZM1658.22 47.3098L1660.62 45.7723L1656.05 38.6177L1653.65 40.155L1658.22 47.3095L1658.22 47.3098Z" fill="#89C747"/>
<path opacity="0.7" d="M1264.21 111.636L1269.56 108.219L1268.4 106.402L1263.05 109.819L1264.21 111.636L1264.21 111.636V111.636ZM1270.56 118.028L1272.55 118.851L1274.97 112.985L1272.98 112.163L1270.56 118.028ZM1259.92 101.373L1266.26 101.642L1266.35 99.4879L1260.01 99.2185L1259.92 101.373L1259.92 101.373V101.373ZM1270.44 106.376C1273.28 110.821 1278.28 112.7 1281.61 110.573L1292.54 97.1551L1288.1 90.2033L1271.33 94.4764C1268 96.6035 1267.6 101.931 1270.44 106.376L1270.44 106.376V106.376ZM1281.28 119.804L1283.38 119.334L1282 113.141L1279.9 113.609L1281.28 119.804L1281.28 119.804V119.804ZM1262.81 90.8964L1267.86 94.754L1269.17 93.0421L1264.13 89.1841L1262.81 90.8964V90.8964ZM1286.03 110.032L1290.72 114.313L1292.17 112.724L1287.49 108.442L1286.03 110.032L1286.03 110.032V110.032ZM1273.68 90.6916L1275.74 90.0385L1273.82 83.9888L1271.77 84.6407L1273.68 90.6917L1273.68 90.6916V90.6916ZM1293.61 96.6117L1296.02 95.0741L1291.45 87.9196L1289.04 89.4569L1293.61 96.6114L1293.61 96.6117ZM1297.22 94.3098L1299.62 92.7723L1295.05 85.6177L1292.65 87.155L1297.22 94.3095L1297.22 94.3098Z" fill="#89C747"/>
<path d="M939 39.8024V45.8024H941V57.8024H939V63.8024H969V57.8024H967V45.8024H969V39.8024H939ZM941 59.8024H943V61.8024H941V59.8024ZM941 41.8024H943V43.8024H941V41.8024ZM943 45.8024H953V57.8024H943V45.8024ZM945 59.8024H947V61.8024H945V59.8024ZM945 41.8024H947V43.8024H945V41.8024ZM949 59.8024H951V61.8024H949V59.8024ZM949 41.8024H951V43.8024H949V41.8024ZM953 59.8024H955V61.8024H953V59.8024ZM953 41.8024H955V43.8024H953V41.8024ZM955 45.8024H965V57.8024H955V45.8024ZM957 59.8024H959V61.8024H957V59.8024ZM957 41.8024H959V43.8024H957V41.8024ZM961 59.8024H963V61.8024H961V59.8024ZM961 41.8024H963V43.8024H961V41.8024ZM965 59.8024H967V61.8024H965V59.8024ZM965 41.8024H967V43.8024H965V41.8024Z" fill="#89C747"/>
<path d="M850.419 61.8389L850.015 52.5377L853.999 56.1898L856.251 53.733L850.53 48.4882L855.774 42.7667L853.318 40.5146L849.666 44.4986L849.261 35.1974C849.181 33.3608 847.623 31.9322 845.786 32.012L827.47 32.8084C825.634 32.8882 824.205 34.4468 824.285 36.2834L825.443 62.9249C825.523 64.7615 827.081 66.1901 828.918 66.1103L847.234 65.3139C849.071 65.2341 850.499 63.6755 850.419 61.8389ZM827.615 36.1386L845.931 35.3422L847.089 61.9837L828.773 62.7834L827.615 36.1386Z" fill="#89C747"/>
<path d="M1195.42 117.839L1195.02 108.538L1199 112.19L1201.25 109.733L1195.53 104.488L1200.77 98.7667L1198.32 96.5146L1194.67 100.499L1194.26 91.1974C1194.18 89.3608 1192.62 87.9322 1190.79 88.012L1172.47 88.8084C1170.63 88.8882 1169.2 90.4468 1169.28 92.2834L1170.44 118.925C1170.52 120.761 1172.08 122.19 1173.92 122.11L1192.23 121.314C1194.07 121.234 1195.5 119.676 1195.42 117.839ZM1172.61 92.1386L1190.93 91.3422L1192.09 117.984L1173.77 118.783L1172.61 92.1386Z" fill="#89C747"/>
<path d="M895.615 95.7573L900.595 111.085C900.711 111.265 900.779 111.471 900.793 111.685L902.5 116.95V95.0523C902.5 94.7208 902.632 94.4028 902.866 94.1684C903.101 93.934 903.418 93.8023 903.75 93.8023H916.25C917.908 93.8023 919.497 94.4608 920.669 95.6329C921.842 96.805 922.5 98.3947 922.5 100.052V117.552C922.5 119.21 921.842 120.8 920.669 121.972C919.497 123.144 917.908 123.802 916.25 123.802H903.75C903.485 123.802 903.238 123.72 903.033 123.577L901.528 124.065C899.951 124.577 898.236 124.442 896.759 123.689C895.282 122.937 894.165 121.629 893.653 120.052L888.245 103.41C887.733 101.833 887.868 100.118 888.62 98.6414C889.373 97.1645 890.681 96.0471 892.258 95.5348L894.04 94.9548C894.355 94.8524 894.698 94.8794 894.994 95.0299C895.289 95.1804 895.513 95.442 895.615 95.7573V95.7573ZM896.028 105.117L890.463 101.905C890.491 102.154 890.545 102.399 890.623 102.637L891.633 105.75L897.295 109.02L896.028 105.12V105.117ZM891.08 99.3798C891.112 99.3952 891.142 99.4119 891.173 99.4298L894.873 101.565L893.623 97.7198L893.03 97.9123C892.234 98.1693 891.547 98.6861 891.08 99.3798V99.3798ZM892.788 109.305L894.055 113.205L899.718 116.477L898.45 112.577L892.788 109.302V109.305ZM901.35 121.495L900.875 120.027L895.21 116.76L896.03 119.28C896.337 120.226 897.008 121.011 897.894 121.462C898.78 121.914 899.809 121.995 900.755 121.687L901.35 121.495V121.495ZM905 121.302H916.25C917.245 121.302 918.198 120.907 918.902 120.204C919.605 119.501 920 118.547 920 117.552V100.052C920 99.0578 919.605 98.1039 918.902 97.4007C918.198 96.6974 917.245 96.3023 916.25 96.3023H905V121.302Z" fill="#89C747"/>
<path d="M608.615 22.9551L613.595 38.2826C613.711 38.4625 613.779 38.669 613.793 38.8826L615.5 44.1476V22.2501C615.5 21.9185 615.632 21.6006 615.866 21.3662C616.101 21.1318 616.418 21.0001 616.75 21.0001H629.25C630.908 21.0001 632.497 21.6585 633.669 22.8306C634.842 24.0028 635.5 25.5925 635.5 27.2501V44.7501C635.5 46.4077 634.842 47.9974 633.669 49.1695C632.497 50.3416 630.908 51.0001 629.25 51.0001H616.75C616.485 51.0001 616.238 50.9176 616.033 50.7751L614.528 51.2626C612.951 51.7747 611.236 51.6396 609.759 50.8871C608.282 50.1347 607.165 48.8264 606.653 47.2501L601.245 30.6076C600.733 29.0312 600.868 27.3159 601.62 25.8391C602.373 24.3623 603.681 23.2448 605.258 22.7326L607.04 22.1526C607.355 22.0501 607.698 22.0772 607.994 22.2277C608.289 22.3781 608.513 22.6398 608.615 22.9551V22.9551ZM609.028 32.3151L603.463 29.1026C603.491 29.3514 603.545 29.5968 603.623 29.8351L604.633 32.9476L610.295 36.2176L609.028 32.3176V32.3151ZM604.08 26.5776C604.112 26.593 604.142 26.6096 604.173 26.6276L607.873 28.7626L606.623 24.9176L606.03 25.1101C605.234 25.3671 604.547 25.8838 604.08 26.5776V26.5776ZM605.788 36.5026L607.055 40.4026L612.718 43.6751L611.45 39.7751L605.788 36.5001V36.5026ZM614.35 48.6926L613.875 47.2251L608.21 43.9576L609.03 46.4776C609.337 47.4234 610.008 48.2083 610.894 48.6598C611.78 49.1113 612.809 49.1923 613.755 48.8851L614.35 48.6926V48.6926ZM618 48.5001H629.25C630.245 48.5001 631.198 48.105 631.902 47.4017C632.605 46.6985 633 45.7446 633 44.7501V27.2501C633 26.2555 632.605 25.3017 631.902 24.5984C631.198 23.8952 630.245 23.5001 629.25 23.5001H618V48.5001Z" fill="#89C747"/>
<g clip-path="url(#clip8_160_905)">
<path d="M632.075 110.397L644.37 102.474M633.06 117.766L632.075 110.397L622.741 97.6684L635.544 91.517L644.37 102.474L643.953 109.21L633.06 117.766V117.766Z" stroke="#89C747" stroke-width="0.833333" stroke-linecap="round" stroke-linejoin="round"/>
<path d="M623.012 98.1087C622.564 98.0548 622.066 98.8338 622.275 99.2523C622.275 99.2523 620.561 97.5849 619.088 98.7772C617.615 99.9695 618.339 102.417 618.339 102.417C618.339 102.417 607.323 103.704 612.297 112.099C616.421 119.061 621.79 116.956 621.79 116.956C621.79 116.956 619.689 121.454 623.666 122.624C628.075 123.886 627.758 119.231 627.758 119.231C627.758 119.231 629.824 120.806 631.136 120.029C632.757 119.069 632.911 116.73 632.911 116.73" stroke="#89C747" stroke-width="0.833333" stroke-linecap="round" stroke-linejoin="round"/>
<path d="M627.699 107.72C626.259 105.29 623.464 107.324 623.641 107.868C623.914 108.457 624.245 109.016 624.631 109.538C624.902 110.125 625.232 110.682 625.616 111.202C626.04 111.59 629.135 110.144 627.699 107.72Z" stroke="#89C747" stroke-width="0.833333" stroke-linecap="round" stroke-linejoin="round"/>
<path d="M627.529 113.972C627.029 113.129 625.94 112.85 625.097 113.35C624.253 113.849 623.975 114.938 624.474 115.781C624.974 116.625 626.063 116.904 626.906 116.404C627.75 115.904 628.028 114.815 627.529 113.972Z" stroke="#89C747" stroke-width="0.833333" stroke-linecap="round" stroke-linejoin="round"/>
<path d="M621.896 104.465C621.397 103.622 620.308 103.343 619.464 103.843C618.621 104.342 618.342 105.431 618.842 106.275C619.342 107.118 620.431 107.397 621.274 106.897C622.117 106.397 622.396 105.309 621.896 104.465Z" stroke="#89C747" stroke-width="0.833333" stroke-linecap="round" stroke-linejoin="round"/>
<path d="M620.439 104.932C620.263 104.635 619.879 104.537 619.582 104.712C619.285 104.888 619.187 105.272 619.363 105.569C619.539 105.866 619.923 105.964 620.22 105.788C620.517 105.612 620.615 105.229 620.439 104.932Z" fill="#89C747"/>
<path d="M626.037 114.381C625.861 114.084 625.478 113.986 625.181 114.162C624.884 114.338 624.786 114.721 624.962 115.018C625.138 115.315 625.521 115.413 625.818 115.237C626.115 115.061 626.213 114.678 626.037 114.381Z" fill="#89C747"/>
<path d="M624.604 100.207L637.323 93.7179M626.863 103.285L639.389 96.2905M629.52 106.903L641.845 99.3397M632.408 112.873L644.23 104.804M632.754 115.467L644.079 107.198" stroke="#89C747" stroke-width="0.833333" stroke-linecap="round" stroke-linejoin="round"/>
</g>
<g clip-path="url(#clip9_160_905)">
<path d="M1058.07 38.3971L1070.37 30.4736M1059.06 45.7657L1058.07 38.3971L1048.74 25.6684L1061.54 19.517L1070.37 30.4736L1069.95 37.2098L1059.06 45.7657V45.7657Z" stroke="#89C747" stroke-width="0.833333" stroke-linecap="round" stroke-linejoin="round"/>
<path d="M1049.01 26.1087C1048.56 26.0548 1048.07 26.8338 1048.28 27.2523C1048.28 27.2523 1046.56 25.5849 1045.09 26.7772C1043.62 27.9695 1044.34 30.4174 1044.34 30.4174C1044.34 30.4174 1033.32 31.7038 1038.3 40.0994C1042.42 47.061 1047.79 44.9556 1047.79 44.9556C1047.79 44.9556 1045.69 49.4544 1049.67 50.6242C1054.08 51.8864 1053.76 47.2312 1053.76 47.2312C1053.76 47.2312 1055.82 48.8062 1057.14 48.0289C1058.76 47.0689 1058.91 44.7302 1058.91 44.7302" stroke="#89C747" stroke-width="0.833333" stroke-linecap="round" stroke-linejoin="round"/>
<path d="M1053.7 35.7203C1052.26 33.2898 1049.46 35.3237 1049.64 35.8678C1049.91 36.4566 1050.25 37.0163 1050.63 37.5383C1050.9 38.1247 1051.23 38.682 1051.62 39.2016C1052.04 39.5899 1055.13 38.1436 1053.7 35.7203Z" stroke="#89C747" stroke-width="0.833333" stroke-linecap="round" stroke-linejoin="round"/>
<path d="M1053.53 41.972C1053.03 41.1286 1051.94 40.85 1051.1 41.3496C1050.25 41.8493 1049.97 42.9381 1050.47 43.7815C1050.97 44.6249 1052.06 44.9035 1052.91 44.4038C1053.75 43.9042 1054.03 42.8154 1053.53 41.972Z" stroke="#89C747" stroke-width="0.833333" stroke-linecap="round" stroke-linejoin="round"/>
<path d="M1047.9 32.4652C1047.4 31.6218 1046.31 31.3431 1045.46 31.8428C1044.62 32.3425 1044.34 33.4313 1044.84 34.2746C1045.34 35.118 1046.43 35.3967 1047.27 34.897C1048.12 34.3973 1048.4 33.3086 1047.9 32.4652Z" stroke="#89C747" stroke-width="0.833333" stroke-linecap="round" stroke-linejoin="round"/>
<path d="M1046.44 32.9316C1046.26 32.6346 1045.88 32.5365 1045.58 32.7124C1045.29 32.8884 1045.19 33.2718 1045.36 33.5687C1045.54 33.8657 1045.92 33.9638 1046.22 33.7879C1046.52 33.6119 1046.61 33.2286 1046.44 32.9316Z" fill="#89C747"/>
<path d="M1052.04 42.381C1051.86 42.0841 1051.48 41.986 1051.18 42.1619C1050.88 42.3379 1050.79 42.7212 1050.96 43.0182C1051.14 43.3152 1051.52 43.4133 1051.82 43.2373C1052.11 43.0614 1052.21 42.678 1052.04 42.381Z" fill="#89C747"/>
<path d="M1050.6 28.207L1063.32 21.7179M1052.86 31.2852L1065.39 24.2905M1055.52 34.9029L1067.84 27.3397M1058.41 40.873L1070.23 32.8039M1058.75 43.4674L1070.08 35.1983" stroke="#89C747" stroke-width="0.833333" stroke-linecap="round" stroke-linejoin="round"/>
</g>
<g clip-path="url(#clip10_160_905)">
<path d="M1031.38 95.6364C1029.07 95.2082 1026.68 95.3556 1024.43 96.0655C1022.18 96.7754 1020.15 98.0261 1018.49 99.7079L1016.86 96.118L1014.59 97.1533L1016.74 101.89C1015.2 104.239 1014.38 106.989 1014.39 109.798C1014.39 112.608 1015.22 115.355 1016.76 117.699C1015.97 118.942 1015.7 120.446 1016.01 121.886C1016.32 123.327 1017.18 124.59 1018.4 125.403C1019.63 126.217 1021.13 126.516 1022.58 126.237C1024.02 125.958 1025.3 125.123 1026.14 123.91C1028.91 124.424 1031.78 124.111 1034.37 123.009C1036.97 121.907 1039.19 120.066 1040.74 117.714C1042.3 115.362 1043.13 112.604 1043.14 109.783C1043.14 106.962 1042.31 104.202 1040.76 101.848C1041.55 100.605 1041.82 99.1011 1041.51 97.6605C1041.21 96.2199 1040.35 94.9571 1039.12 94.1435C1037.89 93.3299 1036.39 93.0305 1034.95 93.3097C1033.5 93.5888 1032.22 94.4243 1031.38 95.6364ZM1039.07 98.1824C1039.24 98.9821 1039.09 99.8171 1038.65 100.506L1037.78 101.873L1038.67 103.225C1039.96 105.17 1040.64 107.45 1040.64 109.781C1040.64 112.111 1039.95 114.39 1038.66 116.333C1037.37 118.276 1035.54 119.798 1033.4 120.708C1031.25 121.618 1028.89 121.877 1026.59 121.452L1025 121.158L1024.08 122.49C1023.62 123.164 1022.91 123.628 1022.1 123.783C1021.3 123.938 1020.47 123.772 1019.78 123.32C1019.1 122.868 1018.63 122.167 1018.46 121.366C1018.28 120.566 1018.44 119.731 1018.87 119.04L1019.74 117.674L1018.85 116.322C1017.57 114.377 1016.88 112.097 1016.89 109.766C1016.89 107.435 1017.57 105.157 1018.86 103.214C1020.15 101.271 1021.98 99.7494 1024.13 98.8391C1026.27 97.9289 1028.64 97.67 1030.93 98.0946L1032.52 98.3893L1033.44 97.0566C1033.79 96.5544 1034.27 96.1647 1034.84 95.9357C1035.41 95.7068 1036.03 95.6486 1036.63 95.7683C1037.22 95.8881 1037.77 96.1806 1038.21 96.6096C1038.64 97.0386 1038.94 97.5854 1039.07 98.1824V98.1824Z" fill="#89C747"/>
<path d="M1022.36 113.778L1024.09 111.173L1026.69 112.899L1024.96 115.504L1022.36 113.778ZM1028.23 104.921L1029.95 102.316L1032.56 104.042L1030.83 106.647L1028.23 104.921ZM1036.06 114.607C1036.51 113.922 1036.82 113.156 1036.98 112.35C1037.14 111.544 1037.13 110.716 1036.97 109.911C1036.81 109.107 1036.49 108.343 1036.03 107.662C1035.57 106.981 1034.98 106.398 1034.3 105.944L1027.39 116.364C1028.08 116.818 1028.84 117.132 1029.65 117.289C1030.46 117.446 1031.28 117.443 1032.09 117.28C1033.71 116.95 1035.14 115.988 1036.06 114.607V114.607Z" fill="#89C747"/>
</g>
<g clip-path="url(#clip11_160_905)">
<path d="M699.385 35.6364C697.067 35.2082 694.68 35.3556 692.432 36.0655C690.185 36.7754 688.146 38.0261 686.495 39.7079L684.862 36.118L682.586 37.1533L684.741 41.8903C683.2 44.2395 682.381 46.9887 682.385 49.7983C682.39 52.6079 683.217 55.3547 684.765 57.6993C683.975 58.9423 683.704 60.4457 684.01 61.8863C684.317 63.327 685.177 64.5898 686.404 65.4034C687.632 66.2169 689.13 66.5163 690.576 66.2372C692.022 65.958 693.301 65.1226 694.138 63.9105C696.912 64.4242 699.776 64.1106 702.373 63.0088C704.97 61.907 707.186 60.0655 708.744 57.7138C710.303 55.3621 711.135 52.6039 711.137 49.7827C711.14 46.9615 710.312 44.202 708.758 41.8475C709.548 40.6045 709.819 39.1011 709.512 37.6605C709.206 36.2199 708.346 34.9571 707.118 34.1435C705.891 33.3299 704.393 33.0305 702.946 33.3097C701.5 33.5888 700.221 34.4243 699.385 35.6364ZM707.067 38.1824C707.239 38.9821 707.088 39.8171 706.648 40.5065L705.779 41.8732L706.671 43.2247C707.956 45.1697 708.64 47.4497 708.638 49.7805C708.636 52.1114 707.948 54.3902 706.661 56.3332C705.373 58.2762 703.543 59.7975 701.397 60.7077C699.251 61.618 696.885 61.8769 694.593 61.4522L693.001 61.1575L692.081 62.4902C691.616 63.1637 690.906 63.628 690.102 63.7832C689.299 63.9384 688.467 63.7721 687.785 63.3201C687.103 62.8682 686.625 62.1666 686.455 61.3663C686.285 60.566 686.435 59.7308 686.875 59.0404L687.743 57.6737L686.851 56.3221C685.567 54.377 684.883 52.0971 684.885 49.7663C684.887 47.4354 685.575 45.1567 686.862 43.2137C688.15 41.2707 689.98 39.7494 692.126 38.8391C694.272 37.9289 696.638 37.67 698.93 38.0946L700.522 38.3893L701.442 37.0566C701.789 36.5544 702.275 36.1647 702.841 35.9357C703.406 35.7068 704.027 35.6486 704.625 35.7683C705.223 35.8881 705.774 36.1806 706.208 36.6096C706.642 37.0386 706.94 37.5854 707.067 38.1824V38.1824Z" fill="#89C747"/>
<path d="M690.359 53.7782L692.085 51.1732L694.69 52.8994L692.964 55.5044L690.359 53.7782ZM696.228 44.9212L697.954 42.3162L700.559 44.0424L698.833 46.6474L696.228 44.9212ZM704.055 54.6067C704.509 53.9225 704.823 53.1557 704.98 52.3501C705.137 51.5445 705.134 50.7159 704.971 49.9115C704.807 49.1071 704.487 48.3428 704.029 47.6621C703.57 46.9814 702.982 46.3977 702.298 45.9444L695.393 56.3643C696.077 56.8177 696.844 57.1318 697.65 57.2889C698.455 57.4459 699.284 57.4427 700.088 57.2795C701.713 56.9499 703.14 55.9884 704.055 54.6067V54.6067Z" fill="#89C747"/>
</g>
<path d="M1103.21 67.6359L1108.56 64.219L1107.4 62.402L1102.05 65.8189L1103.21 67.636L1103.21 67.6359V67.6359ZM1109.56 74.0283L1111.55 74.8512L1113.97 68.9853L1111.98 68.1632L1109.56 74.0283ZM1098.92 57.3732L1105.26 57.6417L1105.35 55.4879L1099.01 55.2185L1098.92 57.3729L1098.92 57.3732V57.3732ZM1109.44 62.376C1112.28 66.8209 1117.28 68.7 1120.61 66.5729L1131.54 53.1551L1127.1 46.2033L1110.33 50.4764C1107 52.6035 1106.6 57.9305 1109.44 62.3756L1109.44 62.376V62.376ZM1120.28 75.8044L1122.38 75.3339L1121 69.1414L1118.9 69.609L1120.28 75.8045L1120.28 75.8044V75.8044ZM1101.81 46.8964L1106.86 50.754L1108.17 49.0421L1103.13 45.1841L1101.81 46.8964V46.8964ZM1125.03 66.0321L1129.72 70.3131L1131.17 68.7241L1126.49 64.4419L1125.03 66.0321L1125.03 66.0321V66.0321ZM1112.68 46.6916L1114.74 46.0385L1112.82 39.9888L1110.77 40.6407L1112.68 46.6917L1112.68 46.6916V46.6916ZM1132.61 52.6117L1135.02 51.0741L1130.45 43.9196L1128.04 45.4569L1132.61 52.6114L1132.61 52.6117ZM1136.22 50.3098L1138.62 48.7723L1134.05 41.6177L1131.65 43.155L1136.22 50.3095L1136.22 50.3098Z" fill="#89C747"/>
<path opacity="0.7" d="M742.209 114.636L747.559 111.219L746.398 109.402L741.049 112.819L742.209 114.636L742.209 114.636V114.636ZM748.556 121.028L750.549 121.851L752.97 115.985L750.978 115.163L748.556 121.028ZM737.918 104.373L744.257 104.642L744.349 102.488L738.009 102.219L737.917 104.373L737.918 104.373V104.373ZM748.442 109.376C751.281 113.821 756.282 115.7 759.612 113.573L770.539 100.155L766.099 93.2033L749.33 97.4764C746 99.6035 745.603 104.931 748.442 109.376L748.442 109.376V109.376ZM759.28 122.804L761.385 122.334L760.005 116.141L757.899 116.609L759.28 122.804L759.28 122.804V122.804ZM740.815 93.8964L745.856 97.754L747.167 96.0421L742.127 92.1841L740.815 93.8964V93.8964ZM764.034 113.032L768.72 117.313L770.174 115.724L765.49 111.442L764.034 113.032L764.034 113.032V113.032ZM751.68 93.6916L753.735 93.0385L751.819 86.9888L749.766 87.6407L751.68 93.6917L751.68 93.6916V93.6916ZM771.613 99.6117L774.02 98.0741L769.45 90.9196L767.044 92.4569L771.614 99.6114L771.613 99.6117ZM775.217 97.3098L777.624 95.7723L773.054 88.6177L770.647 90.155L775.217 97.3095L775.217 97.3098Z" fill="#89C747"/>
<defs>
<clipPath id="clip0_160_905">
<rect width="40" height="40" fill="white" transform="translate(20.3887 126.802) rotate(-120.645)"/>
</clipPath>
<clipPath id="clip1_160_905">
<rect width="40" height="40" fill="white" transform="translate(446.389 54.8024) rotate(-120.645)"/>
</clipPath>
<clipPath id="clip2_160_905">
<rect width="40" height="40" fill="white" transform="translate(399 106.707) rotate(-56.47)"/>
</clipPath>
<clipPath id="clip3_160_905">
<rect width="40" height="40" fill="white" transform="translate(67 46.7074) rotate(-56.47)"/>
</clipPath>
<clipPath id="clip4_160_905">
<rect width="40" height="40" fill="white" transform="translate(741.186 38.3777) rotate(-49.0071)"/>
</clipPath>
<clipPath id="clip5_160_905">
<rect width="40" height="40" fill="white" transform="translate(1569.39 59.8024) rotate(-120.645)"/>
</clipPath>
<clipPath id="clip6_160_905">
<rect width="40" height="40" fill="white" transform="translate(1522 111.707) rotate(-56.47)"/>
</clipPath>
<clipPath id="clip7_160_905">
<rect width="40" height="40" fill="white" transform="translate(1190 51.7074) rotate(-56.47)"/>
</clipPath>
<clipPath id="clip8_160_905">
<rect width="40" height="40" fill="white" transform="translate(621.389 134.802) rotate(-120.645)"/>
</clipPath>
<clipPath id="clip9_160_905">
<rect width="40" height="40" fill="white" transform="translate(1047.39 62.8024) rotate(-120.645)"/>
</clipPath>
<clipPath id="clip10_160_905">
<rect width="40" height="40" fill="white" transform="translate(1000 114.707) rotate(-56.47)"/>
</clipPath>
<clipPath id="clip11_160_905">
<rect width="40" height="40" fill="white" transform="translate(668 54.7074) rotate(-56.47)"/>
</clipPath>
</defs>
</svg>
