<svg width="1728" height="116" viewBox="0 0 1728 116" fill="none" xmlns="http://www.w3.org/2000/svg">
<g clip-path="url(#clip0_160_1200)">
<path d="M1009 71.8579C1007.07 69.9331 1004.23 69.2303 1001 69.6079C1001 69.6093 1001 69.6121 1000.99 69.6107C995.427 65.0711 986.62 65.9507 980.712 71.8579C974.805 77.765 973.926 86.5728 978.465 92.1363C978.467 92.1405 978.464 92.1433 978.462 92.1476C978.085 95.3706 978.788 98.2174 980.712 100.142C985.113 104.543 994.312 102.577 1001.88 95.8571L1003.34 97.3137C1004.75 98.7279 1003.47 102.592 1003.47 102.592C1003.43 102.696 1003.44 102.809 1003.48 102.909C1003.53 103.009 1003.61 103.09 1003.7 103.137C1003.7 103.137 1005.28 103.854 1006.17 102.971C1007.05 102.087 1007.05 100.674 1008.82 98.9061C1010.59 97.1383 1012.88 96.0678 1012.88 96.0678C1012.98 96.0123 1013.07 95.9308 1013.13 95.8312C1013.2 95.7316 1013.23 95.6172 1013.24 95.4993L1013.24 93.4713C1013.24 93.2507 1013.08 93.1446 1012.88 93.2365C1012.88 93.2365 1009.35 94.8374 1007.58 93.0697L1006 91.4843C1011.67 84.245 1013.1 75.9633 1009 71.8579ZM983.541 97.3137C982.1 95.8726 981.876 93.4769 982.651 90.7051C982.473 90.5552 982.292 90.4081 982.127 90.2426C978.221 86.3366 978.856 79.3716 983.541 74.6863C988.226 70.001 995.191 69.366 999.097 73.2721C999.263 73.4375 999.41 73.6186 999.561 73.7953C1002.33 73.0218 1004.73 73.2452 1006.17 74.6863C1008.8 77.3224 1007.4 83.1362 1003.16 88.6418L1002.21 87.6971C1002.04 87.5094 1001.95 87.2677 1001.94 87.0154L1002.09 81.9822C1002.08 81.7298 1001.99 81.4877 1001.82 81.2992L1000.62 80.0957C1000.46 79.9401 1000.29 79.9868 1000.23 80.1989L999.199 84.1955C999.142 84.4104 998.971 84.4571 998.814 84.3001L993.725 79.2104C993.569 79.0548 993.361 79.0873 993.262 79.2853L990.792 84.228C990.745 84.3332 990.731 84.4497 990.749 84.5631C990.768 84.6766 990.819 84.7822 990.896 84.8672L994.573 88.5442C994.729 88.6997 994.685 88.8793 994.474 88.9458L990.11 90.3006C990.002 90.3394 989.908 90.4093 989.84 90.5014C989.772 90.5936 989.733 90.7038 989.728 90.8182V91.7855C989.727 91.8369 989.738 91.8879 989.758 91.9352C989.778 91.9825 989.808 92.025 989.845 92.0601C989.883 92.0953 989.927 92.1222 989.976 92.1392C990.024 92.1562 990.076 92.1629 990.127 92.1589L997.284 91.6795C997.505 91.6653 997.81 91.7813 997.966 91.9369L999.048 93.0187C993.122 98.2513 986.426 100.199 983.541 97.3137Z" fill="#89C747"/>
</g>
<g clip-path="url(#clip1_160_1200)">
<path d="M667.281 14.1422C665.356 12.2174 662.509 11.5146 659.286 11.8922C659.282 11.8936 659.279 11.8964 659.275 11.895C653.712 7.35535 644.904 8.235 638.997 14.1422C633.089 20.0493 632.21 28.8571 636.749 34.4206C636.751 34.4248 636.748 34.4276 636.747 34.4319C636.369 37.6549 637.072 40.5017 638.997 42.4264C643.398 46.8275 652.596 44.8617 660.167 38.1414L661.624 39.598C663.038 41.0122 661.751 44.8759 661.751 44.8759C661.719 44.9802 661.724 45.0929 661.768 45.1932C661.812 45.2935 661.89 45.3746 661.989 45.4217C661.989 45.4217 663.569 46.1387 664.452 45.2549C665.336 44.371 665.335 42.9582 667.103 41.1904C668.87 39.4226 671.163 38.3521 671.163 38.3521C671.267 38.2967 671.355 38.2151 671.419 38.1155C671.482 38.0159 671.519 37.9015 671.525 37.7836L671.525 35.7556C671.525 35.535 671.362 35.4289 671.16 35.5208C671.16 35.5208 667.636 37.1217 665.868 35.354L664.283 33.7686C669.952 26.5293 671.386 18.2476 667.281 14.1422ZM641.825 39.598C640.384 38.1569 640.161 35.7612 640.936 32.9894C640.757 32.8395 640.576 32.6924 640.411 32.5269C636.505 28.6209 637.14 21.6559 641.825 16.9706C646.51 12.2853 653.475 11.6503 657.381 15.5564C657.547 15.7218 657.694 15.9029 657.845 16.0796C660.616 15.3061 663.011 15.5295 664.452 16.9706C667.089 19.6067 665.687 25.4205 661.44 30.9261L660.496 29.9814C660.327 29.7937 660.23 29.552 660.224 29.2997L660.375 24.2665C660.369 24.0141 660.273 23.772 660.105 23.5835L658.902 22.38C658.746 22.2244 658.572 22.2711 658.518 22.4832L657.483 26.4798C657.427 26.6947 657.256 26.7414 657.099 26.5844L652.009 21.4947C651.853 21.3391 651.645 21.3716 651.546 21.5696L649.076 26.5123C649.029 26.6175 649.015 26.734 649.033 26.8474C649.052 26.9609 649.103 27.0665 649.18 27.1515L652.857 30.8285C653.013 30.984 652.969 31.1636 652.758 31.2301L648.394 32.5849C648.286 32.6237 648.192 32.6936 648.125 32.7857C648.057 32.8779 648.017 32.9881 648.012 33.1025V34.0698C648.012 34.1212 648.022 34.1722 648.042 34.2195C648.062 34.2668 648.092 34.3093 648.129 34.3444C648.167 34.3796 648.211 34.4065 648.26 34.4235C648.308 34.4405 648.36 34.4472 648.411 34.4432L655.568 33.9638C655.789 33.9496 656.094 34.0656 656.25 34.2212L657.332 35.303C651.406 40.5356 644.71 42.483 641.825 39.598Z" fill="#89C747"/>
</g>
<path d="M926.601 37.5231L919.743 38.2364L913.981 45.6438V49.7591L918.371 54.5876L923.419 53.5451L927.26 54.3132L926.437 57.2762L929.071 62.0499L927.754 65.3969L930.862 74.477L935.051 73.792L938.892 69.4573L939.222 66.4394L941.691 64.5739L941.197 59.1417L947.728 50.7828L943.666 51.3503L937.466 40.541L927.699 39.8825L926.601 37.5231L926.601 37.5231ZM946.316 62.5074L945.191 64.1371L944.143 64.1759C943.218 66.076 943.159 67.1461 943.057 69.3749L944.415 69.7242L946.122 65.6502L946.316 62.5075V62.5074Z" fill="#89C747"/>
<path d="M1109.01 96.8433C1105.83 93.6566 1109.44 84.8766 1117.09 77.2316C1124.73 69.5866 1133.51 65.9716 1136.7 69.1566C1139.88 72.3433 1136.27 81.1233 1128.62 88.7683C1120.98 96.4133 1112.2 100.028 1109.01 96.8433ZM1111.32 94.5333C1112.68 95.8933 1119.82 92.95 1126.32 86.4583C1132.81 79.9666 1135.75 72.8216 1134.39 71.4633C1133.03 70.1033 1125.89 73.0466 1119.4 79.5383C1112.9 86.03 1109.96 93.175 1111.32 94.5333ZM1117.09 88.7666C1109.44 81.1233 1105.83 72.3433 1109.01 69.1566C1112.2 65.9733 1120.98 69.5866 1128.62 77.2316C1136.27 84.8766 1139.88 93.6566 1136.7 96.8433C1133.51 100.027 1124.73 96.4133 1117.09 88.7683L1117.09 88.7666ZM1119.4 86.4583C1125.89 92.95 1133.03 95.8916 1134.39 94.5333C1135.75 93.175 1132.81 86.03 1126.32 79.5383C1119.82 73.0466 1112.68 70.105 1111.32 71.4633C1109.96 72.8216 1112.9 79.9666 1119.4 86.4583ZM1122.85 86.3333C1121.97 86.3333 1121.12 85.9821 1120.5 85.357C1119.87 84.7319 1119.52 83.884 1119.52 83C1119.52 82.1159 1119.87 81.2681 1120.5 80.6429C1121.12 80.0178 1121.97 79.6666 1122.85 79.6666C1123.74 79.6666 1124.59 80.0178 1125.21 80.6429C1125.84 81.2681 1126.19 82.1159 1126.19 83C1126.19 83.884 1125.84 84.7319 1125.21 85.357C1124.59 85.9821 1123.74 86.3333 1122.85 86.3333Z" fill="#89C747"/>
<path d="M846.454 96.6667C846.912 97.1506 847.47 97.5283 848.089 97.773C848.708 98.0178 849.373 98.1237 850.038 98.0833C851.986 97.9813 853.895 97.4942 855.654 96.65C858.291 97.8314 861.212 98.2264 864.067 97.7874C866.923 97.3485 869.591 96.0944 871.751 94.1757C873.91 92.2571 875.47 89.7556 876.242 86.9718C877.015 84.1881 876.967 81.2405 876.104 78.4833C878.288 74.7667 879.021 71.3833 877.221 69.35C876.698 68.7431 876.034 68.2739 875.287 67.9833C874.54 67.6927 873.734 67.5897 872.938 67.6833C871.36 67.9239 869.885 68.6123 868.688 69.6667C865.999 68.3007 862.961 67.7768 859.971 68.1633C856.98 68.5498 854.175 69.8288 851.922 71.8333C849.669 73.8379 848.073 76.475 847.341 79.4006C846.61 82.3261 846.777 85.4042 847.821 88.2333C846.054 90.25 844.404 94.3667 846.454 96.6667ZM848.954 94.4667C848.588 94.05 848.954 92.6833 849.571 91.5333C850.317 92.6069 851.196 93.5814 852.188 94.4333C850.471 94.9333 849.338 94.9 848.954 94.4667ZM873.138 85.85C872.381 88.8429 870.469 91.4139 867.821 93C866.015 94.0741 863.956 94.6492 861.854 94.6667C861.16 94.6614 860.468 94.5889 859.788 94.45C862.402 92.8465 864.868 91.0113 867.154 88.9667C869.456 86.9339 871.576 84.7032 873.488 82.3C873.557 83.4943 873.439 84.6922 873.138 85.85ZM873.288 71.0333C873.555 70.9893 873.829 71.0154 874.083 71.1088C874.337 71.2023 874.563 71.36 874.738 71.5667C875.121 72 875.004 73.1333 874.304 74.7833C873.553 73.6345 872.65 72.5919 871.621 71.6833C872.122 71.3476 872.691 71.1257 873.288 71.0333ZM850.554 80.1833C850.92 78.6932 851.578 77.2907 852.491 76.0574C853.404 74.8242 854.553 73.7849 855.871 73C857.678 71.914 859.746 71.338 861.854 71.3333C863.873 71.3194 865.861 71.8373 867.616 72.835C869.371 73.8326 870.833 75.2748 871.854 77.0167C872.075 77.3688 872.27 77.7365 872.438 78.1167C870.294 81.1906 867.781 83.9894 864.954 86.45C862.176 89.0051 859.092 91.2053 855.771 93C853.661 91.7036 852.018 89.7694 851.08 87.4771C850.142 85.1849 849.958 82.6538 850.554 80.25V80.1833Z" fill="#89C747"/>
<path d="M952.454 33.6667C952.912 34.1506 953.47 34.5283 954.089 34.773C954.708 35.0178 955.373 35.1237 956.038 35.0833C957.986 34.9813 959.895 34.4942 961.654 33.65C964.291 34.8314 967.212 35.2264 970.067 34.7874C972.923 34.3485 975.591 33.0944 977.751 31.1757C979.91 29.2571 981.47 26.7556 982.242 23.9718C983.015 21.1881 982.967 18.2405 982.104 15.4833C984.288 11.7667 985.021 8.38332 983.221 6.34999C982.698 5.74313 982.034 5.27386 981.287 4.98329C980.54 4.69272 979.734 4.58973 978.938 4.68332C977.36 4.92393 975.885 5.61231 974.688 6.66666C971.999 5.30067 968.961 4.77675 965.971 5.16326C962.98 5.54977 960.175 6.82876 957.922 8.83335C955.669 10.8379 954.073 13.475 953.341 16.4006C952.61 19.3261 952.777 22.4042 953.821 25.2333C952.054 27.25 950.404 31.3667 952.454 33.6667ZM954.954 31.4667C954.588 31.05 954.954 29.6833 955.571 28.5333C956.317 29.6069 957.196 30.5814 958.188 31.4333C956.471 31.9333 955.338 31.9 954.954 31.4667ZM979.138 22.85C978.381 25.8429 976.469 28.4139 973.821 30C972.015 31.0741 969.956 31.6492 967.854 31.6667C967.16 31.6614 966.468 31.5889 965.788 31.45C968.402 29.8465 970.868 28.0113 973.154 25.9667C975.456 23.9339 977.576 21.7032 979.488 19.3C979.557 20.4943 979.439 21.6922 979.138 22.85ZM979.288 8.03332C979.555 7.98934 979.829 8.01535 980.083 8.10882C980.337 8.20229 980.563 8.36003 980.738 8.56666C981.121 8.99999 981.004 10.1333 980.304 11.7833C979.553 10.6345 978.65 9.59187 977.621 8.68332C978.122 8.34759 978.691 8.12573 979.288 8.03332ZM956.554 17.1833C956.92 15.6932 957.578 14.2907 958.491 13.0574C959.404 11.8242 960.553 10.7849 961.871 9.99999C963.678 8.91398 965.746 8.33802 967.854 8.33332C969.873 8.31939 971.861 8.8373 973.616 9.83495C975.371 10.8326 976.833 12.2748 977.854 14.0167C978.075 14.3688 978.27 14.7365 978.438 15.1167C976.294 18.1906 973.781 20.9894 970.954 23.45C968.176 26.0051 965.092 28.2053 961.771 30C959.661 28.7036 958.018 26.7694 957.08 24.4771C956.142 22.1849 955.958 19.6538 956.554 17.25V17.1833Z" fill="#89C747"/>
<g clip-path="url(#clip2_160_1200)">
<path d="M780.724 52.0521C780.107 50.6803 781.534 49.2532 782.907 49.8695L792.104 54.1876C792.409 54.3226 792.748 54.3619 793.076 54.3002C793.404 54.2386 793.706 54.0789 793.941 53.8423L799.936 47.8472C801.044 46.7394 802.906 47.6351 802.71 49.1813L802.283 57.2859C802.238 57.6239 802.302 57.9672 802.466 58.2666C802.629 58.566 802.882 58.806 803.19 58.9523L811.351 63.9975C812.791 64.6787 812.474 66.8177 810.893 67.0935L801.421 69.2113C801.083 69.2702 800.772 69.432 800.529 69.6746C800.287 69.9171 800.125 70.2286 800.066 70.5665L797.948 80.0382C797.674 81.6186 795.532 81.9356 794.852 80.4967L789.807 72.3355C789.661 72.0276 789.421 71.7739 789.121 71.6109C788.822 71.4479 788.479 71.3838 788.141 71.428L780.036 71.8558C778.489 72.0526 777.595 70.1882 778.701 69.0828L784.696 63.0877C784.933 62.8524 785.092 62.5508 785.154 62.2227C785.216 61.8947 785.176 61.5556 785.041 61.2504L780.723 52.0533L780.724 52.0521Z" stroke="#89C747" stroke-width="3.33333" stroke-linecap="round" stroke-linejoin="round"/>
</g>
<g clip-path="url(#clip3_160_1200)">
<path d="M1027.01 26.3364C1026.39 24.9646 1027.82 23.5375 1029.19 24.1538L1038.39 28.4719C1038.69 28.6069 1039.03 28.6462 1039.36 28.5846C1039.69 28.5229 1039.99 28.3632 1040.23 28.1266L1046.22 22.1315C1047.33 21.0237 1049.19 21.9194 1048.99 23.4656L1048.57 31.5702C1048.52 31.9082 1048.59 32.2515 1048.75 32.5509C1048.91 32.8503 1049.17 33.0903 1049.47 33.2366L1057.64 38.2818C1059.08 38.963 1058.76 41.102 1057.18 41.3778L1047.71 43.4956C1047.37 43.5545 1047.06 43.7163 1046.81 43.9589C1046.57 44.2014 1046.41 44.5129 1046.35 44.8508L1044.23 54.3225C1043.96 55.9029 1041.82 56.2199 1041.14 54.781L1036.09 46.6198C1035.94 46.3119 1035.7 46.0582 1035.41 45.8952C1035.11 45.7322 1034.76 45.6681 1034.42 45.7123L1026.32 46.1401C1024.77 46.3369 1023.88 44.4725 1024.98 43.3671L1030.98 37.372C1031.22 37.1368 1031.38 36.8351 1031.44 36.507C1031.5 36.179 1031.46 35.8399 1031.33 35.5347L1027.01 26.3376L1027.01 26.3364Z" stroke="#89C747" stroke-width="3.33333" stroke-linecap="round" stroke-linejoin="round"/>
</g>
<path d="M718.961 77.1084C719.196 76.2853 719.247 75.4208 719.11 74.5759C718.974 73.731 718.653 72.9264 718.172 72.2191C717.69 71.5117 717.059 70.9188 716.322 70.4824C715.586 70.0459 714.763 69.7766 713.911 69.6934C713.57 68.7127 712.931 67.8626 712.085 67.2606C711.239 66.6586 710.226 66.3346 709.188 66.3334C707.954 66.3376 706.766 66.801 705.855 67.6334C704.944 66.801 703.755 66.3376 702.521 66.3334C700.353 66.3334 698.505 67.7184 697.813 69.6917C696.96 69.7728 696.135 70.0407 695.397 70.4764C694.658 70.9121 694.025 71.5049 693.542 72.2127C693.058 72.9205 692.737 73.726 692.6 74.5721C692.462 75.4182 692.513 76.2841 692.748 77.1084C691.678 77.6776 690.782 78.5259 690.155 79.5632C689.529 80.6005 689.194 81.7881 689.188 83C689.188 84.7917 689.901 86.4767 691.141 87.72C690.952 88.3515 690.855 89.0073 690.855 89.6667C690.855 92.9284 693.208 95.65 696.365 96.2234C696.828 97.2476 697.576 98.1168 698.52 98.7274C699.464 99.3379 700.564 99.664 701.688 99.6667C703.32 99.6667 704.795 98.9884 705.855 97.9017C706.396 98.4598 707.043 98.9036 707.759 99.2068C708.475 99.51 709.244 99.6664 710.021 99.6667C711.143 99.6646 712.241 99.3398 713.184 98.7311C714.127 98.1223 714.874 97.2553 715.338 96.2334C716.268 96.0694 717.152 95.7101 717.933 95.1791C718.714 94.6481 719.373 93.9575 719.868 93.153C720.362 92.3484 720.68 91.4482 720.801 90.5116C720.921 89.5751 720.842 88.6236 720.568 87.72C721.188 87.1002 721.679 86.3643 722.014 85.5544C722.349 84.7445 722.522 83.8765 722.521 83C722.515 81.7881 722.181 80.6005 721.554 79.5632C720.927 78.5259 720.031 77.6776 718.961 77.1084ZM701.688 96.3334C700.503 96.3334 699.471 95.4934 699.238 94.3367L698.885 93H697.521C695.683 93 694.188 91.505 694.188 89.6667C694.188 89.08 694.33 88.53 694.61 88.0317L695.37 86.6717L694.063 85.8217C693.591 85.5174 693.203 85.0998 692.933 84.6069C692.664 84.1141 692.522 83.5617 692.521 83C692.521 81.3717 693.726 79.96 695.325 79.7134L698.146 79.28L696.381 77.0367C696.067 76.6315 695.885 76.1395 695.859 75.6273C695.834 75.1151 695.966 74.6074 696.238 74.1729C696.511 73.7384 696.91 73.398 697.382 73.1978C697.854 72.9975 698.376 72.9471 698.878 73.0534L700.855 73.345V71.3334C700.855 70.8913 701.03 70.4674 701.343 70.1549C701.655 69.8423 702.079 69.6667 702.521 69.6667C702.963 69.6667 703.387 69.8423 703.7 70.1549C704.012 70.4674 704.188 70.8913 704.188 71.3334V93.8334C704.188 95.2117 703.066 96.3334 701.688 96.3334ZM717.646 85.82L716.34 86.67L717.1 88.03C717.38 88.53 717.521 89.08 717.521 89.6667C717.521 91.505 716.026 93 714.105 93H712.741L712.471 94.3367C712.355 94.9005 712.048 95.4069 711.601 95.7706C711.155 96.1343 710.597 96.333 710.021 96.3334C708.643 96.3334 707.521 95.2117 707.521 93.8334V71.3334C707.521 70.4134 708.268 69.6667 709.188 69.6667C710.108 69.6667 710.855 70.4134 710.855 71.4167V73.4284L712.831 73.0534C713.333 72.9471 713.855 72.9975 714.327 73.1978C714.8 73.398 715.199 73.7384 715.471 74.1729C715.743 74.6074 715.876 75.1151 715.85 75.6273C715.825 76.1395 715.642 76.6315 715.328 77.0367L713.563 79.2817L716.385 79.715C717.165 79.8415 717.876 80.2412 718.389 80.8429C718.903 81.4445 719.186 82.2091 719.188 83C719.188 84.1384 718.611 85.1917 717.646 85.82Z" fill="#89C747"/>
<path d="M885.961 14.1084C886.196 13.2853 886.247 12.4208 886.11 11.5759C885.974 10.731 885.653 9.92642 885.172 9.21906C884.69 8.5117 884.059 7.91883 883.322 7.48238C882.586 7.04594 881.763 6.77659 880.911 6.69337C880.57 5.71273 879.931 4.86259 879.085 4.26062C878.239 3.65865 877.226 3.33461 876.188 3.33337C874.954 3.33755 873.766 3.80098 872.855 4.63337C871.944 3.80098 870.755 3.33755 869.521 3.33337C867.353 3.33337 865.505 4.71837 864.813 6.69171C863.96 6.77284 863.135 7.04074 862.397 7.47642C861.658 7.9121 861.025 8.50487 860.542 9.21269C860.058 9.92051 859.737 10.726 859.6 11.5721C859.462 12.4182 859.513 13.2841 859.748 14.1084C858.678 14.6776 857.782 15.5259 857.155 16.5632C856.529 17.6005 856.194 18.7881 856.188 20C856.188 21.7917 856.901 23.4767 858.141 24.72C857.952 25.3515 857.855 26.0073 857.855 26.6667C857.855 29.9284 860.208 32.65 863.365 33.2234C863.828 34.2476 864.576 35.1168 865.52 35.7274C866.464 36.3379 867.564 36.664 868.688 36.6667C870.32 36.6667 871.795 35.9884 872.855 34.9017C873.396 35.4598 874.043 35.9036 874.759 36.2068C875.475 36.51 876.244 36.6664 877.021 36.6667C878.143 36.6646 879.241 36.3398 880.184 35.7311C881.127 35.1223 881.874 34.2553 882.338 33.2334C883.268 33.0694 884.152 32.7101 884.933 32.1791C885.714 31.6481 886.373 30.9575 886.868 30.153C887.362 29.3484 887.68 28.4482 887.801 27.5116C887.921 26.5751 887.842 25.6236 887.568 24.72C888.188 24.1002 888.679 23.3643 889.014 22.5544C889.349 21.7445 889.522 20.8765 889.521 20C889.515 18.7881 889.181 17.6005 888.554 16.5632C887.927 15.5259 887.031 14.6776 885.961 14.1084ZM868.688 33.3334C867.503 33.3334 866.471 32.4934 866.238 31.3367L865.885 30H864.521C862.683 30 861.188 28.505 861.188 26.6667C861.188 26.08 861.33 25.53 861.61 25.0317L862.37 23.6717L861.063 22.8217C860.591 22.5174 860.203 22.0998 859.933 21.6069C859.664 21.1141 859.522 20.5617 859.521 20C859.521 18.3717 860.726 16.96 862.325 16.7134L865.146 16.28L863.381 14.0367C863.067 13.6315 862.885 13.1395 862.859 12.6273C862.834 12.1151 862.966 11.6074 863.238 11.1729C863.511 10.7384 863.91 10.398 864.382 10.1978C864.854 9.99752 865.376 9.94712 865.878 10.0534L867.855 10.345V8.33337C867.855 7.89135 868.03 7.46742 868.343 7.15486C868.655 6.8423 869.079 6.66671 869.521 6.66671C869.963 6.66671 870.387 6.8423 870.7 7.15486C871.012 7.46742 871.188 7.89135 871.188 8.33337V30.8334C871.188 32.2117 870.066 33.3334 868.688 33.3334ZM884.646 22.82L883.34 23.67L884.1 25.03C884.38 25.53 884.521 26.08 884.521 26.6667C884.521 28.505 883.026 30 881.105 30H879.741L879.471 31.3367C879.355 31.9005 879.048 32.4069 878.601 32.7706C878.155 33.1343 877.597 33.333 877.021 33.3334C875.643 33.3334 874.521 32.2117 874.521 30.8334V8.33337C874.521 7.41337 875.268 6.66671 876.188 6.66671C877.108 6.66671 877.855 7.41337 877.855 8.41671V10.4284L879.831 10.0534C880.333 9.94712 880.855 9.99752 881.327 10.1978C881.8 10.398 882.199 10.7384 882.471 11.1729C882.743 11.6074 882.876 12.1151 882.85 12.6273C882.825 13.1395 882.642 13.6315 882.328 14.0367L880.563 16.2817L883.385 16.715C884.165 16.8415 884.876 17.2412 885.389 17.8429C885.903 18.4445 886.186 19.2091 886.188 20C886.188 21.1384 885.611 22.1917 884.646 22.82Z" fill="#89C747"/>
<g clip-path="url(#clip4_160_1200)">
<path d="M608.194 58.4937L605.744 58.9239L606.388 62.5701L608.836 62.1385L608.193 58.493L608.194 58.4937ZM627.009 71.6681L623.362 72.3102L623.795 74.7586L627.44 74.1168L627.008 71.6674L627.009 71.6681ZM617.153 65.7195C616.813 65.487 616.457 65.267 616.084 65.0681C616.073 65.0609 616.065 65.0517 616.053 65.0465C611.566 62.6146 605.912 63.6557 602.442 67.3882C599.653 70.3948 598.912 74.3731 599.838 77.9175C600.214 79.3706 600.08 80.9089 599.457 82.2747L595.156 88.4184L597.49 90.0531C597.418 90.9139 597.78 91.7818 598.534 92.3102C599.289 92.8386 600.228 92.8812 601.013 92.5194L603.347 94.1541L606.215 90.0584L606.311 90.1258L607.163 88.9093C608.214 87.4082 610.054 86.4412 612.145 86.1523C615.03 85.6419 617.998 84.1267 619.938 81.357C623.479 76.2987 622.238 69.2099 617.153 65.7195ZM615.719 67.7674C619.716 70.4832 620.657 75.9706 617.89 79.923C616.388 82.0672 614.073 83.2598 611.736 83.6711L611.746 83.7268C609.497 84.0301 607.424 85.1091 605.886 86.7776L601.407 83.6416C602.411 81.7288 602.848 79.5031 602.279 77.2888C601.545 74.486 602.087 71.4169 604.277 69.0562C606.983 66.1441 611.416 65.383 614.872 67.2733C615.163 67.4217 615.445 67.5866 615.717 67.767L615.719 67.7674ZM596.387 64.8667L594.953 66.9145L598.025 69.0654L599.459 67.0176L596.387 64.8667ZM621.986 82.7909L620.552 84.8388L623.623 86.9897L625.057 84.9418L621.986 82.7909ZM596.216 77.0978L592.571 77.7395L593.003 80.189L596.646 79.5448L596.216 77.0978ZM613.623 89.2863L611.175 89.7179L611.817 93.3626L614.266 92.9307L613.623 89.2863ZM600.071 85.7576L604.166 88.6255L602.732 90.6733L598.637 87.8055L600.071 85.7576Z" fill="#89C747"/>
</g>
<g clip-path="url(#clip5_160_1200)">
<path d="M1113.05 9.34836L1110.6 9.77853L1111.24 13.4247L1113.69 12.9931L1113.05 9.34765L1113.05 9.34836ZM1131.86 22.5227L1128.22 23.1648L1128.65 25.6132L1132.29 24.9714L1131.86 22.522L1131.86 22.5227ZM1122.01 16.5741C1121.67 16.3416 1121.31 16.1216 1120.94 15.9227C1120.93 15.9155 1120.92 15.9063 1120.91 15.9012C1116.42 13.4693 1110.77 14.5103 1107.3 18.2428C1104.51 21.2494 1103.77 25.2277 1104.69 28.7721C1105.07 30.2252 1104.93 31.7635 1104.31 33.1293L1100.01 39.273L1102.34 40.9077C1102.27 41.7685 1102.63 42.6364 1103.39 43.1648C1104.14 43.6932 1105.08 43.7358 1105.87 43.3741L1108.2 45.0088L1111.07 40.913L1111.17 40.9804L1112.02 39.7639C1113.07 38.2629 1114.91 37.2958 1117 37.0069C1119.88 36.4965 1122.85 34.9813 1124.79 32.2116C1128.33 27.1533 1127.09 20.0645 1122.01 16.5741ZM1120.57 18.622C1124.57 21.3378 1125.51 26.8252 1122.74 30.7776C1121.24 32.9218 1118.93 34.1145 1116.59 34.5257L1116.6 34.5814C1114.35 34.8847 1112.28 35.9637 1110.74 37.6322L1106.26 34.4962C1107.27 32.5834 1107.7 30.3577 1107.13 28.1434C1106.4 25.3406 1106.94 22.2715 1109.13 19.9108C1111.84 16.9987 1116.27 16.2376 1119.73 18.1279C1120.02 18.2764 1120.3 18.4412 1120.57 18.6216L1120.57 18.622ZM1101.24 15.7213L1099.81 17.7691L1102.88 19.9201L1104.31 17.8722L1101.24 15.7213ZM1126.84 33.6455L1125.41 35.6934L1128.48 37.8443L1129.91 35.7964L1126.84 33.6455ZM1101.07 27.9524L1097.43 28.5941L1097.86 31.0436L1101.5 30.3994L1101.07 27.9524ZM1118.48 40.1409L1116.03 40.5725L1116.67 44.2172L1119.12 43.7853L1118.48 40.1409ZM1104.93 36.6122L1109.02 39.4801L1107.59 41.528L1103.49 38.6601L1104.93 36.6122Z" fill="#89C747"/>
</g>
<path d="M724.188 9.99996C724.188 9.99996 726.688 6.66663 732.521 6.66663C738.355 6.66663 740.855 9.99996 740.855 9.99996V33.3333C740.855 33.3333 738.355 31.6666 732.521 31.6666C726.688 31.6666 724.188 33.3333 724.188 33.3333V9.99996ZM740.855 9.99996C740.855 9.99996 743.355 6.66663 749.188 6.66663C755.021 6.66663 757.521 9.99996 757.521 9.99996V33.3333C757.521 33.3333 755.021 31.6666 749.188 31.6666C743.355 31.6666 740.855 33.3333 740.855 33.3333V9.99996Z" stroke="#89C747" stroke-width="3.33333" stroke-linecap="round" stroke-linejoin="round"/>
<g clip-path="url(#clip6_160_1200)">
<path d="M423.997 74.8579C422.072 72.9331 419.225 72.2303 416.002 72.6079C415.998 72.6093 415.995 72.6121 415.991 72.6107C410.427 68.0711 401.62 68.9507 395.712 74.8579C389.805 80.765 388.926 89.5728 393.465 95.1363C393.467 95.1405 393.464 95.1433 393.462 95.1476C393.085 98.3706 393.788 101.217 395.712 103.142C400.113 107.543 409.312 105.577 416.883 98.8571L418.34 100.314C419.754 101.728 418.467 105.592 418.467 105.592C418.434 105.696 418.44 105.809 418.484 105.909C418.528 106.009 418.606 106.09 418.705 106.137C418.705 106.137 420.284 106.854 421.168 105.971C422.052 105.087 422.051 103.674 423.819 101.906C425.586 100.138 427.879 99.0678 427.879 99.0678C427.983 99.0123 428.071 98.9308 428.135 98.8312C428.198 98.7316 428.235 98.6172 428.241 98.4993L428.241 96.4713C428.241 96.2507 428.078 96.1446 427.876 96.2365C427.876 96.2365 424.352 97.8374 422.584 96.0697L420.999 94.4843C426.668 87.245 428.102 78.9633 423.997 74.8579ZM398.541 100.314C397.1 98.8726 396.876 96.4769 397.651 93.7051C397.473 93.5552 397.292 93.4081 397.127 93.2426C393.221 89.3366 393.856 82.3716 398.541 77.6863C403.226 73.001 410.191 72.366 414.097 76.2721C414.263 76.4375 414.41 76.6186 414.561 76.7953C417.332 76.0218 419.727 76.2452 421.168 77.6863C423.804 80.3224 422.403 86.1362 418.156 91.6418L417.211 90.6971C417.043 90.5094 416.946 90.2677 416.94 90.0154L417.091 84.9822C417.085 84.7298 416.989 84.4877 416.821 84.2992L415.618 83.0957C415.462 82.9401 415.288 82.9868 415.234 83.1989L414.199 87.1955C414.142 87.4104 413.971 87.4571 413.814 87.3001L408.725 82.2104C408.569 82.0548 408.361 82.0873 408.262 82.2853L405.792 87.228C405.745 87.3332 405.731 87.4497 405.749 87.5631C405.768 87.6766 405.819 87.7822 405.896 87.8672L409.573 91.5442C409.729 91.6997 409.685 91.8793 409.474 91.9458L405.11 93.3006C405.002 93.3394 404.908 93.4093 404.84 93.5014C404.772 93.5936 404.733 93.7038 404.728 93.8182V94.7855C404.727 94.8369 404.738 94.8879 404.758 94.9352C404.778 94.9825 404.808 95.025 404.845 95.0601C404.883 95.0953 404.927 95.1222 404.976 95.1392C405.024 95.1562 405.076 95.1629 405.127 95.1589L412.284 94.6795C412.505 94.6653 412.81 94.7813 412.966 94.9369L414.048 96.0187C408.122 101.251 401.426 103.199 398.541 100.314Z" fill="#89C747"/>
</g>
<g clip-path="url(#clip7_160_1200)">
<path d="M82.2809 17.1422C80.3562 15.2174 77.5093 14.5146 74.2863 14.8922C74.2821 14.8936 74.2793 14.8964 74.275 14.895C68.7115 10.3554 59.9038 11.235 53.9966 17.1422C48.0895 23.0493 47.2098 31.8571 51.7494 37.4206C51.7509 37.4248 51.748 37.4276 51.7466 37.4319C51.369 40.6549 52.0719 43.5017 53.9966 45.4264C58.3977 49.8275 67.5957 47.8617 75.1674 41.1414L76.624 42.598C78.0383 44.0122 76.7513 47.8759 76.7513 47.8759C76.7185 47.9802 76.7245 48.0929 76.7681 48.1932C76.8118 48.2935 76.8902 48.3746 76.9889 48.4217C76.9889 48.4217 78.5686 49.1387 79.4525 48.2549C80.3364 47.371 80.3349 45.9582 82.1027 44.1904C83.8705 42.4226 86.1629 41.3521 86.1629 41.3521C86.2672 41.2967 86.3554 41.2151 86.4188 41.1155C86.4823 41.0159 86.5188 40.9015 86.525 40.7836L86.525 38.7556C86.525 38.535 86.3623 38.4289 86.1601 38.5208C86.1601 38.5208 82.6359 40.1217 80.8681 38.354L79.2828 36.7686C84.9523 29.5293 86.3864 21.2476 82.2809 17.1422ZM56.8251 42.598C55.384 41.1569 55.1605 38.7612 55.9355 35.9894C55.7573 35.8395 55.5763 35.6924 55.4108 35.5269C51.5048 31.6209 52.1398 24.6559 56.8251 19.9706C61.5103 15.2853 68.4753 14.6503 72.3814 18.5564C72.5469 18.7218 72.6939 18.9029 72.8453 19.0796C75.6157 18.3061 78.0114 18.5295 79.4525 19.9706C82.0886 22.6067 80.6871 28.4205 76.4402 33.9261L75.4955 32.9814C75.3267 32.7937 75.2304 32.552 75.224 32.2997L75.3753 27.2665C75.3688 27.0141 75.2731 26.772 75.1052 26.5835L73.9017 25.38C73.7461 25.2244 73.5722 25.2711 73.5184 25.4832L72.4832 29.4798C72.4267 29.6947 72.2555 29.7414 72.0986 29.5844L67.0088 24.4947C66.8532 24.3391 66.6454 24.3716 66.5464 24.5696L64.0757 29.5123C64.0294 29.6175 64.0147 29.734 64.0333 29.8474C64.0518 29.9609 64.1029 30.0665 64.1804 30.1515L67.8573 33.8285C68.0129 33.984 67.9691 34.1636 67.7583 34.2301L63.3941 35.5849C63.2863 35.6237 63.1925 35.6936 63.1245 35.7857C63.0565 35.8779 63.0175 35.9881 63.0122 36.1025V37.0698C63.0116 37.1212 63.0217 37.1722 63.0419 37.2195C63.062 37.2668 63.0918 37.3093 63.1293 37.3444C63.1669 37.3796 63.2113 37.4065 63.2598 37.4235C63.3083 37.4405 63.3598 37.4472 63.411 37.4432L70.5684 36.9638C70.789 36.9496 71.0945 37.0656 71.25 37.2212L72.3319 38.303C66.4064 43.5356 59.7101 45.483 56.8251 42.598Z" fill="#89C747"/>
</g>
<path d="M341.601 40.5231L334.743 41.2364L328.981 48.6438V52.7591L333.371 57.5876L338.419 56.5451L342.26 57.3132L341.437 60.2762L344.071 65.0499L342.754 68.3969L345.862 77.477L350.051 76.792L353.892 72.4573L354.222 69.4394L356.691 67.5739L356.197 62.1417L362.728 53.7828L358.666 54.3503L352.466 43.541L342.699 42.8825L341.601 40.5231L341.601 40.5231ZM361.316 65.5074L360.191 67.1371L359.143 67.1759C358.218 69.076 358.159 70.1461 358.057 72.3749L359.415 72.7242L361.122 68.6502L361.316 65.5075V65.5074Z" fill="#89C747"/>
<path d="M524.011 99.8433C520.828 96.6566 524.441 87.8766 532.086 80.2316C539.731 72.5866 548.511 68.9716 551.698 72.1566C554.881 75.3433 551.268 84.1233 543.623 91.7683C535.978 99.4133 527.198 103.028 524.011 99.8433ZM526.321 97.5333C527.68 98.8933 534.825 95.95 541.316 89.4583C547.808 82.9666 550.75 75.8216 549.391 74.4633C548.033 73.1033 540.888 76.0466 534.396 82.5383C527.905 89.03 524.963 96.175 526.321 97.5333ZM532.088 91.7666C524.441 84.1233 520.826 75.3433 524.011 72.1566C527.198 68.9733 535.978 72.5866 543.623 80.2316C551.268 87.8766 554.883 96.6566 551.698 99.8433C548.511 103.027 539.731 99.4133 532.086 91.7683L532.088 91.7666ZM534.396 89.4583C540.888 95.95 548.033 98.8916 549.391 97.5333C550.751 96.175 547.808 89.03 541.316 82.5383C534.825 76.0466 527.68 73.105 526.321 74.4633C524.961 75.8216 527.905 82.9666 534.396 89.4583ZM537.855 89.3333C536.971 89.3333 536.123 88.9821 535.498 88.357C534.872 87.7319 534.521 86.884 534.521 86C534.521 85.1159 534.872 84.2681 535.498 83.6429C536.123 83.0178 536.971 82.6666 537.855 82.6666C538.739 82.6666 539.586 83.0178 540.212 83.6429C540.837 84.2681 541.188 85.1159 541.188 86C541.188 86.884 540.837 87.7319 540.212 88.357C539.586 88.9821 538.739 89.3333 537.855 89.3333Z" fill="#89C747"/>
<path d="M261.454 99.6667C261.912 100.151 262.47 100.528 263.089 100.773C263.708 101.018 264.373 101.124 265.038 101.083C266.986 100.981 268.895 100.494 270.654 99.65C273.291 100.831 276.212 101.226 279.067 100.787C281.923 100.349 284.591 99.0944 286.751 97.1757C288.91 95.2571 290.47 92.7556 291.242 89.9718C292.015 87.1881 291.967 84.2405 291.104 81.4833C293.288 77.7667 294.021 74.3833 292.221 72.35C291.698 71.7431 291.034 71.2739 290.287 70.9833C289.54 70.6927 288.734 70.5897 287.938 70.6833C286.36 70.9239 284.885 71.6123 283.688 72.6667C280.999 71.3007 277.961 70.7768 274.971 71.1633C271.98 71.5498 269.175 72.8288 266.922 74.8333C264.669 76.8379 263.073 79.475 262.341 82.4006C261.61 85.3261 261.777 88.4042 262.821 91.2333C261.054 93.25 259.404 97.3667 261.454 99.6667ZM263.954 97.4667C263.588 97.05 263.954 95.6833 264.571 94.5333C265.317 95.6069 266.196 96.5814 267.188 97.4333C265.471 97.9333 264.338 97.9 263.954 97.4667ZM288.138 88.85C287.381 91.8429 285.469 94.4139 282.821 96C281.015 97.0741 278.956 97.6492 276.854 97.6667C276.16 97.6614 275.468 97.5889 274.788 97.45C277.402 95.8465 279.868 94.0113 282.154 91.9667C284.456 89.9339 286.576 87.7032 288.488 85.3C288.557 86.4943 288.439 87.6922 288.138 88.85ZM288.288 74.0333C288.555 73.9893 288.829 74.0154 289.083 74.1088C289.337 74.2023 289.563 74.36 289.738 74.5667C290.121 75 290.004 76.1333 289.304 77.7833C288.553 76.6345 287.65 75.5919 286.621 74.6833C287.122 74.3476 287.691 74.1257 288.288 74.0333ZM265.554 83.1833C265.92 81.6932 266.578 80.2907 267.491 79.0574C268.404 77.8242 269.553 76.7849 270.871 76C272.678 74.914 274.746 74.338 276.854 74.3333C278.873 74.3194 280.861 74.8373 282.616 75.835C284.371 76.8326 285.833 78.2748 286.854 80.0167C287.075 80.3688 287.27 80.7365 287.438 81.1167C285.294 84.1906 282.781 86.9894 279.954 89.45C277.176 92.0051 274.092 94.2053 270.771 96C268.661 94.7036 267.018 92.7694 266.08 90.4771C265.142 88.1849 264.958 85.6538 265.554 83.25V83.1833Z" fill="#89C747"/>
<path d="M367.454 36.6667C367.912 37.1506 368.47 37.5283 369.089 37.773C369.708 38.0178 370.373 38.1237 371.038 38.0833C372.986 37.9813 374.895 37.4942 376.654 36.65C379.291 37.8314 382.212 38.2264 385.067 37.7874C387.923 37.3485 390.591 36.0944 392.751 34.1757C394.91 32.2571 396.47 29.7556 397.242 26.9718C398.015 24.1881 397.967 21.2405 397.104 18.4833C399.288 14.7667 400.021 11.3833 398.221 9.34999C397.698 8.74313 397.034 8.27386 396.287 7.98329C395.54 7.69272 394.734 7.58973 393.938 7.68332C392.36 7.92393 390.885 8.61231 389.688 9.66666C386.999 8.30067 383.961 7.77675 380.971 8.16326C377.98 8.54977 375.175 9.82876 372.922 11.8333C370.669 13.8379 369.073 16.475 368.341 19.4006C367.61 22.3261 367.777 25.4042 368.821 28.2333C367.054 30.25 365.404 34.3667 367.454 36.6667ZM369.954 34.4667C369.588 34.05 369.954 32.6833 370.571 31.5333C371.317 32.6069 372.196 33.5814 373.188 34.4333C371.471 34.9333 370.338 34.9 369.954 34.4667ZM394.138 25.85C393.381 28.8429 391.469 31.4139 388.821 33C387.015 34.0741 384.956 34.6492 382.854 34.6667C382.16 34.6614 381.468 34.5889 380.788 34.45C383.402 32.8465 385.868 31.0113 388.154 28.9667C390.456 26.9339 392.576 24.7032 394.488 22.3C394.557 23.4943 394.439 24.6922 394.138 25.85ZM394.288 11.0333C394.555 10.9893 394.829 11.0154 395.083 11.1088C395.337 11.2023 395.563 11.36 395.738 11.5667C396.121 12 396.004 13.1333 395.304 14.7833C394.553 13.6345 393.65 12.5919 392.621 11.6833C393.122 11.3476 393.691 11.1257 394.288 11.0333ZM371.554 20.1833C371.92 18.6932 372.578 17.2907 373.491 16.0574C374.404 14.8242 375.553 13.7849 376.871 13C378.678 11.914 380.746 11.338 382.854 11.3333C384.873 11.3194 386.861 11.8373 388.616 12.835C390.371 13.8326 391.833 15.2748 392.854 17.0167C393.075 17.3688 393.27 17.7365 393.438 18.1167C391.294 21.1906 388.781 23.9894 385.954 26.45C383.176 29.0051 380.092 31.2053 376.771 33C374.661 31.7036 373.018 29.7694 372.08 27.4771C371.142 25.1849 370.958 22.6538 371.554 20.25V20.1833Z" fill="#89C747"/>
<g clip-path="url(#clip8_160_1200)">
<path d="M195.724 55.0521C195.107 53.6803 196.534 52.2532 197.907 52.8695L207.104 57.1876C207.409 57.3226 207.748 57.3619 208.076 57.3002C208.404 57.2386 208.706 57.0789 208.941 56.8423L214.936 50.8472C216.044 49.7394 217.906 50.6351 217.71 52.1813L217.283 60.2859C217.238 60.6239 217.302 60.9672 217.466 61.2666C217.629 61.566 217.882 61.806 218.19 61.9523L226.351 66.9975C227.791 67.6787 227.474 69.8177 225.893 70.0935L216.421 72.2113C216.083 72.2702 215.772 72.432 215.529 72.6746C215.287 72.9171 215.125 73.2286 215.066 73.5665L212.948 83.0382C212.674 84.6186 210.532 84.9356 209.852 83.4967L204.807 75.3355C204.661 75.0276 204.421 74.7739 204.121 74.6109C203.822 74.4479 203.479 74.3838 203.141 74.428L195.036 74.8558C193.489 75.0526 192.595 73.1882 193.701 72.0828L199.696 66.0877C199.933 65.8524 200.092 65.5508 200.154 65.2227C200.216 64.8947 200.176 64.5556 200.041 64.2504L195.723 55.0533L195.724 55.0521Z" stroke="#89C747" stroke-width="3.33333" stroke-linecap="round" stroke-linejoin="round"/>
</g>
<g clip-path="url(#clip9_160_1200)">
<path d="M442.008 29.3364C441.391 27.9646 442.818 26.5375 444.191 27.1538L453.388 31.4719C453.693 31.6069 454.032 31.6462 454.36 31.5846C454.688 31.5229 454.99 31.3632 455.225 31.1266L461.22 25.1315C462.328 24.0237 464.19 24.9194 463.995 26.4656L463.567 34.5702C463.523 34.9082 463.587 35.2515 463.75 35.5509C463.913 35.8503 464.166 36.0903 464.474 36.2366L472.635 41.2818C474.076 41.963 473.759 44.102 472.177 44.3778L462.705 46.4956C462.367 46.5545 462.056 46.7163 461.813 46.9589C461.571 47.2014 461.409 47.5129 461.35 47.8508L459.232 57.3225C458.958 58.9029 456.816 59.2199 456.136 57.781L451.091 49.6198C450.945 49.3119 450.705 49.0582 450.405 48.8952C450.106 48.7322 449.763 48.6681 449.425 48.7123L441.32 49.1401C439.773 49.3369 438.879 47.4725 439.985 46.3671L445.98 40.372C446.217 40.1368 446.377 39.8351 446.438 39.507C446.5 39.179 446.46 38.8399 446.325 38.5347L442.007 29.3376L442.008 29.3364Z" stroke="#89C747" stroke-width="3.33333" stroke-linecap="round" stroke-linejoin="round"/>
</g>
<path d="M133.961 80.1084C134.196 79.2853 134.247 78.4208 134.11 77.5759C133.974 76.731 133.653 75.9264 133.172 75.2191C132.69 74.5117 132.059 73.9188 131.322 73.4824C130.586 73.0459 129.763 72.7766 128.911 72.6934C128.57 71.7127 127.931 70.8626 127.085 70.2606C126.239 69.6586 125.226 69.3346 124.188 69.3334C122.954 69.3376 121.766 69.801 120.855 70.6334C119.944 69.801 118.755 69.3376 117.521 69.3334C115.353 69.3334 113.505 70.7184 112.813 72.6917C111.96 72.7728 111.135 73.0407 110.397 73.4764C109.658 73.9121 109.025 74.5049 108.542 75.2127C108.058 75.9205 107.737 76.726 107.6 77.5721C107.462 78.4182 107.513 79.2841 107.748 80.1084C106.678 80.6776 105.782 81.5259 105.155 82.5632C104.529 83.6005 104.194 84.7881 104.188 86C104.188 87.7917 104.901 89.4767 106.141 90.72C105.952 91.3515 105.855 92.0073 105.855 92.6667C105.855 95.9284 108.208 98.65 111.365 99.2234C111.828 100.248 112.576 101.117 113.52 101.727C114.464 102.338 115.564 102.664 116.688 102.667C118.32 102.667 119.795 101.988 120.855 100.902C121.396 101.46 122.043 101.904 122.759 102.207C123.475 102.51 124.244 102.666 125.021 102.667C126.143 102.665 127.241 102.34 128.184 101.731C129.127 101.122 129.874 100.255 130.338 99.2334C131.268 99.0694 132.152 98.7101 132.933 98.1791C133.714 97.6481 134.373 96.9575 134.868 96.153C135.362 95.3484 135.68 94.4482 135.801 93.5116C135.921 92.5751 135.842 91.6236 135.568 90.72C136.188 90.1002 136.679 89.3643 137.014 88.5544C137.349 87.7445 137.522 86.8765 137.521 86C137.515 84.7881 137.181 83.6005 136.554 82.5632C135.927 81.5259 135.031 80.6776 133.961 80.1084ZM116.688 99.3334C115.503 99.3334 114.471 98.4934 114.238 97.3367L113.885 96H112.521C110.683 96 109.188 94.505 109.188 92.6667C109.188 92.08 109.33 91.53 109.61 91.0317L110.37 89.6717L109.063 88.8217C108.591 88.5174 108.203 88.0998 107.933 87.6069C107.664 87.1141 107.522 86.5617 107.521 86C107.521 84.3717 108.726 82.96 110.325 82.7134L113.146 82.28L111.381 80.0367C111.067 79.6315 110.885 79.1395 110.859 78.6273C110.834 78.1151 110.966 77.6074 111.238 77.1729C111.511 76.7384 111.91 76.398 112.382 76.1978C112.854 75.9975 113.376 75.9471 113.878 76.0534L115.855 76.345V74.3334C115.855 73.8913 116.03 73.4674 116.343 73.1549C116.655 72.8423 117.079 72.6667 117.521 72.6667C117.963 72.6667 118.387 72.8423 118.7 73.1549C119.012 73.4674 119.188 73.8913 119.188 74.3334V96.8334C119.188 98.2117 118.066 99.3334 116.688 99.3334ZM132.646 88.82L131.34 89.67L132.1 91.03C132.38 91.53 132.521 92.08 132.521 92.6667C132.521 94.505 131.026 96 129.105 96H127.741L127.471 97.3367C127.355 97.9005 127.048 98.4069 126.601 98.7706C126.155 99.1343 125.597 99.333 125.021 99.3334C123.643 99.3334 122.521 98.2117 122.521 96.8334V74.3334C122.521 73.4134 123.268 72.6667 124.188 72.6667C125.108 72.6667 125.855 73.4134 125.855 74.4167V76.4284L127.831 76.0534C128.333 75.9471 128.855 75.9975 129.327 76.1978C129.8 76.398 130.199 76.7384 130.471 77.1729C130.743 77.6074 130.876 78.1151 130.85 78.6273C130.825 79.1395 130.642 79.6315 130.328 80.0367L128.563 82.2817L131.385 82.715C132.165 82.8415 132.876 83.2412 133.389 83.8429C133.903 84.4445 134.186 85.2091 134.188 86C134.188 87.1384 133.611 88.1917 132.646 88.82Z" fill="#89C747"/>
<path d="M300.961 17.1084C301.196 16.2853 301.247 15.4208 301.11 14.5759C300.974 13.731 300.653 12.9264 300.172 12.2191C299.69 11.5117 299.059 10.9188 298.322 10.4824C297.586 10.0459 296.763 9.77659 295.911 9.69337C295.57 8.71273 294.931 7.86259 294.085 7.26062C293.239 6.65865 292.226 6.33461 291.188 6.33337C289.954 6.33755 288.766 6.80098 287.855 7.63337C286.944 6.80098 285.755 6.33755 284.521 6.33337C282.353 6.33337 280.505 7.71837 279.813 9.69171C278.96 9.77284 278.135 10.0407 277.397 10.4764C276.658 10.9121 276.025 11.5049 275.542 12.2127C275.058 12.9205 274.737 13.726 274.6 14.5721C274.462 15.4182 274.513 16.2841 274.748 17.1084C273.678 17.6776 272.782 18.5259 272.155 19.5632C271.529 20.6005 271.194 21.7881 271.188 23C271.188 24.7917 271.901 26.4767 273.141 27.72C272.952 28.3515 272.855 29.0073 272.855 29.6667C272.855 32.9284 275.208 35.65 278.365 36.2234C278.828 37.2476 279.576 38.1168 280.52 38.7274C281.464 39.3379 282.564 39.664 283.688 39.6667C285.32 39.6667 286.795 38.9884 287.855 37.9017C288.396 38.4598 289.043 38.9036 289.759 39.2068C290.475 39.51 291.244 39.6664 292.021 39.6667C293.143 39.6646 294.241 39.3398 295.184 38.7311C296.127 38.1223 296.874 37.2553 297.338 36.2334C298.268 36.0694 299.152 35.7101 299.933 35.1791C300.714 34.6481 301.373 33.9575 301.868 33.153C302.362 32.3484 302.68 31.4482 302.801 30.5116C302.921 29.5751 302.842 28.6236 302.568 27.72C303.188 27.1002 303.679 26.3643 304.014 25.5544C304.349 24.7445 304.522 23.8765 304.521 23C304.515 21.7881 304.181 20.6005 303.554 19.5632C302.927 18.5259 302.031 17.6776 300.961 17.1084ZM283.688 36.3334C282.503 36.3334 281.471 35.4934 281.238 34.3367L280.885 33H279.521C277.683 33 276.188 31.505 276.188 29.6667C276.188 29.08 276.33 28.53 276.61 28.0317L277.37 26.6717L276.063 25.8217C275.591 25.5174 275.203 25.0998 274.933 24.6069C274.664 24.1141 274.522 23.5617 274.521 23C274.521 21.3717 275.726 19.96 277.325 19.7134L280.146 19.28L278.381 17.0367C278.067 16.6315 277.885 16.1395 277.859 15.6273C277.834 15.1151 277.966 14.6074 278.238 14.1729C278.511 13.7384 278.91 13.398 279.382 13.1978C279.854 12.9975 280.376 12.9471 280.878 13.0534L282.855 13.345V11.3334C282.855 10.8913 283.03 10.4674 283.343 10.1549C283.655 9.8423 284.079 9.66671 284.521 9.66671C284.963 9.66671 285.387 9.8423 285.7 10.1549C286.012 10.4674 286.188 10.8913 286.188 11.3334V33.8334C286.188 35.2117 285.066 36.3334 283.688 36.3334ZM299.646 25.82L298.34 26.67L299.1 28.03C299.38 28.53 299.521 29.08 299.521 29.6667C299.521 31.505 298.026 33 296.105 33H294.741L294.471 34.3367C294.355 34.9005 294.048 35.4069 293.601 35.7706C293.155 36.1343 292.597 36.333 292.021 36.3334C290.643 36.3334 289.521 35.2117 289.521 33.8334V11.3334C289.521 10.4134 290.268 9.66671 291.188 9.66671C292.108 9.66671 292.855 10.4134 292.855 11.4167V13.4284L294.831 13.0534C295.333 12.9471 295.855 12.9975 296.327 13.1978C296.8 13.398 297.199 13.7384 297.471 14.1729C297.743 14.6074 297.876 15.1151 297.85 15.6273C297.825 16.1395 297.642 16.6315 297.328 17.0367L295.563 19.2817L298.385 19.715C299.165 19.8415 299.876 20.2412 300.389 20.8429C300.903 21.4445 301.186 22.2091 301.188 23C301.188 24.1384 300.611 25.1917 299.646 25.82Z" fill="#89C747"/>
<g clip-path="url(#clip10_160_1200)">
<path d="M23.1938 61.4937L20.7441 61.9239L21.3879 65.5701L23.8356 65.1385L23.1928 61.493L23.1938 61.4937ZM42.0087 74.6681L38.3623 75.3102L38.7949 77.7586L42.4396 77.1168L42.0077 74.6674L42.0087 74.6681ZM32.1534 68.7195C31.8126 68.487 31.457 68.267 31.0836 68.0681C31.0733 68.0609 31.0645 68.0517 31.0529 68.0465C26.5664 65.6146 20.9116 66.6557 17.442 70.3882C14.6531 73.3948 13.9123 77.3731 14.8379 80.9175C15.2143 82.3706 15.08 83.9089 14.4574 85.2747L10.1556 91.4184L12.4902 93.0531C12.4185 93.9139 12.7797 94.7818 13.5344 95.3102C14.289 95.8386 15.2282 95.8812 16.0125 95.5194L18.3471 97.1541L21.215 93.0584L21.3113 93.1258L22.163 91.9093C23.2141 90.4082 25.054 89.4412 27.1455 89.1523C30.0298 88.6419 32.9982 87.1267 34.9376 84.357C38.4795 79.2987 37.2385 72.2099 32.1534 68.7195ZM30.7195 70.7674C34.7157 73.4832 35.6573 78.9706 32.8898 82.923C31.3884 85.0672 29.0731 86.2598 26.7358 86.6711L26.7456 86.7268C24.4966 87.0301 22.4242 88.1091 20.886 89.7776L16.4073 86.6416C17.4109 84.7288 17.8478 82.5031 17.2787 80.2888C16.5449 77.486 17.087 74.4169 19.2772 72.0562C21.9831 69.1441 26.4164 68.383 29.8721 70.2733C30.1628 70.4217 30.4447 70.5866 30.7167 70.767L30.7195 70.7674ZM11.387 67.8667L9.95307 69.9145L13.0249 72.0654L14.4588 70.0176L11.387 67.8667ZM36.9855 85.7909L35.5516 87.8388L38.6234 89.9897L40.0573 87.9418L36.9855 85.7909ZM11.2155 80.0978L7.57077 80.7395L8.00268 83.189L11.6461 82.5448L11.2155 80.0978ZM28.6225 92.2863L26.1748 92.7179L26.8166 96.3626L29.266 95.9307L28.6225 92.2863ZM15.0706 88.7576L19.1664 91.6255L17.7325 93.6733L13.6367 90.8055L15.0706 88.7576Z" fill="#89C747"/>
</g>
<g clip-path="url(#clip11_160_1200)">
<path d="M528.048 12.3484L525.599 12.7785L526.242 16.4247L528.69 15.9931L528.047 12.3476L528.048 12.3484ZM546.863 25.5227L543.217 26.1648L543.649 28.6132L547.294 27.9714L546.862 25.522L546.863 25.5227ZM537.008 19.5741C536.667 19.3416 536.312 19.1216 535.938 18.9227C535.928 18.9155 535.919 18.9063 535.907 18.9012C531.421 16.4693 525.766 17.5103 522.297 21.2428C519.508 24.2494 518.767 28.2277 519.692 31.7721C520.069 33.2252 519.934 34.7635 519.312 36.1293L515.01 42.273L517.345 43.9077C517.273 44.7685 517.634 45.6364 518.389 46.1648C519.144 46.6932 520.083 46.7358 520.867 46.3741L523.202 48.0088L526.069 43.913L526.166 43.9804L527.018 42.7639C528.069 41.2629 529.909 40.2958 532 40.0069C534.884 39.4965 537.853 37.9813 539.792 35.2116C543.334 30.1533 542.093 23.0645 537.008 19.5741ZM535.574 21.622C539.57 24.3378 540.512 29.8252 537.744 33.7776C536.243 35.9218 533.928 37.1145 531.59 37.5257L531.6 37.5814C529.351 37.8847 527.279 38.9637 525.741 40.6322L521.262 37.4962C522.265 35.5834 522.702 33.3577 522.133 31.1434C521.399 28.3406 521.942 25.2715 524.132 22.9108C526.838 19.9987 531.271 19.2376 534.727 21.1279C535.017 21.2764 535.299 21.4412 535.571 21.6216L535.574 21.622ZM516.242 18.7213L514.808 20.7691L517.879 22.9201L519.313 20.8722L516.242 18.7213ZM541.84 36.6455L540.406 38.6934L543.478 40.8443L544.912 38.7964L541.84 36.6455ZM516.07 30.9524L512.425 31.5941L512.857 34.0436L516.501 33.3994L516.07 30.9524ZM533.477 43.1409L531.029 43.5725L531.671 47.2172L534.121 46.7853L533.477 43.1409ZM519.925 39.6122L524.021 42.4801L522.587 44.528L518.491 41.6601L519.925 39.6122Z" fill="#89C747"/>
</g>
<path d="M139.188 13C139.188 13 141.688 9.66663 147.521 9.66663C153.355 9.66663 155.855 13 155.855 13V36.3333C155.855 36.3333 153.355 34.6666 147.521 34.6666C141.688 34.6666 139.188 36.3333 139.188 36.3333V13ZM155.855 13C155.855 13 158.355 9.66663 164.188 9.66663C170.021 9.66663 172.521 13 172.521 13V36.3333C172.521 36.3333 170.021 34.6666 164.188 34.6666C158.355 34.6666 155.855 36.3333 155.855 36.3333V13Z" stroke="#89C747" stroke-width="3.33333" stroke-linecap="round" stroke-linejoin="round"/>
<g clip-path="url(#clip12_160_1200)">
<path d="M1594 71.8579C1592.07 69.9331 1589.23 69.2303 1586 69.6079C1586 69.6093 1586 69.6121 1585.99 69.6107C1580.43 65.0711 1571.62 65.9507 1565.71 71.8579C1559.81 77.765 1558.93 86.5728 1563.47 92.1363C1563.47 92.1405 1563.46 92.1433 1563.46 92.1476C1563.08 95.3706 1563.79 98.2174 1565.71 100.142C1570.11 104.543 1579.31 102.577 1586.88 95.8571L1588.34 97.3137C1589.75 98.7279 1588.47 102.592 1588.47 102.592C1588.43 102.696 1588.44 102.809 1588.48 102.909C1588.53 103.009 1588.61 103.09 1588.7 103.137C1588.7 103.137 1590.28 103.854 1591.17 102.971C1592.05 102.087 1592.05 100.674 1593.82 98.9061C1595.59 97.1383 1597.88 96.0678 1597.88 96.0678C1597.98 96.0123 1598.07 95.9308 1598.13 95.8312C1598.2 95.7316 1598.23 95.6172 1598.24 95.4993L1598.24 93.4713C1598.24 93.2507 1598.08 93.1446 1597.88 93.2365C1597.88 93.2365 1594.35 94.8374 1592.58 93.0697L1591 91.4843C1596.67 84.245 1598.1 75.9633 1594 71.8579ZM1568.54 97.3137C1567.1 95.8726 1566.88 93.4769 1567.65 90.7051C1567.47 90.5552 1567.29 90.4081 1567.13 90.2426C1563.22 86.3366 1563.86 79.3716 1568.54 74.6863C1573.23 70.001 1580.19 69.366 1584.1 73.2721C1584.26 73.4375 1584.41 73.6186 1584.56 73.7953C1587.33 73.0218 1589.73 73.2452 1591.17 74.6863C1593.8 77.3224 1592.4 83.1362 1588.16 88.6418L1587.21 87.6971C1587.04 87.5094 1586.95 87.2677 1586.94 87.0154L1587.09 81.9822C1587.08 81.7298 1586.99 81.4877 1586.82 81.2992L1585.62 80.0957C1585.46 79.9401 1585.29 79.9868 1585.23 80.1989L1584.2 84.1955C1584.14 84.4104 1583.97 84.4571 1583.81 84.3001L1578.72 79.2104C1578.57 79.0548 1578.36 79.0873 1578.26 79.2853L1575.79 84.228C1575.75 84.3332 1575.73 84.4497 1575.75 84.5631C1575.77 84.6766 1575.82 84.7822 1575.9 84.8672L1579.57 88.5442C1579.73 88.6997 1579.68 88.8793 1579.47 88.9458L1575.11 90.3006C1575 90.3394 1574.91 90.4093 1574.84 90.5014C1574.77 90.5936 1574.73 90.7038 1574.73 90.8182V91.7855C1574.73 91.8369 1574.74 91.8879 1574.76 91.9352C1574.78 91.9825 1574.81 92.025 1574.85 92.0601C1574.88 92.0953 1574.93 92.1222 1574.98 92.1392C1575.02 92.1562 1575.08 92.1629 1575.13 92.1589L1582.28 91.6795C1582.5 91.6653 1582.81 91.7813 1582.97 91.9369L1584.05 93.0187C1578.12 98.2513 1571.43 100.199 1568.54 97.3137Z" fill="#89C747"/>
</g>
<g clip-path="url(#clip13_160_1200)">
<path d="M1252.28 14.1422C1250.36 12.2174 1247.51 11.5146 1244.29 11.8922C1244.28 11.8936 1244.28 11.8964 1244.28 11.895C1238.71 7.35535 1229.9 8.235 1224 14.1422C1218.09 20.0493 1217.21 28.8571 1221.75 34.4206C1221.75 34.4248 1221.75 34.4276 1221.75 34.4319C1221.37 37.6549 1222.07 40.5017 1224 42.4264C1228.4 46.8275 1237.6 44.8617 1245.17 38.1414L1246.62 39.598C1248.04 41.0122 1246.75 44.8759 1246.75 44.8759C1246.72 44.9802 1246.72 45.0929 1246.77 45.1932C1246.81 45.2935 1246.89 45.3746 1246.99 45.4217C1246.99 45.4217 1248.57 46.1387 1249.45 45.2549C1250.34 44.371 1250.33 42.9582 1252.1 41.1904C1253.87 39.4226 1256.16 38.3521 1256.16 38.3521C1256.27 38.2967 1256.36 38.2151 1256.42 38.1155C1256.48 38.0159 1256.52 37.9015 1256.52 37.7836L1256.52 35.7556C1256.52 35.535 1256.36 35.4289 1256.16 35.5208C1256.16 35.5208 1252.64 37.1217 1250.87 35.354L1249.28 33.7686C1254.95 26.5293 1256.39 18.2476 1252.28 14.1422ZM1226.83 39.598C1225.38 38.1569 1225.16 35.7612 1225.94 32.9894C1225.76 32.8395 1225.58 32.6924 1225.41 32.5269C1221.5 28.6209 1222.14 21.6559 1226.83 16.9706C1231.51 12.2853 1238.48 11.6503 1242.38 15.5564C1242.55 15.7218 1242.69 15.9029 1242.85 16.0796C1245.62 15.3061 1248.01 15.5295 1249.45 16.9706C1252.09 19.6067 1250.69 25.4205 1246.44 30.9261L1245.5 29.9814C1245.33 29.7937 1245.23 29.552 1245.22 29.2997L1245.38 24.2665C1245.37 24.0141 1245.27 23.772 1245.11 23.5835L1243.9 22.38C1243.75 22.2244 1243.57 22.2711 1243.52 22.4832L1242.48 26.4798C1242.43 26.6947 1242.26 26.7414 1242.1 26.5844L1237.01 21.4947C1236.85 21.3391 1236.65 21.3716 1236.55 21.5696L1234.08 26.5123C1234.03 26.6175 1234.01 26.734 1234.03 26.8474C1234.05 26.9609 1234.1 27.0665 1234.18 27.1515L1237.86 30.8285C1238.01 30.984 1237.97 31.1636 1237.76 31.2301L1233.39 32.5849C1233.29 32.6237 1233.19 32.6936 1233.12 32.7857C1233.06 32.8779 1233.02 32.9881 1233.01 33.1025V34.0698C1233.01 34.1212 1233.02 34.1722 1233.04 34.2195C1233.06 34.2668 1233.09 34.3093 1233.13 34.3444C1233.17 34.3796 1233.21 34.4065 1233.26 34.4235C1233.31 34.4405 1233.36 34.4472 1233.41 34.4432L1240.57 33.9638C1240.79 33.9496 1241.09 34.0656 1241.25 34.2212L1242.33 35.303C1236.41 40.5356 1229.71 42.483 1226.83 39.598Z" fill="#89C747"/>
</g>
<path d="M1511.6 37.5231L1504.74 38.2364L1498.98 45.6438V49.7591L1503.37 54.5876L1508.42 53.5451L1512.26 54.3132L1511.44 57.2762L1514.07 62.0499L1512.75 65.3969L1515.86 74.477L1520.05 73.792L1523.89 69.4573L1524.22 66.4394L1526.69 64.5739L1526.2 59.1417L1532.73 50.7828L1528.67 51.3503L1522.47 40.541L1512.7 39.8825L1511.6 37.5231L1511.6 37.5231ZM1531.32 62.5074L1530.19 64.1371L1529.14 64.1759C1528.22 66.076 1528.16 67.1461 1528.06 69.3749L1529.41 69.7242L1531.12 65.6502L1531.32 62.5075V62.5074Z" fill="#89C747"/>
<path d="M1694.01 96.8433C1690.83 93.6566 1694.44 84.8766 1702.09 77.2316C1709.73 69.5866 1718.51 65.9716 1721.7 69.1566C1724.88 72.3433 1721.27 81.1233 1713.62 88.7683C1705.98 96.4133 1697.2 100.028 1694.01 96.8433ZM1696.32 94.5333C1697.68 95.8933 1704.82 92.95 1711.32 86.4583C1717.81 79.9666 1720.75 72.8216 1719.39 71.4633C1718.03 70.1033 1710.89 73.0466 1704.4 79.5383C1697.9 86.03 1694.96 93.175 1696.32 94.5333ZM1702.09 88.7666C1694.44 81.1233 1690.83 72.3433 1694.01 69.1566C1697.2 65.9733 1705.98 69.5866 1713.62 77.2316C1721.27 84.8766 1724.88 93.6566 1721.7 96.8433C1718.51 100.027 1709.73 96.4133 1702.09 88.7683L1702.09 88.7666ZM1704.4 86.4583C1710.89 92.95 1718.03 95.8916 1719.39 94.5333C1720.75 93.175 1717.81 86.03 1711.32 79.5383C1704.82 73.0466 1697.68 70.105 1696.32 71.4633C1694.96 72.8216 1697.9 79.9666 1704.4 86.4583ZM1707.85 86.3333C1706.97 86.3333 1706.12 85.9821 1705.5 85.357C1704.87 84.7319 1704.52 83.884 1704.52 83C1704.52 82.1159 1704.87 81.2681 1705.5 80.6429C1706.12 80.0178 1706.97 79.6666 1707.85 79.6666C1708.74 79.6666 1709.59 80.0178 1710.21 80.6429C1710.84 81.2681 1711.19 82.1159 1711.19 83C1711.19 83.884 1710.84 84.7319 1710.21 85.357C1709.59 85.9821 1708.74 86.3333 1707.85 86.3333Z" fill="#89C747"/>
<path d="M1431.45 96.6667C1431.91 97.1506 1432.47 97.5283 1433.09 97.773C1433.71 98.0178 1434.37 98.1237 1435.04 98.0833C1436.99 97.9813 1438.9 97.4942 1440.65 96.65C1443.29 97.8314 1446.21 98.2264 1449.07 97.7874C1451.92 97.3485 1454.59 96.0944 1456.75 94.1757C1458.91 92.2571 1460.47 89.7556 1461.24 86.9718C1462.01 84.1881 1461.97 81.2405 1461.1 78.4833C1463.29 74.7667 1464.02 71.3833 1462.22 69.35C1461.7 68.7431 1461.03 68.2739 1460.29 67.9833C1459.54 67.6927 1458.73 67.5897 1457.94 67.6833C1456.36 67.9239 1454.89 68.6123 1453.69 69.6667C1451 68.3007 1447.96 67.7768 1444.97 68.1633C1441.98 68.5498 1439.18 69.8288 1436.92 71.8333C1434.67 73.8379 1433.07 76.475 1432.34 79.4006C1431.61 82.3261 1431.78 85.4042 1432.82 88.2333C1431.05 90.25 1429.4 94.3667 1431.45 96.6667ZM1433.95 94.4667C1433.59 94.05 1433.95 92.6833 1434.57 91.5333C1435.32 92.6069 1436.2 93.5814 1437.19 94.4333C1435.47 94.9333 1434.34 94.9 1433.95 94.4667ZM1458.14 85.85C1457.38 88.8429 1455.47 91.4139 1452.82 93C1451.01 94.0741 1448.96 94.6492 1446.85 94.6667C1446.16 94.6614 1445.47 94.5889 1444.79 94.45C1447.4 92.8465 1449.87 91.0113 1452.15 88.9667C1454.46 86.9339 1456.58 84.7032 1458.49 82.3C1458.56 83.4943 1458.44 84.6922 1458.14 85.85ZM1458.29 71.0333C1458.55 70.9893 1458.83 71.0154 1459.08 71.1088C1459.34 71.2023 1459.56 71.36 1459.74 71.5667C1460.12 72 1460 73.1333 1459.3 74.7833C1458.55 73.6345 1457.65 72.5919 1456.62 71.6833C1457.12 71.3476 1457.69 71.1257 1458.29 71.0333ZM1435.55 80.1833C1435.92 78.6932 1436.58 77.2907 1437.49 76.0574C1438.4 74.8242 1439.55 73.7849 1440.87 73C1442.68 71.914 1444.75 71.338 1446.85 71.3333C1448.87 71.3194 1450.86 71.8373 1452.62 72.835C1454.37 73.8326 1455.83 75.2748 1456.85 77.0167C1457.07 77.3688 1457.27 77.7365 1457.44 78.1167C1455.29 81.1906 1452.78 83.9894 1449.95 86.45C1447.18 89.0051 1444.09 91.2053 1440.77 93C1438.66 91.7036 1437.02 89.7694 1436.08 87.4771C1435.14 85.1849 1434.96 82.6538 1435.55 80.25V80.1833Z" fill="#89C747"/>
<path d="M1537.45 33.6667C1537.91 34.1506 1538.47 34.5283 1539.09 34.773C1539.71 35.0178 1540.37 35.1237 1541.04 35.0833C1542.99 34.9813 1544.9 34.4942 1546.65 33.65C1549.29 34.8314 1552.21 35.2264 1555.07 34.7874C1557.92 34.3485 1560.59 33.0944 1562.75 31.1757C1564.91 29.2571 1566.47 26.7556 1567.24 23.9718C1568.01 21.1881 1567.97 18.2405 1567.1 15.4833C1569.29 11.7667 1570.02 8.38332 1568.22 6.34999C1567.7 5.74313 1567.03 5.27386 1566.29 4.98329C1565.54 4.69272 1564.73 4.58973 1563.94 4.68332C1562.36 4.92393 1560.89 5.61231 1559.69 6.66666C1557 5.30067 1553.96 4.77675 1550.97 5.16326C1547.98 5.54977 1545.18 6.82876 1542.92 8.83335C1540.67 10.8379 1539.07 13.475 1538.34 16.4006C1537.61 19.3261 1537.78 22.4042 1538.82 25.2333C1537.05 27.25 1535.4 31.3667 1537.45 33.6667ZM1539.95 31.4667C1539.59 31.05 1539.95 29.6833 1540.57 28.5333C1541.32 29.6069 1542.2 30.5814 1543.19 31.4333C1541.47 31.9333 1540.34 31.9 1539.95 31.4667ZM1564.14 22.85C1563.38 25.8429 1561.47 28.4139 1558.82 30C1557.01 31.0741 1554.96 31.6492 1552.85 31.6667C1552.16 31.6614 1551.47 31.5889 1550.79 31.45C1553.4 29.8465 1555.87 28.0113 1558.15 25.9667C1560.46 23.9339 1562.58 21.7032 1564.49 19.3C1564.56 20.4943 1564.44 21.6922 1564.14 22.85ZM1564.29 8.03332C1564.55 7.98934 1564.83 8.01535 1565.08 8.10882C1565.34 8.20229 1565.56 8.36003 1565.74 8.56666C1566.12 8.99999 1566 10.1333 1565.3 11.7833C1564.55 10.6345 1563.65 9.59187 1562.62 8.68332C1563.12 8.34759 1563.69 8.12573 1564.29 8.03332ZM1541.55 17.1833C1541.92 15.6932 1542.58 14.2907 1543.49 13.0574C1544.4 11.8242 1545.55 10.7849 1546.87 9.99999C1548.68 8.91398 1550.75 8.33802 1552.85 8.33332C1554.87 8.31939 1556.86 8.8373 1558.62 9.83495C1560.37 10.8326 1561.83 12.2748 1562.85 14.0167C1563.07 14.3688 1563.27 14.7365 1563.44 15.1167C1561.29 18.1906 1558.78 20.9894 1555.95 23.45C1553.18 26.0051 1550.09 28.2053 1546.77 30C1544.66 28.7036 1543.02 26.7694 1542.08 24.4771C1541.14 22.1849 1540.96 19.6538 1541.55 17.25V17.1833Z" fill="#89C747"/>
<g clip-path="url(#clip14_160_1200)">
<path d="M1365.72 52.0521C1365.11 50.6803 1366.53 49.2532 1367.91 49.8695L1377.1 54.1876C1377.41 54.3226 1377.75 54.3619 1378.08 54.3002C1378.4 54.2386 1378.71 54.0789 1378.94 53.8423L1384.94 47.8472C1386.04 46.7394 1387.91 47.6351 1387.71 49.1813L1387.28 57.2859C1387.24 57.6239 1387.3 57.9672 1387.47 58.2666C1387.63 58.566 1387.88 58.806 1388.19 58.9523L1396.35 63.9975C1397.79 64.6787 1397.47 66.8177 1395.89 67.0935L1386.42 69.2113C1386.08 69.2702 1385.77 69.432 1385.53 69.6746C1385.29 69.9171 1385.12 70.2286 1385.07 70.5665L1382.95 80.0382C1382.67 81.6186 1380.53 81.9356 1379.85 80.4967L1374.81 72.3355C1374.66 72.0276 1374.42 71.7739 1374.12 71.6109C1373.82 71.4479 1373.48 71.3838 1373.14 71.428L1365.04 71.8558C1363.49 72.0526 1362.6 70.1882 1363.7 69.0828L1369.7 63.0877C1369.93 62.8524 1370.09 62.5508 1370.15 62.2227C1370.22 61.8947 1370.18 61.5556 1370.04 61.2504L1365.72 52.0533L1365.72 52.0521Z" stroke="#89C747" stroke-width="3.33333" stroke-linecap="round" stroke-linejoin="round"/>
</g>
<g clip-path="url(#clip15_160_1200)">
<path d="M1612.01 26.3364C1611.39 24.9646 1612.82 23.5375 1614.19 24.1538L1623.39 28.4719C1623.69 28.6069 1624.03 28.6462 1624.36 28.5846C1624.69 28.5229 1624.99 28.3632 1625.23 28.1266L1631.22 22.1315C1632.33 21.0237 1634.19 21.9194 1633.99 23.4656L1633.57 31.5702C1633.52 31.9082 1633.59 32.2515 1633.75 32.5509C1633.91 32.8503 1634.17 33.0903 1634.47 33.2366L1642.64 38.2818C1644.08 38.963 1643.76 41.102 1642.18 41.3778L1632.71 43.4956C1632.37 43.5545 1632.06 43.7163 1631.81 43.9589C1631.57 44.2014 1631.41 44.5129 1631.35 44.8508L1629.23 54.3225C1628.96 55.9029 1626.82 56.2199 1626.14 54.781L1621.09 46.6198C1620.94 46.3119 1620.7 46.0582 1620.41 45.8952C1620.11 45.7322 1619.76 45.6681 1619.42 45.7123L1611.32 46.1401C1609.77 46.3369 1608.88 44.4725 1609.98 43.3671L1615.98 37.372C1616.22 37.1368 1616.38 36.8351 1616.44 36.507C1616.5 36.179 1616.46 35.8399 1616.33 35.5347L1612.01 26.3376L1612.01 26.3364Z" stroke="#89C747" stroke-width="3.33333" stroke-linecap="round" stroke-linejoin="round"/>
</g>
<path d="M1303.96 77.1084C1304.2 76.2853 1304.25 75.4208 1304.11 74.5759C1303.97 73.731 1303.65 72.9264 1303.17 72.2191C1302.69 71.5117 1302.06 70.9188 1301.32 70.4824C1300.59 70.0459 1299.76 69.7766 1298.91 69.6934C1298.57 68.7127 1297.93 67.8626 1297.09 67.2606C1296.24 66.6586 1295.23 66.3346 1294.19 66.3334C1292.95 66.3376 1291.77 66.801 1290.85 67.6334C1289.94 66.801 1288.76 66.3376 1287.52 66.3334C1285.35 66.3334 1283.5 67.7184 1282.81 69.6917C1281.96 69.7728 1281.13 70.0407 1280.4 70.4764C1279.66 70.9121 1279.03 71.5049 1278.54 72.2127C1278.06 72.9205 1277.74 73.726 1277.6 74.5721C1277.46 75.4182 1277.51 76.2841 1277.75 77.1084C1276.68 77.6776 1275.78 78.5259 1275.16 79.5632C1274.53 80.6005 1274.19 81.7881 1274.19 83C1274.19 84.7917 1274.9 86.4767 1276.14 87.72C1275.95 88.3515 1275.86 89.0073 1275.85 89.6667C1275.85 92.9284 1278.21 95.65 1281.36 96.2234C1281.83 97.2476 1282.58 98.1168 1283.52 98.7274C1284.46 99.3379 1285.56 99.664 1286.69 99.6667C1288.32 99.6667 1289.79 98.9884 1290.85 97.9017C1291.4 98.4598 1292.04 98.9036 1292.76 99.2068C1293.47 99.51 1294.24 99.6664 1295.02 99.6667C1296.14 99.6646 1297.24 99.3398 1298.18 98.7311C1299.13 98.1223 1299.87 97.2553 1300.34 96.2334C1301.27 96.0694 1302.15 95.7101 1302.93 95.1791C1303.71 94.6481 1304.37 93.9575 1304.87 93.153C1305.36 92.3484 1305.68 91.4482 1305.8 90.5116C1305.92 89.5751 1305.84 88.6236 1305.57 87.72C1306.19 87.1002 1306.68 86.3643 1307.01 85.5544C1307.35 84.7445 1307.52 83.8765 1307.52 83C1307.51 81.7881 1307.18 80.6005 1306.55 79.5632C1305.93 78.5259 1305.03 77.6776 1303.96 77.1084ZM1286.69 96.3334C1285.5 96.3334 1284.47 95.4934 1284.24 94.3367L1283.88 93H1282.52C1280.68 93 1279.19 91.505 1279.19 89.6667C1279.19 89.08 1279.33 88.53 1279.61 88.0317L1280.37 86.6717L1279.06 85.8217C1278.59 85.5174 1278.2 85.0998 1277.93 84.6069C1277.66 84.1141 1277.52 83.5617 1277.52 83C1277.52 81.3717 1278.73 79.96 1280.32 79.7134L1283.15 79.28L1281.38 77.0367C1281.07 76.6315 1280.88 76.1395 1280.86 75.6273C1280.83 75.1151 1280.97 74.6074 1281.24 74.1729C1281.51 73.7384 1281.91 73.398 1282.38 73.1978C1282.85 72.9975 1283.38 72.9471 1283.88 73.0534L1285.85 73.345V71.3334C1285.85 70.8913 1286.03 70.4674 1286.34 70.1549C1286.66 69.8423 1287.08 69.6667 1287.52 69.6667C1287.96 69.6667 1288.39 69.8423 1288.7 70.1549C1289.01 70.4674 1289.19 70.8913 1289.19 71.3334V93.8334C1289.19 95.2117 1288.07 96.3334 1286.69 96.3334ZM1302.65 85.82L1301.34 86.67L1302.1 88.03C1302.38 88.53 1302.52 89.08 1302.52 89.6667C1302.52 91.505 1301.03 93 1299.1 93H1297.74L1297.47 94.3367C1297.35 94.9005 1297.05 95.4069 1296.6 95.7706C1296.15 96.1343 1295.6 96.333 1295.02 96.3334C1293.64 96.3334 1292.52 95.2117 1292.52 93.8334V71.3334C1292.52 70.4134 1293.27 69.6667 1294.19 69.6667C1295.11 69.6667 1295.85 70.4134 1295.85 71.4167V73.4284L1297.83 73.0534C1298.33 72.9471 1298.86 72.9975 1299.33 73.1978C1299.8 73.398 1300.2 73.7384 1300.47 74.1729C1300.74 74.6074 1300.88 75.1151 1300.85 75.6273C1300.82 76.1395 1300.64 76.6315 1300.33 77.0367L1298.56 79.2817L1301.38 79.715C1302.17 79.8415 1302.88 80.2412 1303.39 80.8429C1303.9 81.4445 1304.19 82.2091 1304.19 83C1304.19 84.1384 1303.61 85.1917 1302.65 85.82Z" fill="#89C747"/>
<path d="M1470.96 14.1084C1471.2 13.2853 1471.25 12.4208 1471.11 11.5759C1470.97 10.731 1470.65 9.92642 1470.17 9.21906C1469.69 8.5117 1469.06 7.91883 1468.32 7.48238C1467.59 7.04594 1466.76 6.77659 1465.91 6.69337C1465.57 5.71273 1464.93 4.86259 1464.09 4.26062C1463.24 3.65865 1462.23 3.33461 1461.19 3.33337C1459.95 3.33755 1458.77 3.80098 1457.85 4.63337C1456.94 3.80098 1455.76 3.33755 1454.52 3.33337C1452.35 3.33337 1450.5 4.71837 1449.81 6.69171C1448.96 6.77284 1448.13 7.04074 1447.4 7.47642C1446.66 7.9121 1446.03 8.50487 1445.54 9.21269C1445.06 9.92051 1444.74 10.726 1444.6 11.5721C1444.46 12.4182 1444.51 13.2841 1444.75 14.1084C1443.68 14.6776 1442.78 15.5259 1442.16 16.5632C1441.53 17.6005 1441.19 18.7881 1441.19 20C1441.19 21.7917 1441.9 23.4767 1443.14 24.72C1442.95 25.3515 1442.86 26.0073 1442.85 26.6667C1442.85 29.9284 1445.21 32.65 1448.36 33.2234C1448.83 34.2476 1449.58 35.1168 1450.52 35.7274C1451.46 36.3379 1452.56 36.664 1453.69 36.6667C1455.32 36.6667 1456.79 35.9884 1457.85 34.9017C1458.4 35.4598 1459.04 35.9036 1459.76 36.2068C1460.47 36.51 1461.24 36.6664 1462.02 36.6667C1463.14 36.6646 1464.24 36.3398 1465.18 35.7311C1466.13 35.1223 1466.87 34.2553 1467.34 33.2334C1468.27 33.0694 1469.15 32.7101 1469.93 32.1791C1470.71 31.6481 1471.37 30.9575 1471.87 30.153C1472.36 29.3484 1472.68 28.4482 1472.8 27.5116C1472.92 26.5751 1472.84 25.6236 1472.57 24.72C1473.19 24.1002 1473.68 23.3643 1474.01 22.5544C1474.35 21.7445 1474.52 20.8765 1474.52 20C1474.51 18.7881 1474.18 17.6005 1473.55 16.5632C1472.93 15.5259 1472.03 14.6776 1470.96 14.1084ZM1453.69 33.3334C1452.5 33.3334 1451.47 32.4934 1451.24 31.3367L1450.88 30H1449.52C1447.68 30 1446.19 28.505 1446.19 26.6667C1446.19 26.08 1446.33 25.53 1446.61 25.0317L1447.37 23.6717L1446.06 22.8217C1445.59 22.5174 1445.2 22.0998 1444.93 21.6069C1444.66 21.1141 1444.52 20.5617 1444.52 20C1444.52 18.3717 1445.73 16.96 1447.32 16.7134L1450.15 16.28L1448.38 14.0367C1448.07 13.6315 1447.88 13.1395 1447.86 12.6273C1447.83 12.1151 1447.97 11.6074 1448.24 11.1729C1448.51 10.7384 1448.91 10.398 1449.38 10.1978C1449.85 9.99752 1450.38 9.94712 1450.88 10.0534L1452.85 10.345V8.33337C1452.85 7.89135 1453.03 7.46742 1453.34 7.15486C1453.66 6.8423 1454.08 6.66671 1454.52 6.66671C1454.96 6.66671 1455.39 6.8423 1455.7 7.15486C1456.01 7.46742 1456.19 7.89135 1456.19 8.33337V30.8334C1456.19 32.2117 1455.07 33.3334 1453.69 33.3334ZM1469.65 22.82L1468.34 23.67L1469.1 25.03C1469.38 25.53 1469.52 26.08 1469.52 26.6667C1469.52 28.505 1468.03 30 1466.1 30H1464.74L1464.47 31.3367C1464.35 31.9005 1464.05 32.4069 1463.6 32.7706C1463.15 33.1343 1462.6 33.333 1462.02 33.3334C1460.64 33.3334 1459.52 32.2117 1459.52 30.8334V8.33337C1459.52 7.41337 1460.27 6.66671 1461.19 6.66671C1462.11 6.66671 1462.85 7.41337 1462.85 8.41671V10.4284L1464.83 10.0534C1465.33 9.94712 1465.86 9.99752 1466.33 10.1978C1466.8 10.398 1467.2 10.7384 1467.47 11.1729C1467.74 11.6074 1467.88 12.1151 1467.85 12.6273C1467.82 13.1395 1467.64 13.6315 1467.33 14.0367L1465.56 16.2817L1468.38 16.715C1469.17 16.8415 1469.88 17.2412 1470.39 17.8429C1470.9 18.4445 1471.19 19.2091 1471.19 20C1471.19 21.1384 1470.61 22.1917 1469.65 22.82Z" fill="#89C747"/>
<g clip-path="url(#clip16_160_1200)">
<path d="M1193.19 58.4937L1190.74 58.9239L1191.39 62.5701L1193.84 62.1385L1193.19 58.493L1193.19 58.4937ZM1212.01 71.6681L1208.36 72.3102L1208.79 74.7586L1212.44 74.1168L1212.01 71.6674L1212.01 71.6681ZM1202.15 65.7195C1201.81 65.487 1201.46 65.267 1201.08 65.0681C1201.07 65.0609 1201.06 65.0517 1201.05 65.0465C1196.57 62.6146 1190.91 63.6557 1187.44 67.3882C1184.65 70.3948 1183.91 74.3731 1184.84 77.9175C1185.21 79.3706 1185.08 80.9089 1184.46 82.2747L1180.16 88.4184L1182.49 90.0531C1182.42 90.9139 1182.78 91.7818 1183.53 92.3102C1184.29 92.8386 1185.23 92.8812 1186.01 92.5194L1188.35 94.1541L1191.22 90.0584L1191.31 90.1258L1192.16 88.9093C1193.21 87.4082 1195.05 86.4412 1197.15 86.1523C1200.03 85.6419 1203 84.1267 1204.94 81.357C1208.48 76.2987 1207.24 69.2099 1202.15 65.7195ZM1200.72 67.7674C1204.72 70.4832 1205.66 75.9706 1202.89 79.923C1201.39 82.0672 1199.07 83.2598 1196.74 83.6711L1196.75 83.7268C1194.5 84.0301 1192.42 85.1091 1190.89 86.7776L1186.41 83.6416C1187.41 81.7288 1187.85 79.5031 1187.28 77.2888C1186.54 74.486 1187.09 71.4169 1189.28 69.0562C1191.98 66.1441 1196.42 65.383 1199.87 67.2733C1200.16 67.4217 1200.44 67.5866 1200.72 67.767L1200.72 67.7674ZM1181.39 64.8667L1179.95 66.9145L1183.02 69.0654L1184.46 67.0176L1181.39 64.8667ZM1206.99 82.7909L1205.55 84.8388L1208.62 86.9897L1210.06 84.9418L1206.99 82.7909ZM1181.22 77.0978L1177.57 77.7395L1178 80.189L1181.65 79.5448L1181.22 77.0978ZM1198.62 89.2863L1196.17 89.7179L1196.82 93.3626L1199.27 92.9307L1198.62 89.2863ZM1185.07 85.7576L1189.17 88.6255L1187.73 90.6733L1183.64 87.8055L1185.07 85.7576Z" fill="#89C747"/>
</g>
<path d="M1309.19 9.99996C1309.19 9.99996 1311.69 6.66663 1317.52 6.66663C1323.35 6.66663 1325.85 9.99996 1325.85 9.99996V33.3333C1325.85 33.3333 1323.35 31.6666 1317.52 31.6666C1311.69 31.6666 1309.19 33.3333 1309.19 33.3333V9.99996ZM1325.85 9.99996C1325.85 9.99996 1328.35 6.66663 1334.19 6.66663C1340.02 6.66663 1342.52 9.99996 1342.52 9.99996V33.3333C1342.52 33.3333 1340.02 31.6666 1334.19 31.6666C1328.35 31.6666 1325.85 33.3333 1325.85 33.3333V9.99996Z" stroke="#89C747" stroke-width="3.33333" stroke-linecap="round" stroke-linejoin="round"/>
<defs>
<clipPath id="clip0_160_1200">
<rect width="40" height="40" fill="white" transform="translate(966.57 86) rotate(-45)"/>
</clipPath>
<clipPath id="clip1_160_1200">
<rect width="40" height="40" fill="white" transform="translate(624.854 28.2843) rotate(-45)"/>
</clipPath>
<clipPath id="clip2_160_1200">
<rect width="40" height="40" fill="white" transform="translate(764.57 62) rotate(-45)"/>
</clipPath>
<clipPath id="clip3_160_1200">
<rect width="40" height="40" fill="white" transform="translate(1010.85 36.2843) rotate(-45)"/>
</clipPath>
<clipPath id="clip4_160_1200">
<rect width="40" height="40" fill="white" transform="translate(602.943 51.1454) rotate(35)"/>
</clipPath>
<clipPath id="clip5_160_1200">
<rect width="40" height="40" fill="white" transform="translate(1107.8 2) rotate(35)"/>
</clipPath>
<clipPath id="clip6_160_1200">
<rect width="40" height="40" fill="white" transform="translate(381.57 89) rotate(-45)"/>
</clipPath>
<clipPath id="clip7_160_1200">
<rect width="40" height="40" fill="white" transform="translate(39.8545 31.2843) rotate(-45)"/>
</clipPath>
<clipPath id="clip8_160_1200">
<rect width="40" height="40" fill="white" transform="translate(179.57 65) rotate(-45)"/>
</clipPath>
<clipPath id="clip9_160_1200">
<rect width="40" height="40" fill="white" transform="translate(425.854 39.2843) rotate(-45)"/>
</clipPath>
<clipPath id="clip10_160_1200">
<rect width="40" height="40" fill="white" transform="translate(17.9429 54.1454) rotate(35)"/>
</clipPath>
<clipPath id="clip11_160_1200">
<rect width="40" height="40" fill="white" transform="translate(522.797 5) rotate(35)"/>
</clipPath>
<clipPath id="clip12_160_1200">
<rect width="40" height="40" fill="white" transform="translate(1551.57 86) rotate(-45)"/>
</clipPath>
<clipPath id="clip13_160_1200">
<rect width="40" height="40" fill="white" transform="translate(1209.85 28.2843) rotate(-45)"/>
</clipPath>
<clipPath id="clip14_160_1200">
<rect width="40" height="40" fill="white" transform="translate(1349.57 62) rotate(-45)"/>
</clipPath>
<clipPath id="clip15_160_1200">
<rect width="40" height="40" fill="white" transform="translate(1595.85 36.2843) rotate(-45)"/>
</clipPath>
<clipPath id="clip16_160_1200">
<rect width="40" height="40" fill="white" transform="translate(1187.94 51.1454) rotate(35)"/>
</clipPath>
</defs>
</svg>
