<svg width="48" height="48" viewBox="0 0 48 48" fill="none" xmlns="http://www.w3.org/2000/svg">
<g clip-path="url(#clip0_141_869)">
<path d="M17.88 25.88C18.4242 25.3383 19.1554 25.0259 19.923 25.0071C20.6907 24.9883 21.4363 25.2646 22.0063 25.779C22.5764 26.2934 22.9275 27.0069 22.9873 27.7724C23.0472 28.5379 22.8112 29.2972 22.328 29.894L22.122 30.122L14.24 38H17C17.7704 38.0004 18.5112 38.2972 19.0688 38.8288C19.6264 39.3605 19.958 40.0863 19.995 40.8558C20.0321 41.6254 19.7716 42.3797 19.2676 42.9624C18.7637 43.5451 18.0548 43.9117 17.288 43.986L17 44H7C6.25423 44 5.53522 43.7222 4.98316 43.2208C4.43111 42.7194 4.08559 42.0303 4.014 41.288L4 41V31C4.00038 30.2296 4.29715 29.4888 4.82882 28.9312C5.36048 28.3736 6.08629 28.042 6.85583 28.005C7.62537 27.9679 8.37966 28.2284 8.9624 28.7324C9.54514 29.2363 9.91166 29.9452 9.986 30.712L10 31V33.758L17.88 25.878V25.88ZM41 4C41.7458 4.00004 42.4648 4.27784 43.0168 4.77924C43.5689 5.28064 43.9144 5.96968 43.986 6.712L44 7V17C43.9996 17.7704 43.7028 18.5112 43.1712 19.0688C42.6395 19.6264 41.9137 19.958 41.1442 19.995C40.3746 20.0321 39.6203 19.7716 39.0376 19.2676C38.4549 18.7637 38.0883 18.0548 38.014 17.288L38 17V14.242L30.12 22.122C29.5764 22.6675 28.8439 22.9831 28.074 23.0035C27.3042 23.0238 26.556 22.7473 25.9844 22.2312C25.4128 21.7151 25.0616 20.999 25.0034 20.2311C24.9453 19.4632 25.1846 18.7023 25.672 18.106L25.878 17.878L33.76 10H31C30.2296 9.99962 29.4888 9.70285 28.9312 9.17118C28.3736 8.63952 28.042 7.91371 28.005 7.14417C27.9679 6.37463 28.2284 5.62034 28.7324 5.0376C29.2363 4.45486 29.9452 4.08834 30.712 4.014L31 4H41Z" fill="#FFFBDF"/>
</g>
<defs>
<clipPath id="clip0_141_869">
<rect width="48" height="48" fill="white"/>
</clipPath>
</defs>
</svg>
