<svg width="80" height="58" viewBox="0 0 80 58" fill="none" xmlns="http://www.w3.org/2000/svg">
<path fill-rule="evenodd" clip-rule="evenodd" d="M77.776 26.444C74.248 6.73998 66.36 0.927979 62.164 0.927979C55.616 0.927979 53.936 5.79598 40 5.95998C26.064 5.79598 24.384 0.927979 17.836 0.927979C13.64 0.927979 5.74797 6.73998 2.21997 26.444C0.207975 37.692 -1.97603 54.484 3.22797 56.5C9.70397 59.008 11.9 52.736 19.012 47.436C26.232 42.064 29.696 40.8 40 40.8C50.304 40.8 53.768 42.064 60.988 47.436C68.1 52.732 70.296 59.008 76.772 56.5C81.976 54.484 79.792 37.696 77.776 26.444V26.444ZM24 29C21.8782 29 19.8434 28.1571 18.3431 26.6568C16.8428 25.1565 16 23.1217 16 21C16 18.8782 16.8428 16.8434 18.3431 15.3431C19.8434 13.8428 21.8782 13 24 13C26.1217 13 28.1565 13.8428 29.6568 15.3431C31.1571 16.8434 32 18.8782 32 21C32 23.1217 31.1571 25.1565 29.6568 26.6568C28.1565 28.1571 26.1217 29 24 29ZM52 29C50.9391 29 49.9217 28.5785 49.1715 27.8284C48.4214 27.0783 48 26.0608 48 25C48 23.9391 48.4214 22.9217 49.1715 22.1715C49.9217 21.4214 50.9391 21 52 21C53.0608 21 54.0782 21.4214 54.8284 22.1715C55.5785 22.9217 56 23.9391 56 25C56 26.0608 55.5785 27.0783 54.8284 27.8284C54.0782 28.5785 53.0608 29 52 29ZM60 21C58.9391 21 57.9217 20.5785 57.1715 19.8284C56.4214 19.0783 56 18.0608 56 17C56 15.9391 56.4214 14.9217 57.1715 14.1716C57.9217 13.4214 58.9391 13 60 13C61.0608 13 62.0782 13.4214 62.8284 14.1716C63.5785 14.9217 64 15.9391 64 17C64 18.0608 63.5785 19.0783 62.8284 19.8284C62.0782 20.5785 61.0608 21 60 21Z" fill="#D21987"/>
</svg>
