<svg width="52" height="52" viewBox="0 0 52 52" fill="none" xmlns="http://www.w3.org/2000/svg">
<path d="M47.4067 25.652L26.7761 5.18895C26.6276 5.04121 26.4511 4.924 26.2569 4.84403C26.0627 4.76406 25.8545 4.7229 25.6442 4.7229C25.4339 4.7229 25.2257 4.76406 25.0314 4.84403C24.8372 4.924 24.6608 5.04121 24.5122 5.18895L3.88169 25.652C3.28065 26.2486 2.94006 27.059 2.94006 27.9041C2.94006 29.6591 4.37754 31.086 6.14558 31.086H8.31933V45.6875C8.31933 46.5675 9.03556 47.2784 9.92209 47.2784H22.4387V36.1421H28.0483V47.2784H41.3663C42.2528 47.2784 42.969 46.5675 42.969 45.6875V31.086H45.1428C45.9942 31.086 46.8106 30.7529 47.4117 30.1513C48.6588 28.9084 48.6588 26.8949 47.4067 25.652Z" fill="#FFFBDF"/>
</svg>
