<svg width="32" height="32" viewBox="0 0 70 70" fill="none" xmlns="http://www.w3.org/2000/svg">
<path d="M35.1895 26.346C30.2474 26.346 26.2142 30.3974 26.2142 35.3618C26.2142 40.3263 30.2474 44.3776 35.1895 44.3776C40.1316 44.3776 44.1648 40.3263 44.1648 35.3618C44.1648 30.3974 40.1316 26.346 35.1895 26.346ZM62.1086 35.3618C62.1086 31.6284 62.1423 27.9287 61.9335 24.202C61.7248 19.8733 60.7418 16.0316 57.5907 12.8663C54.4328 9.69418 50.6151 8.71346 46.3059 8.50379C42.5892 8.29412 38.9062 8.32794 35.1962 8.32794C31.4795 8.32794 27.7965 8.29412 24.0865 8.50379C19.7773 8.71346 15.9529 9.70094 12.8018 12.8663C9.64396 16.0384 8.66765 19.8733 8.45892 24.202C8.2502 27.9355 8.28386 31.6351 8.28386 35.3618C8.28386 39.0885 8.2502 42.795 8.45892 46.5217C8.66765 50.8503 9.65069 54.692 12.8018 57.8574C15.9596 61.0295 19.7773 62.0102 24.0865 62.2199C27.8032 62.4295 31.4863 62.3957 35.1962 62.3957C38.9129 62.3957 42.596 62.4295 46.3059 62.2199C50.6151 62.0102 54.4395 61.0227 57.5907 57.8574C60.7485 54.6853 61.7248 50.8503 61.9335 46.5217C62.149 42.795 62.1086 39.0953 62.1086 35.3618ZM35.1895 49.2339C27.5474 49.2339 21.3798 43.0385 21.3798 35.3618C21.3798 27.6852 27.5474 21.4898 35.1895 21.4898C42.8316 21.4898 48.9992 27.6852 48.9992 35.3618C48.9992 43.0385 42.8316 49.2339 35.1895 49.2339ZM49.5648 24.1614C47.7805 24.1614 46.3396 22.714 46.3396 20.9217C46.3396 19.1293 47.7805 17.6819 49.5648 17.6819C51.349 17.6819 52.7899 19.1293 52.7899 20.9217C52.7905 21.3473 52.7074 21.7688 52.5455 22.1621C52.3836 22.5554 52.1461 22.9127 51.8465 23.2137C51.5469 23.5146 51.1911 23.7533 50.7996 23.9159C50.4081 24.0785 49.9884 24.1619 49.5648 24.1614Z" fill="#FFFBDF"/>
</svg>
