<svg width="80" height="64" viewBox="0 0 80 64" fill="none" xmlns="http://www.w3.org/2000/svg">
<path d="M40 32L10.16 20.08L12 64H4L5.92 18.36L0 16L40 0L80 16L40 32ZM40 12C37.8 12 36 12.88 36 14C36 15.12 37.8 16 40 16C42.2 16 44 15.12 44 14C44 12.88 42.2 12 40 12ZM40 36L62.28 27.08C65.12 30.84 67.08 35.36 67.72 40.28C66.52 40.12 65.28 40 64 40C53.8 40 44.88 45.48 40 53.64C37.523 49.483 34.009 46.0405 29.8019 43.6495C25.5949 41.2585 20.839 40.0009 16 40C14.72 40 13.48 40.12 12.28 40.28C12.92 35.36 14.88 30.84 17.72 27.08L40 36Z" fill="#D21987"/>
</svg>
