<svg width="48" height="48" viewBox="0 0 48 48" fill="none" xmlns="http://www.w3.org/2000/svg">
<path d="M27 7.49985C27 7.20483 26.9129 6.91636 26.7498 6.67055C26.5867 6.42473 26.3547 6.23248 26.0828 6.11785C25.811 6.00322 25.5114 5.97131 25.2215 6.02609C24.9316 6.08087 24.6643 6.21993 24.453 6.42585L15.672 14.9759H10.5C9.30653 14.9759 8.16193 15.45 7.31802 16.2939C6.47411 17.1378 6 18.2824 6 19.4759V28.4459C6 29.6393 6.47411 30.7839 7.31802 31.6278C8.16193 32.4717 9.30653 32.9459 10.5 32.9459H15.669L24.45 41.5709C24.6609 41.7776 24.9282 41.9175 25.2184 41.973C25.5085 42.0284 25.8085 41.997 26.0808 41.8826C26.3532 41.7682 26.5857 41.576 26.7492 41.33C26.9127 41.084 27 40.7952 27 40.4999V7.49985ZM30.441 18.4379C30.7223 18.1566 31.1038 17.9987 31.5015 17.9987C31.8992 17.9987 32.2807 18.1566 32.562 18.4379L36.003 21.8789L39.441 18.4379C39.7227 18.1566 40.1045 17.9987 40.5026 17.999C40.9006 17.9993 41.2822 18.1577 41.5635 18.4394C41.8448 18.721 42.0026 19.1029 42.0023 19.5009C42.0021 19.899 41.8437 20.2806 41.562 20.5619L38.124 23.9999L41.562 27.4379C41.7015 27.5771 41.8121 27.7425 41.8877 27.9245C41.9632 28.1066 42.0022 28.3017 42.0023 28.4988C42.0025 28.6959 41.9638 28.8911 41.8885 29.0732C41.8132 29.2554 41.7028 29.4209 41.5635 29.5604C41.4242 29.6998 41.2589 29.8105 41.0768 29.886C40.8948 29.9616 40.6997 30.0005 40.5026 30.0007C40.3055 30.0008 40.1103 29.9621 39.9281 29.8868C39.746 29.8116 39.5805 29.7011 39.441 29.5619L36 26.1209L32.559 29.5619C32.2773 29.8431 31.8955 30.001 31.4974 30.0007C31.0994 30.0004 30.7178 29.842 30.4365 29.5604C30.1552 29.2787 29.9974 28.8968 29.9977 28.4988C29.9979 28.1007 30.1563 27.7191 30.438 27.4379L33.879 23.9999L30.441 20.5619C30.3013 20.4225 30.1905 20.257 30.1149 20.0748C30.0392 19.8925 30.0003 19.6972 30.0003 19.4999C30.0003 19.3026 30.0392 19.1072 30.1149 18.925C30.1905 18.7427 30.3013 18.5772 30.441 18.4379Z" fill="#FFFBDF"/>
</svg>
