<svg width="40" height="40" viewBox="0 0 40 40" fill="none" xmlns="http://www.w3.org/2000/svg">
<g clip-path="url(#clip0_141_867)">
<path d="M40 20C40 25.3043 37.8929 30.3914 34.1421 34.1421C30.3914 37.8929 25.3043 40 20 40C14.6957 40 9.60859 37.8929 5.85786 34.1421C2.10714 30.3914 0 25.3043 0 20C0 14.6957 2.10714 9.60859 5.85786 5.85786C9.60859 2.10714 14.6957 0 20 0C25.3043 0 30.3914 2.10714 34.1421 5.85786C37.8929 9.60859 40 14.6957 40 20V20ZM15.625 12.5C13.9 12.5 12.5 13.9 12.5 15.625V24.375C12.5 25.2038 12.8292 25.9987 13.4153 26.5847C14.0013 27.1708 14.7962 27.5 15.625 27.5C16.4538 27.5 17.2487 27.1708 17.8347 26.5847C18.4208 25.9987 18.75 25.2038 18.75 24.375V15.625C18.75 13.9 17.35 12.5 15.625 12.5ZM24.375 12.5C22.65 12.5 21.25 13.9 21.25 15.625V24.375C21.25 25.2038 21.5792 25.9987 22.1653 26.5847C22.7513 27.1708 23.5462 27.5 24.375 27.5C25.2038 27.5 25.9987 27.1708 26.5847 26.5847C27.1708 25.9987 27.5 25.2038 27.5 24.375V15.625C27.5 13.9 26.1 12.5 24.375 12.5Z" fill="#FFFBDF"/>
</g>
<defs>
<clipPath id="clip0_141_867">
<rect width="40" height="40" fill="white"/>
</clipPath>
</defs>
</svg>
