<svg width="79" height="72" viewBox="0 0 79 72" fill="none" xmlns="http://www.w3.org/2000/svg">
<g clip-path="url(#clip0_86_1000)">
<path d="M8.09131 13.8662V69.1318C8.09171 69.2517 8.13041 69.3689 8.20257 69.4685C8.27473 69.5682 8.37712 69.6459 8.49691 69.692C8.61671 69.7381 8.74857 69.7505 8.87596 69.7277C9.00335 69.7048 9.1206 69.6477 9.21301 69.5635L40.3573 41.5004L9.21301 13.4345C9.1206 13.3503 9.00335 13.2932 8.87596 13.2703C8.74857 13.2475 8.61671 13.2599 8.49691 13.306C8.37712 13.3521 8.27473 13.4299 8.20257 13.5295C8.13041 13.6292 8.09171 13.7463 8.09131 13.8662ZM53.4159 29.9692L14.3649 10.0904L14.3406 10.0778C13.6678 9.74026 13.0286 10.5812 13.5796 11.0706L44.1912 38.1156L53.4159 29.9692ZM13.5826 71.9303C13.0286 72.4196 13.6679 73.2606 14.3436 72.9231L14.368 72.9104L53.4159 53.0317L44.1912 44.8824L13.5826 71.9303ZM69.1806 37.9848L58.2756 32.4357L48.022 41.5004L58.2756 50.5609L69.1806 45.016C72.147 43.5015 72.147 39.4993 69.1806 37.9848Z" fill="#FFFBDF"/>
</g>
<defs>
<clipPath id="clip0_86_1000">
<rect width="77.9255" height="72" fill="white" transform="translate(0.785767)"/>
</clipPath>
</defs>
</svg>
