<svg width="70" height="56" viewBox="0 0 70 56" fill="none" xmlns="http://www.w3.org/2000/svg">
<path d="M67.5 0.578128H49.625C45.7891 0.578128 42.0391 1.67969 38.8125 3.75782L35 6.20313L31.1875 3.75782C27.9641 1.68009 24.21 0.576077 20.375 0.578128H2.5C1.11719 0.578128 0 1.69532 0 3.07813V47.4531C0 48.8359 1.11719 49.9531 2.5 49.9531H20.375C24.2109 49.9531 27.9609 51.0547 31.1875 53.1328L34.6563 55.3672C34.7578 55.4297 34.875 55.4688 34.9922 55.4688C35.1094 55.4688 35.2266 55.4375 35.3281 55.3672L38.7969 53.1328C42.0312 51.0547 45.7891 49.9531 49.625 49.9531H67.5C68.8828 49.9531 70 48.8359 70 47.4531V3.07813C70 1.69532 68.8828 0.578128 67.5 0.578128ZM26.5625 31.2422C26.5625 31.5625 26.3125 31.8281 26.0078 31.8281H11.4922C11.1875 31.8281 10.9375 31.5625 10.9375 31.2422V27.7266C10.9375 27.4063 11.1875 27.1406 11.4922 27.1406H26C26.3047 27.1406 26.5547 27.4063 26.5547 27.7266V31.2422H26.5625ZM26.5625 20.3047C26.5625 20.625 26.3125 20.8906 26.0078 20.8906H11.4922C11.1875 20.8906 10.9375 20.625 10.9375 20.3047V16.7891C10.9375 16.4688 11.1875 16.2031 11.4922 16.2031H26C26.3047 16.2031 26.5547 16.4688 26.5547 16.7891V20.3047H26.5625ZM59.0625 31.2422C59.0625 31.5625 58.8125 31.8281 58.5078 31.8281H43.9922C43.6875 31.8281 43.4375 31.5625 43.4375 31.2422V27.7266C43.4375 27.4063 43.6875 27.1406 43.9922 27.1406H58.5C58.8047 27.1406 59.0547 27.4063 59.0547 27.7266V31.2422H59.0625ZM59.0625 20.3047C59.0625 20.625 58.8125 20.8906 58.5078 20.8906H43.9922C43.6875 20.8906 43.4375 20.625 43.4375 20.3047V16.7891C43.4375 16.4688 43.6875 16.2031 43.9922 16.2031H58.5C58.8047 16.2031 59.0547 16.4688 59.0547 16.7891V20.3047H59.0625Z" fill="#D21987"/>
</svg>
