<svg width="32" height="32" viewBox="0 0 40 40" fill="none" xmlns="http://www.w3.org/2000/svg">
<path d="M15 26.6666C17.9384 26.6666 20.6167 25.5666 22.6717 23.7683L24.9 28.435C24.9 28.435 25.3584 28.8083 25.9884 29.4283C26.6334 30.0333 27.4817 30.8516 28.295 31.7066L30.5584 34.0266L31.565 35.1033L35.1 31.5683L34.0234 30.5616L31.7034 28.2983C30.9228 27.5506 30.163 26.7814 29.425 25.9916C28.805 25.3616 28.4317 24.9033 28.4317 24.9033L23.765 22.675C25.6341 20.555 26.6657 17.8262 26.6667 15C26.6667 8.56831 21.4317 3.33331 15 3.33331C8.56837 3.33331 3.33337 8.56831 3.33337 15C3.33337 21.4316 8.56837 26.6666 15 26.6666Z" fill="#181818"/>
</svg>
