<svg width="32" height="32" viewBox="0 0 70 70" fill="none" xmlns="http://www.w3.org/2000/svg">
<path d="M68.9113 14.9796C66.5125 16.0473 63.9356 16.7688 61.2266 17.0949C64.0218 15.4148 66.1131 12.7704 67.1101 9.65534C64.4839 11.2223 61.6097 12.3252 58.6123 12.9163C56.5967 10.7544 53.927 9.32153 51.0176 8.84003C48.1082 8.35853 45.1219 8.85537 42.5224 10.2534C39.9229 11.6515 37.8557 13.8725 36.6415 16.5717C35.4274 19.2709 35.1344 22.2972 35.808 25.1808C30.4867 24.9124 25.281 23.5231 20.5288 21.103C15.7765 18.6828 11.584 15.286 8.2233 11.1329C7.07418 13.124 6.41344 15.4327 6.41344 17.8914C6.41215 20.1047 6.95477 22.2842 7.99313 24.2364C9.03149 26.1886 10.5335 27.8532 12.3659 29.0824C10.2408 29.0145 8.16261 28.4377 6.30427 27.4V27.5731C6.30405 30.6775 7.37305 33.6863 9.32986 36.0891C11.2867 38.4918 14.0108 40.1405 17.0399 40.7554C15.0686 41.2913 13.0018 41.3703 10.9956 40.9862C11.8502 43.6574 13.515 45.9931 15.7569 47.6666C17.9987 49.3401 20.7054 50.2674 23.498 50.3189C18.7574 54.0571 12.9028 56.0849 6.87596 56.076C5.80837 56.0763 4.74168 56.0136 3.6814 55.8884C9.79897 59.8396 16.9203 61.9365 24.1932 61.9283C48.8132 61.9283 62.2723 41.4451 62.2723 23.6802C62.2723 23.1031 62.2579 22.5201 62.2321 21.943C64.85 20.0412 67.1098 17.6862 68.9056 14.9883L68.9113 14.9796Z" fill="#FFFBDF"/>
</svg>
