<svg width="40" height="40" viewBox="0 0 40 40" fill="none" xmlns="http://www.w3.org/2000/svg">
<path fill-rule="evenodd" clip-rule="evenodd" d="M18.9075 5.17249C19.2333 5.32212 19.5094 5.56202 19.703 5.86377C19.8967 6.16552 19.9997 6.51646 20 6.87499V33.125C20.0002 33.4837 19.8976 33.8349 19.7042 34.1369C19.5109 34.439 19.235 34.6793 18.9092 34.8293C18.5834 34.9793 18.2214 35.0327 17.8662 34.9832C17.5109 34.9337 17.1774 34.7834 16.905 34.55L8.68 27.5H4.375C3.21468 27.5 2.10188 27.0391 1.28141 26.2186C0.460936 25.3981 0 24.2853 0 23.125L0 16.875C0 14.46 1.96 12.5 4.375 12.5H8.6825L16.905 5.44999C17.1774 5.21725 17.5108 5.06742 17.8656 5.01824C18.2205 4.96906 18.5821 5.02259 18.9075 5.17249V5.17249ZM16.25 10.95L10.595 15.7975C10.2554 16.0891 9.82264 16.2496 9.375 16.25H4.375C4.20924 16.25 4.05027 16.3158 3.93306 16.433C3.81585 16.5503 3.75 16.7092 3.75 16.875V23.125C3.75 23.47 4.03 23.75 4.375 23.75H9.375C9.82233 23.7497 10.255 23.9093 10.595 24.2L16.25 29.05V10.95ZM31.49 5.85499C31.8416 5.50386 32.3181 5.30664 32.815 5.30664C33.3119 5.30664 33.7884 5.50386 34.14 5.85499C35.9973 7.71217 37.4706 9.917 38.4757 12.3436C39.4809 14.7702 39.9982 17.371 39.9982 19.9975C39.9982 22.624 39.4809 25.2248 38.4757 27.6514C37.4706 30.078 35.9973 32.2828 34.14 34.14C33.7846 34.4712 33.3144 34.6515 32.8287 34.6429C32.3429 34.6344 31.8795 34.4376 31.5359 34.094C31.1924 33.7505 30.9956 33.287 30.9871 32.8013C30.9785 32.3155 31.1588 31.8454 31.49 31.49C32.9992 29.981 34.1963 28.1895 35.0131 26.2178C35.8299 24.2462 36.2503 22.1329 36.2503 19.9987C36.2503 17.8646 35.8299 15.7513 35.0131 13.7796C34.1963 11.808 32.9992 10.0165 31.49 8.50749C31.1389 8.15592 30.9417 7.67936 30.9417 7.18249C30.9417 6.68561 31.1389 6.20905 31.49 5.85749V5.85499V5.85499ZM28.84 11.1575C28.4883 10.8057 28.0112 10.6081 27.5137 10.6081C27.0163 10.6081 26.5392 10.8057 26.1875 11.1575C25.8358 11.5092 25.6381 11.9863 25.6381 12.4837C25.6381 12.9812 25.8358 13.4582 26.1875 13.81C27.0001 14.6225 27.6447 15.5871 28.0845 16.6488C28.5243 17.7105 28.7506 18.8483 28.7506 19.9975C28.7506 21.1466 28.5243 22.2845 28.0845 23.3462C27.6447 24.4078 27.0001 25.3725 26.1875 26.185C26.0033 26.3566 25.8555 26.5636 25.753 26.7936C25.6506 27.0236 25.5955 27.2719 25.591 27.5237C25.5866 27.7754 25.6329 28.0255 25.7272 28.259C25.8215 28.4925 25.9619 28.7045 26.1399 28.8826C26.3179 29.0606 26.53 29.201 26.7635 29.2953C26.997 29.3896 27.247 29.4359 27.4988 29.4315C27.7506 29.427 27.9988 29.3719 28.2288 29.2694C28.4588 29.167 28.6658 29.0192 28.8375 28.835C31.1809 26.4909 32.4973 23.312 32.4973 19.9975C32.4973 16.6829 31.1809 13.5041 28.8375 11.16L28.84 11.1575Z" fill="white"/>
</svg>
