<svg width="40" height="40" viewBox="0 0 40 40" fill="none" xmlns="http://www.w3.org/2000/svg">
<g clip-path="url(#clip0_141_944)">
<path d="M14.8999 21.5668C15.3534 21.1154 15.9628 20.8551 16.6024 20.8394C17.2421 20.8237 17.8635 21.054 18.3385 21.4827C18.8136 21.9114 19.1061 22.5059 19.156 23.1438C19.2059 23.7818 19.0092 24.4145 18.6066 24.9118L18.4349 25.1018L11.8666 31.6668H14.1666C14.8086 31.6671 15.4259 31.9145 15.8906 32.3575C16.3552 32.8006 16.6316 33.4054 16.6625 34.0467C16.6933 34.688 16.4763 35.3165 16.0563 35.8022C15.6363 36.2878 15.0456 36.5932 14.4066 36.6552L14.1666 36.6668H5.83325C5.21178 36.6668 4.6126 36.4353 4.15255 36.0175C3.69251 35.5996 3.40458 35.0254 3.34492 34.4068L3.33325 34.1668V25.8335C3.33357 25.1915 3.58088 24.5742 4.02393 24.1095C4.46699 23.6449 5.07182 23.3685 5.71311 23.3376C6.3544 23.3068 6.98297 23.5238 7.46859 23.9438C7.9542 24.3638 8.25963 24.9545 8.32159 25.5935L8.33325 25.8335V28.1318L14.8999 21.5652V21.5668ZM34.1666 3.3335C34.7881 3.33353 35.3872 3.56503 35.8473 3.98286C36.3073 4.40069 36.5953 4.9749 36.6549 5.5935L36.6666 5.8335V14.1668C36.6663 14.8089 36.419 15.4262 35.9759 15.8908C35.5328 16.3555 34.928 16.6318 34.2867 16.6627C33.6454 16.6936 33.0169 16.4765 32.5312 16.0565C32.0456 15.6366 31.7402 15.0459 31.6783 14.4068L31.6666 14.1668V11.8685L25.0999 18.4352C24.6469 18.8898 24.0365 19.1528 23.395 19.1697C22.7534 19.1867 22.1299 18.9562 21.6536 18.5262C21.1773 18.0961 20.8846 17.4993 20.8361 16.8594C20.7876 16.2195 20.9871 15.5854 21.3933 15.0885L21.5649 14.8985L28.1332 8.3335H25.8333C25.1912 8.33318 24.5739 8.08587 24.1093 7.64281C23.6446 7.19976 23.3682 6.59492 23.3374 5.95364C23.3065 5.31235 23.5236 4.68378 23.9435 4.19816C24.3635 3.71254 24.9542 3.40712 25.5933 3.34516L25.8333 3.3335H34.1666Z" fill="#FFFBDF"/>
</g>
<defs>
<clipPath id="clip0_141_944">
<rect width="40" height="40" fill="white"/>
</clipPath>
</defs>
</svg>
