<svg width="225" height="32" viewBox="0 0 225 32" fill="none" xmlns="http://www.w3.org/2000/svg">
<path opacity="0.7" d="M45.1903 21.3188C43.0965 22.1653 38.9313 24.853 27.7793 31.7906C26.8276 30.8045 19.057 22.7674 16.9072 20.1494C16.6385 20.4985 16.325 20.865 16.325 20.865C14.0072 23.0466 8.66633 27.9596 5.6208 29.321C4.08684 30.0016 2.76561 27.7938 1.72431 25.3242C1.28763 24.2771 0.727792 22.7848 0.403085 21.6329C-0.167953 19.6346 -0.235134 18.8056 0.783776 17.8195C0.929335 17.6798 3.60537 15.7687 4.84822 14.643C6.84125 12.8367 8.26325 11.3881 8.92386 10.6899C10.4354 9.08427 9.4837 10.1925 11.7007 7.67058C13.6489 5.46278 15.7427 3.01936 17.9821 0.44505C18.6091 1.3177 27.9249 14.486 30.2314 16.2487C30.2986 16.2051 36.2441 12.1473 40.6668 8.97955C40.9579 8.8661 41.3274 8.60431 41.7193 8.26398C42.1224 7.91492 42.5479 7.47859 42.9846 7.051C43.8467 6.1958 44.7089 5.34933 45.0336 5.33188C45.2575 5.29697 47.3289 3.80475 50.576 1.45732C55.7713 7.89746 56.152 8.50832 58.7833 10.9692C59.0184 11.1873 60.0597 12.1211 60.362 12.3741C61.84 13.6482 64.3033 15.6029 64.4489 15.6902C69.1179 12.3305 76.6198 5.7333 80.3483 2.5045C86.7529 9.34606 87.3464 10.2536 92.5753 14.643C92.6536 14.7128 92.6313 14.6954 92.788 14.8176C92.8552 14.8699 93.2135 15.1492 93.2919 15.1753C93.9973 14.3027 98.3752 9.43332 104.746 4.2498C108.822 0.959913 109.057 0.724298 110.177 0C111.912 2.39978 111.151 1.87619 112.741 3.92692C115.014 6.87647 114.252 6.03872 116.906 8.76139C117.007 8.8661 119.123 10.6201 119.246 10.7248C120.366 11.5539 121.105 12.1211 122.493 13.081C123.602 13.8489 123.904 14.0496 123.904 14.0496C124.005 14.1194 124.441 14.4249 124.553 14.4598C125.617 13.5871 137.71 3.0979 141.864 0.0436324C149.668 9.05809 149.276 8.06327 155.255 13.369L155.412 13.5086C155.468 13.5522 155.423 13.5348 155.434 13.5435C155.423 13.7529 155.658 13.9798 155.848 14.1282C157.987 12.9588 170.471 2.00709 171.726 0.907554C176.518 5.91655 178.097 7.65312 180.694 9.93946C183.773 12.6621 188.33 16.2051 187.625 15.3324C187.759 15.2015 187.692 15.2452 187.58 15.4459C187.569 15.4546 187.591 15.507 187.647 15.6117C187.681 15.6989 187.726 15.6466 187.793 15.6379C187.86 15.6204 187.939 15.5942 188.028 15.5593C194.679 10.8121 193.727 11.5015 194.634 10.847C195.922 9.92201 195.351 10.3147 197.377 8.8661C197.411 8.83992 198.855 7.80147 198.9 7.8102C199.259 7.8102 200.255 7.17317 201.162 6.34415C201.531 6.00382 203.715 4.2498 206.895 1.82383C211.62 6.98991 217.14 13.5435 223.914 18.0027C224.765 18.5699 225.011 18.6921 224.989 18.823C224.709 19.6608 223.466 21.5544 220.969 22.907C218.528 24.2247 215.192 24.8617 213.109 24.5301C210.78 24.1636 207.13 20.6992 205.73 19.2855C205.641 19.1983 205.327 18.8928 205.271 18.7881C205.182 18.5525 205.126 18.3954 204.969 18.1162C204.431 18.1162 199.807 22.1565 199.46 22.4707C199.337 22.558 187.289 31.5462 187.211 31.4328C185.151 29.7748 172.375 19.5473 170.796 17.61C170.796 17.61 165.175 21.982 156.084 28.5443C149.354 23.9978 149.13 23.7622 147.272 22.4096C146.566 21.8947 146.242 21.6329 145.581 21.1355C144.237 20.2105 143.465 19.6608 142.2 18.7096C141.819 18.4216 141.349 18.0638 141.001 17.802C140.946 17.7671 140.901 17.7235 140.845 17.6886C140.666 17.5839 140.733 17.6188 140.554 17.5228C140.509 17.4966 140.453 17.4617 140.442 17.4704C140.274 17.4617 140.184 17.514 140.151 17.5664C140.184 17.261 140.128 17.2523 140.095 17.4442C140.072 17.549 140.072 17.6624 140.095 17.7409C140.106 17.8107 140.139 17.8369 140.106 17.8107C140.106 17.8107 139.927 17.8457 139.68 17.8195C137.654 18.1511 127.711 27.9596 126.513 29.1639C116.044 23.8233 109.247 18.4478 108.654 17.5053C108.598 17.3133 108.06 17.7933 107.881 17.9416C106.157 19.5299 102.272 23.7535 101.477 24.6349C99.215 27.1132 97.0428 29.6264 94.9602 32C94.7922 31.8953 94.6131 31.7557 94.4339 31.616L93.9077 31.1972C84.8047 23.9629 79.8557 19.844 79.8557 19.844C79.6429 19.7742 79.5198 19.8178 79.4302 19.9487C79.4526 19.8004 79.419 19.6346 79.3406 19.4426C79.2735 19.399 79.1503 19.4601 79.0271 19.5211C78.9599 19.556 78.8928 19.5997 78.8144 19.652L78.6912 19.7306C78.6576 19.7568 78.5457 19.844 78.5457 19.844L78.0418 20.2367C71.1222 25.6471 70.2936 26.1707 64.6616 30.342C60.4628 27.532 55.0995 24.1025 48.7509 18.8492C48.639 18.7968 48.4822 18.727 48.3814 18.7358C48.2807 18.8666 48.2471 18.9975 48.2471 19.0499C48.7733 18.7707 45.6382 21.0046 45.1903 21.3188Z" fill="#D21987"/>
</svg>
