<svg width="229" height="142" viewBox="0 0 229 142" fill="none" xmlns="http://www.w3.org/2000/svg">
<g clip-path="url(#clip0_87_537)">
<path d="M98.6519 112.566V88.8623L229 88.8623V112.566H98.6519Z" fill="#930E00"/>
<path d="M98.6519 142V119.105L0 59.6846L0 82.5823L98.6519 142Z" fill="#AD1A02"/>
<path d="M98.652 119.369L98.652 88.8621L229 88.8621V30.5037L98.652 30.5037V0L0 59.6847L98.652 119.369Z" fill="#E02A00"/>
<path d="M117.261 69.2095C116.258 69.2095 115.49 68.9535 114.957 68.4415C114.445 67.9081 114.189 67.1508 114.189 66.1695V49.6895C114.189 48.7081 114.445 47.9615 114.957 47.4495C115.49 46.9161 116.258 46.6495 117.261 46.6495H125.069C126.69 46.6495 128.066 46.8948 129.197 47.3855C130.349 47.8548 131.223 48.5268 131.821 49.4015C132.418 50.2761 132.717 51.3001 132.717 52.4735C132.717 53.7961 132.333 54.9268 131.565 55.8655C130.818 56.8041 129.794 57.4441 128.493 57.7855V57.2735C130.029 57.5508 131.213 58.1695 132.045 59.1295C132.898 60.0895 133.325 61.3161 133.325 62.8095C133.325 64.7935 132.61 66.3615 131.181 67.5135C129.773 68.6441 127.842 69.2095 125.389 69.2095H117.261ZM119.821 64.8895H124.589C125.677 64.8895 126.466 64.6868 126.957 64.2815C127.469 63.8548 127.725 63.2255 127.725 62.3935C127.725 61.5615 127.469 60.9428 126.957 60.5375C126.466 60.1321 125.677 59.9295 124.589 59.9295H119.821V64.8895ZM119.821 55.6095H124.013C125.079 55.6095 125.858 55.4175 126.349 55.0335C126.861 54.6495 127.117 54.0628 127.117 53.2735C127.117 52.4841 126.861 51.9081 126.349 51.5455C125.858 51.1615 125.079 50.9695 124.013 50.9695H119.821V55.6095ZM141.745 69.5615C140.529 69.5615 139.452 69.3375 138.513 68.8895C137.596 68.4415 136.871 67.8335 136.337 67.0655C135.825 66.2761 135.569 65.3801 135.569 64.3775C135.569 63.2255 135.868 62.3188 136.465 61.6575C137.063 60.9961 138.023 60.5268 139.345 60.2495C140.668 59.9508 142.428 59.8015 144.625 59.8015H146.385V62.4895H144.625C143.793 62.4895 143.1 62.5535 142.545 62.6815C142.012 62.7881 141.617 62.9695 141.361 63.2255C141.105 63.4601 140.977 63.7695 140.977 64.1535C140.977 64.6441 141.148 65.0495 141.489 65.3695C141.852 65.6895 142.364 65.8495 143.025 65.8495C143.559 65.8495 144.028 65.7321 144.433 65.4975C144.86 65.2628 145.201 64.9428 145.457 64.5375C145.713 64.1108 145.841 63.6201 145.841 63.0655V59.3535C145.841 58.5855 145.639 58.0415 145.233 57.7215C144.849 57.4015 144.177 57.2415 143.217 57.2415C142.705 57.2415 142.129 57.3055 141.489 57.4335C140.849 57.5401 140.135 57.7428 139.345 58.0415C138.769 58.2548 138.279 58.2868 137.873 58.1375C137.468 57.9881 137.148 57.7321 136.913 57.3695C136.7 57.0068 136.593 56.6121 136.593 56.1855C136.615 55.7588 136.753 55.3535 137.009 54.9695C137.287 54.5855 137.703 54.2868 138.257 54.0735C139.281 53.6895 140.22 53.4335 141.073 53.3055C141.948 53.1775 142.748 53.1135 143.473 53.1135C145.223 53.1135 146.663 53.3695 147.793 53.8815C148.945 54.3721 149.799 55.1401 150.353 56.1855C150.929 57.2095 151.217 58.5321 151.217 60.1535V66.6175C151.217 67.5561 150.993 68.2708 150.545 68.7615C150.097 69.2521 149.447 69.4975 148.593 69.4975C147.719 69.4975 147.047 69.2521 146.577 68.7615C146.129 68.2708 145.905 67.5561 145.905 66.6175V65.7855L146.097 66.2335C145.991 66.9161 145.745 67.5028 145.361 67.9935C144.977 68.4841 144.476 68.8681 143.857 69.1455C143.239 69.4228 142.535 69.5615 141.745 69.5615ZM162.493 69.5615C160.722 69.5615 159.176 69.2308 157.853 68.5695C156.552 67.9081 155.538 66.9588 154.813 65.7215C154.088 64.4628 153.725 62.9908 153.725 61.3055C153.725 60.0255 153.928 58.8841 154.333 57.8815C154.738 56.8575 155.325 55.9935 156.093 55.2895C156.882 54.5855 157.81 54.0521 158.877 53.6895C159.965 53.3055 161.17 53.1135 162.493 53.1135C163.112 53.1135 163.762 53.1775 164.445 53.3055C165.128 53.4121 165.832 53.6255 166.557 53.9455C167.069 54.1375 167.421 54.4361 167.613 54.8415C167.826 55.2255 167.912 55.6415 167.869 56.0895C167.848 56.5375 167.72 56.9428 167.485 57.3055C167.272 57.6681 166.962 57.9135 166.557 58.0415C166.173 58.1695 165.736 58.1161 165.245 57.8815C164.904 57.7108 164.541 57.5935 164.157 57.5295C163.794 57.4441 163.442 57.4015 163.101 57.4015C162.525 57.4015 162.013 57.4868 161.565 57.6575C161.138 57.8281 160.776 58.0841 160.477 58.4255C160.178 58.7455 159.944 59.1508 159.773 59.6415C159.624 60.1321 159.549 60.6868 159.549 61.3055C159.549 62.5428 159.858 63.5135 160.477 64.2175C161.096 64.9215 161.97 65.2735 163.101 65.2735C163.442 65.2735 163.794 65.2415 164.157 65.1775C164.52 65.0921 164.882 64.9641 165.245 64.7935C165.736 64.5588 166.173 64.5161 166.557 64.6655C166.941 64.7935 167.25 65.0388 167.485 65.4015C167.72 65.7641 167.848 66.1695 167.869 66.6175C167.89 67.0441 167.794 67.4601 167.581 67.8655C167.368 68.2495 167.005 68.5375 166.493 68.7295C165.789 69.0495 165.096 69.2628 164.413 69.3695C163.752 69.4975 163.112 69.5615 162.493 69.5615ZM172.777 69.4975C171.881 69.4975 171.188 69.2521 170.697 68.7615C170.206 68.2708 169.961 67.5561 169.961 66.6175V49.2415C169.961 48.3028 170.206 47.5881 170.697 47.0975C171.188 46.6068 171.881 46.3615 172.777 46.3615C173.694 46.3615 174.398 46.6068 174.889 47.0975C175.401 47.5881 175.657 48.3028 175.657 49.2415V59.8015H175.721L179.625 55.0655C180.158 54.4255 180.649 53.9561 181.097 53.6575C181.566 53.3375 182.196 53.1775 182.985 53.1775C183.774 53.1775 184.382 53.3695 184.809 53.7535C185.236 54.1375 185.46 54.6175 185.481 55.1935C185.502 55.7695 185.268 56.3455 184.777 56.9215L180.553 61.9135V59.9295L185.289 65.8815C185.758 66.4788 185.95 67.0655 185.865 67.6415C185.78 68.1961 185.502 68.6441 185.033 68.9855C184.585 69.3268 184.009 69.4975 183.305 69.4975C182.452 69.4975 181.769 69.3481 181.257 69.0495C180.745 68.7295 180.233 68.2388 179.721 67.5775L175.721 62.6495H175.657V66.6175C175.657 68.5375 174.697 69.4975 172.777 69.4975Z" fill="#FFFBDF"/>
</g>
<defs>
<clipPath id="clip0_87_537">
<rect width="142" height="229" fill="white" transform="matrix(0 1 1 0 0 0)"/>
</clipPath>
</defs>
</svg>
