<svg width="224" height="676" viewBox="0 0 224 676" fill="none" xmlns="http://www.w3.org/2000/svg">
<path d="M196 323.119H190V325.34H178V323.119H172V356.431H178V354.21H190V356.431H196V323.119ZM176 325.34V327.561H174V325.34H176ZM194 325.34V327.561H192V325.34H194ZM190 327.561V338.665H178V327.561H190ZM176 329.782V332.002H174V329.782H176ZM194 329.782V332.002H192V329.782H194ZM176 334.223V336.444H174V334.223H176ZM194 334.223V336.444H192V334.223H194ZM176 338.665V340.885H174V338.665H176ZM194 338.665V340.885H192V338.665H194ZM190 340.885V351.989H178V340.885H190ZM176 343.106V345.327H174V343.106H176ZM194 343.106V345.327H192V343.106H194ZM176 347.548V349.768H174V347.548H176ZM194 347.548V349.768H192V347.548H194ZM176 351.989V354.21H174V351.989H176ZM194 351.989V354.21H192V351.989H194Z" fill="#181818"/>
<path d="M90 465.248H84V467.469H72V465.248H66V498.559H72V496.338H84V498.559H90V465.248ZM70 467.469V469.689H68V467.469H70ZM88 467.469V469.689H86V467.469H88ZM84 469.689V480.793H72V469.689H84ZM70 471.91V474.131H68V471.91H70ZM88 471.91V474.131H86V471.91H88ZM70 476.352V478.572H68V476.352H70ZM88 476.352V478.572H86V476.352H88ZM70 480.793V483.014H68V480.793H70ZM88 480.793V483.014H86V480.793H88ZM84 483.014V494.118H72V483.014H84ZM70 485.235V487.455H68V485.235H70ZM88 485.235V487.455H86V485.235H88ZM70 489.676V491.897H68V489.676H70ZM88 489.676V491.897H86V489.676H88ZM70 494.118V496.338H68V494.118H70ZM88 494.118V496.338H86V494.118H88Z" fill="#181818"/>
<g clip-path="url(#clip0_295_1009)">
<path d="M176.468 78.8368L171.601 82.7331L172.771 84.5345L163.037 92.327L161.867 90.5256L157 94.4219L174.545 121.443L179.412 117.546L178.242 115.745L187.976 107.952L189.146 109.754L194.013 105.858L176.468 78.8368ZM161.414 93.6257L162.584 95.4271L160.962 96.7259L159.792 94.9245L161.414 93.6257ZM176.015 81.937L177.185 83.7383L175.562 85.0371L174.393 83.2357L176.015 81.937ZM173.94 86.3358L179.788 95.3428L170.055 103.135L164.206 94.1284L173.94 86.3358ZM163.754 97.2285L164.923 99.0299L163.301 100.329L162.131 98.5273L163.754 97.2285ZM178.354 85.5397L179.524 87.3411L177.902 88.6399L176.732 86.8385L178.354 85.5397ZM166.093 100.831L167.263 102.633L165.64 103.931L164.471 102.13L166.093 100.831ZM180.694 89.1425L181.863 90.9439L180.241 92.2426L179.071 90.4412L180.694 89.1425ZM168.432 104.434L169.602 106.235L167.98 107.534L166.81 105.733L168.432 104.434ZM183.033 92.7453L184.203 94.5466L182.58 95.8454L181.411 94.044L183.033 92.7453ZM180.958 97.1442L186.806 106.151L177.072 113.944L171.224 104.937L180.958 97.1442ZM170.772 108.037L171.941 109.838L170.319 111.137L169.149 109.336L170.772 108.037ZM185.372 96.348L186.542 98.1494L184.92 99.4482L183.75 97.6468L185.372 96.348ZM173.111 111.64L174.28 113.441L172.658 114.74L171.488 112.938L173.111 111.64ZM187.712 99.9508L188.881 101.752L187.259 103.051L186.089 101.25L187.712 99.9508ZM175.45 115.242L176.62 117.044L174.997 118.342L173.828 116.541L175.45 115.242ZM190.051 103.554L191.221 105.355L189.598 106.654L188.429 104.852L190.051 103.554Z" fill="#181818"/>
</g>
<path d="M32 4.44141H26V6.66216H14V4.44141H8V37.7527H14V35.532H26V37.7527H32V4.44141ZM12 6.66216V8.88291H10V6.66216H12ZM30 6.66216V8.88291H28V6.66216H30ZM26 8.88291V19.9867H14V8.88291H26ZM12 11.1037V13.3244H10V11.1037H12ZM30 11.1037V13.3244H28V11.1037H30ZM12 15.5452V17.7659H10V15.5452H12ZM30 15.5452V17.7659H28V15.5452H30ZM12 19.9867V22.2074H10V19.9867H12ZM30 19.9867V22.2074H28V19.9867H30ZM26 22.2074V33.3112H14V22.2074H26ZM12 24.4282V26.6489H10V24.4282H12ZM30 24.4282V26.6489H28V24.4282H30ZM12 28.8697V31.0904H10V28.8697H12ZM30 28.8697V31.0904H28V28.8697H30ZM12 33.3112V35.532H10V33.3112H12ZM30 33.3112V35.532H28V33.3112H30Z" fill="#181818"/>
<path d="M189.963 238.087L199.265 237.638L195.613 242.061L198.069 244.562L203.314 238.209L209.036 244.033L211.288 241.305L207.304 237.249L216.605 236.8C218.442 236.712 219.87 234.981 219.79 232.942L218.994 212.604C218.914 210.565 217.356 208.978 215.519 209.067L188.878 210.353C187.041 210.442 185.612 212.173 185.692 214.212L186.488 234.55C186.568 236.589 188.127 238.175 189.963 238.087ZM215.664 212.765L216.46 233.103L189.819 234.389L189.019 214.051L215.664 212.765Z" fill="#181818"/>
<path d="M137.963 439.065L147.265 438.616L143.613 443.04L146.069 445.54L151.314 439.187L157.036 445.011L159.288 442.283L155.304 438.228L164.605 437.779C166.442 437.69 167.87 435.959 167.79 433.92L166.994 413.582C166.914 411.543 165.356 409.957 163.519 410.045L136.878 411.332C135.041 411.42 133.612 413.151 133.692 415.19L134.488 435.528C134.568 437.567 136.127 439.153 137.963 439.065ZM163.664 413.743L164.46 434.081L137.819 435.367L137.019 415.03L163.664 413.743Z" fill="#181818"/>
<path d="M17.9634 568.979L27.2647 568.53L23.6126 572.953L26.0694 575.454L31.3142 569.101L37.0357 574.925L39.2878 572.197L35.3037 568.142L44.6049 567.692C46.4415 567.604 47.8702 565.873 47.7903 563.834L46.994 543.496C46.9141 541.457 45.3556 539.871 43.519 539.959L16.8775 541.245C15.0409 541.334 13.6123 543.065 13.6921 545.104L14.4885 565.442C14.5683 567.481 16.1268 569.067 17.9634 568.979ZM43.6638 543.657L44.4601 563.995L17.8187 565.281L17.019 544.943L43.6638 543.657Z" fill="#181818"/>
<g clip-path="url(#clip1_295_1009)">
<path d="M26.7873 95.3949L33.3644 102.711L27.9598 102.706L27.9567 106.407L35.7184 106.414L35.7113 115.033L39.0441 115.036L39.049 109.035L45.6262 116.352C46.9249 117.796 49.0391 117.798 50.3402 116.356L63.3157 101.975C64.6168 100.533 64.6188 98.1854 63.32 96.7407L44.4812 75.784C43.1825 74.3393 41.0682 74.3372 39.7671 75.7792L26.7916 90.1605C25.4905 91.6026 25.4886 93.9502 26.7873 95.3949ZM60.9609 99.3555L47.9853 113.737L29.1465 92.7801L42.1196 78.3962L60.9609 99.3555Z" fill="#181818"/>
</g>
<g clip-path="url(#clip2_295_1009)">
<path d="M168.554 196.05L156.105 184.685C155.91 184.586 155.742 184.434 155.615 184.242L151.342 180.336L163.131 200.826C163.31 201.136 163.37 201.512 163.299 201.872C163.227 202.231 163.03 202.545 162.751 202.743L152.217 210.215C150.82 211.206 149.126 211.541 147.508 211.145C145.889 210.749 144.478 209.655 143.586 208.104L134.164 191.729C133.271 190.178 132.97 188.297 133.327 186.499C133.684 184.702 134.669 183.135 136.066 182.144L146.599 174.671C146.823 174.513 147.076 174.442 147.325 174.453L148.331 173.097C149.384 171.676 150.902 170.777 152.551 170.598C154.201 170.419 155.847 170.975 157.127 172.144L170.644 184.484C171.925 185.653 172.734 187.338 172.895 189.17C173.056 191.002 172.555 192.829 171.503 194.251L170.313 195.86C170.103 196.144 169.799 196.324 169.469 196.359C169.139 196.395 168.81 196.284 168.554 196.05ZM163.167 187.539L169.586 187.218C169.428 187.002 169.25 186.804 169.057 186.628L166.53 184.319L159.998 184.645L163.165 187.536L163.167 187.539ZM170.425 189.949C170.39 189.954 170.355 189.957 170.32 189.958L166.053 190.172L169.176 193.023L169.572 192.488C170.104 191.772 170.405 190.878 170.425 189.949ZM163.643 181.683L160.475 178.792L153.941 179.115L157.109 182.006L163.644 181.686L163.643 181.683ZM149.864 175.396L151.054 176.485L157.587 176.156L155.54 174.288C154.771 173.587 153.784 173.253 152.794 173.36C151.804 173.468 150.893 174.007 150.262 174.86L149.864 175.396ZM146.892 177.758L137.412 184.483C136.573 185.078 135.982 186.018 135.768 187.096C135.554 188.175 135.735 189.304 136.27 190.234L145.692 206.609C146.228 207.54 147.074 208.196 148.045 208.434C149.017 208.671 150.033 208.471 150.871 207.876L160.352 201.151L146.892 177.758Z" fill="#181818"/>
</g>
<g clip-path="url(#clip3_295_1009)">
<path d="M126.554 530.274L114.105 518.909C113.91 518.81 113.742 518.657 113.615 518.465L109.342 514.56L121.131 535.049C121.31 535.359 121.37 535.736 121.299 536.095C121.227 536.455 121.03 536.768 120.751 536.966L110.217 544.439C108.82 545.43 107.126 545.764 105.508 545.368C103.889 544.972 102.478 543.878 101.586 542.327L92.1637 525.952C91.2712 524.401 90.9702 522.52 91.3269 520.722C91.6836 518.925 92.6687 517.359 94.0656 516.368L104.599 508.895C104.823 508.736 105.076 508.666 105.325 508.676L106.331 507.321C107.384 505.899 108.902 505 110.551 504.821C112.201 504.642 113.847 505.199 115.127 506.367L128.644 518.707C129.925 519.876 130.734 521.562 130.895 523.393C131.056 525.225 130.555 527.053 129.503 528.475L128.313 530.083C128.103 530.367 127.799 530.547 127.469 530.583C127.139 530.619 126.81 530.507 126.554 530.274ZM121.167 521.762L127.586 521.441C127.428 521.225 127.25 521.028 127.057 520.851L124.53 518.543L117.998 518.868L121.165 521.76L121.167 521.762ZM128.425 524.173C128.39 524.177 128.355 524.18 128.32 524.181L124.053 524.396L127.176 527.246L127.572 526.712C128.104 525.995 128.405 525.101 128.425 524.173ZM121.643 515.907L118.475 513.015L111.941 513.338L115.109 516.23L121.644 515.909L121.643 515.907ZM107.864 509.619L109.054 510.708L115.587 510.379L113.54 508.511C112.771 507.81 111.784 507.477 110.794 507.584C109.804 507.691 108.893 508.23 108.262 509.083L107.864 509.619ZM104.892 511.981L95.4115 518.707C94.5734 519.301 93.9824 520.241 93.7683 521.32C93.5543 522.398 93.7349 523.527 94.2704 524.458L103.692 540.832C104.228 541.763 105.074 542.419 106.045 542.657C107.017 542.895 108.033 542.694 108.871 542.1L118.352 535.374L104.892 511.981Z" fill="#181818"/>
</g>
<g clip-path="url(#clip4_295_1009)">
<path d="M93.4052 34.5045L101.329 48.1566M86.0366 35.5984L93.4052 34.5045L106.134 24.1412L112.285 38.3568L101.329 48.1566L94.5925 47.6944L86.0366 35.5984V35.5984Z" stroke="#181818" stroke-width="0.833333" stroke-linecap="round" stroke-linejoin="round"/>
<path d="M105.694 24.4416C105.748 23.9436 104.969 23.3913 104.55 23.6236C104.55 23.6236 106.217 21.7201 105.025 20.0845C103.833 18.449 101.385 19.2527 101.385 19.2527C101.385 19.2527 100.099 7.02065 91.703 12.5437C84.7414 17.1234 86.8467 23.0842 86.8467 23.0842C86.8467 23.0842 82.3479 20.7522 81.1782 25.1677C79.916 30.0635 84.5712 29.7114 84.5712 29.7114C84.5712 29.7114 82.9961 32.0059 83.7735 33.4627C84.7334 35.2619 87.0721 35.4334 87.0721 35.4334" stroke="#181818" stroke-width="0.833333" stroke-linecap="round" stroke-linejoin="round"/>
<path d="M96.0821 29.6462C98.5125 28.0473 96.4786 24.9434 95.9346 25.14C95.3458 25.4428 94.7861 25.8109 94.2641 26.239C93.6776 26.5401 93.1203 26.9067 92.6007 27.3332C92.2125 27.8037 93.6588 31.2404 96.0821 29.6462Z" stroke="#181818" stroke-width="0.833333" stroke-linecap="round" stroke-linejoin="round"/>
<path d="M89.8304 29.4568C90.6738 28.902 90.9524 27.693 90.4527 26.7565C89.9531 25.82 88.8643 25.5106 88.0209 26.0655C87.1775 26.6203 86.8988 27.8292 87.3985 28.7657C87.8982 29.7022 88.987 30.0116 89.8304 29.4568Z" stroke="#181818" stroke-width="0.833333" stroke-linecap="round" stroke-linejoin="round"/>
<path d="M99.3372 23.2026C100.181 22.6478 100.459 21.4389 99.9596 20.5024C99.4599 19.5659 98.3711 19.2565 97.5277 19.8113C96.6843 20.3661 96.4057 21.5751 96.9054 22.5116C97.405 23.4481 98.4938 23.7575 99.3372 23.2026Z" stroke="#181818" stroke-width="0.833333" stroke-linecap="round" stroke-linejoin="round"/>
<path d="M98.8708 21.5843C99.1678 21.3889 99.2659 20.9632 99.0899 20.6335C98.914 20.3037 98.5306 20.1948 98.2336 20.3902C97.9367 20.5855 97.8386 21.0112 98.0145 21.341C98.1904 21.6707 98.5738 21.7797 98.8708 21.5843Z" fill="#181818"/>
<path d="M89.4213 27.8006C89.7183 27.6052 89.8164 27.1795 89.6405 26.8498C89.4645 26.52 89.0811 26.4111 88.7842 26.6065C88.4872 26.8018 88.3891 27.2275 88.565 27.5573C88.741 27.887 89.1243 27.996 89.4213 27.8006Z" fill="#181818"/>
<path d="M103.595 26.2092L110.084 40.3317M100.517 28.7182L107.512 42.6263M96.8994 31.6681L104.463 45.3529M90.9294 34.8749L98.9985 48.001M88.335 35.2588L96.6041 47.8339" stroke="#181818" stroke-width="0.833333" stroke-linecap="round" stroke-linejoin="round"/>
</g>
<g clip-path="url(#clip5_295_1009)">
<path d="M173.405 496.421L181.329 510.073M166.037 497.515L173.405 496.421L186.134 486.058L192.285 500.273L181.329 510.073L174.593 509.611L166.037 497.515V497.515Z" stroke="#181818" stroke-width="0.833333" stroke-linecap="round" stroke-linejoin="round"/>
<path d="M185.694 486.358C185.748 485.86 184.969 485.308 184.55 485.54C184.55 485.54 186.217 483.637 185.025 482.001C183.833 480.365 181.385 481.169 181.385 481.169C181.385 481.169 180.099 468.937 171.703 474.46C164.741 479.04 166.847 485.001 166.847 485.001C166.847 485.001 162.348 482.669 161.178 487.084C159.916 491.98 164.571 491.628 164.571 491.628C164.571 491.628 162.996 493.922 163.773 495.379C164.733 497.178 167.072 497.35 167.072 497.35" stroke="#181818" stroke-width="0.833333" stroke-linecap="round" stroke-linejoin="round"/>
<path d="M176.082 491.563C178.513 489.964 176.479 486.86 175.935 487.057C175.346 487.359 174.786 487.727 174.264 488.155C173.678 488.457 173.12 488.823 172.601 489.25C172.213 489.72 173.659 493.157 176.082 491.563Z" stroke="#181818" stroke-width="0.833333" stroke-linecap="round" stroke-linejoin="round"/>
<path d="M169.83 491.373C170.674 490.818 170.952 489.61 170.453 488.673C169.953 487.737 168.864 487.427 168.021 487.982C167.177 488.537 166.899 489.746 167.399 490.682C167.898 491.619 168.987 491.928 169.83 491.373Z" stroke="#181818" stroke-width="0.833333" stroke-linecap="round" stroke-linejoin="round"/>
<path d="M179.337 485.119C180.181 484.564 180.459 483.355 179.96 482.419C179.46 481.482 178.371 481.173 177.528 481.728C176.684 482.283 176.406 483.492 176.905 484.428C177.405 485.365 178.494 485.674 179.337 485.119Z" stroke="#181818" stroke-width="0.833333" stroke-linecap="round" stroke-linejoin="round"/>
<path d="M178.871 483.501C179.168 483.305 179.266 482.88 179.09 482.55C178.914 482.22 178.531 482.111 178.234 482.307C177.937 482.502 177.839 482.928 178.014 483.257C178.19 483.587 178.574 483.696 178.871 483.501Z" fill="#181818"/>
<path d="M169.421 489.717C169.718 489.522 169.816 489.096 169.64 488.766C169.465 488.437 169.081 488.328 168.784 488.523C168.487 488.718 168.389 489.144 168.565 489.474C168.741 489.804 169.124 489.912 169.421 489.717Z" fill="#181818"/>
<path d="M183.595 488.126L190.084 502.248M180.517 490.635L187.512 504.543M176.899 493.585L184.463 507.269M170.929 496.791L178.999 509.918M168.335 497.175L176.604 509.75" stroke="#181818" stroke-width="0.833333" stroke-linecap="round" stroke-linejoin="round"/>
</g>
<g clip-path="url(#clip6_295_1009)">
<path d="M79.4052 185.516L87.3288 199.168M72.0366 186.61L79.4052 185.516L92.1339 175.152L98.2854 189.368L87.3288 199.168L80.5925 198.706L72.0366 186.61V186.61Z" stroke="#181818" stroke-width="0.833333" stroke-linecap="round" stroke-linejoin="round"/>
<path d="M91.6936 175.453C91.7476 174.955 90.9686 174.403 90.5501 174.635C90.5501 174.635 92.2175 172.731 91.0252 171.096C89.8329 169.46 87.3849 170.264 87.3849 170.264C87.3849 170.264 86.0985 158.032 77.703 163.555C70.7414 168.135 72.8467 174.095 72.8467 174.095C72.8467 174.095 68.3479 171.763 67.1782 176.179C65.916 181.075 70.5712 180.723 70.5712 180.723C70.5712 180.723 68.9961 183.017 69.7735 184.474C70.7334 186.273 73.0721 186.445 73.0721 186.445" stroke="#181818" stroke-width="0.833333" stroke-linecap="round" stroke-linejoin="round"/>
<path d="M82.0821 180.657C84.5125 179.059 82.4786 175.955 81.9346 176.151C81.3458 176.454 80.7861 176.822 80.2641 177.25C79.6776 177.551 79.1203 177.918 78.6007 178.344C78.2125 178.815 79.6588 182.252 82.0821 180.657Z" stroke="#181818" stroke-width="0.833333" stroke-linecap="round" stroke-linejoin="round"/>
<path d="M75.8304 180.468C76.6738 179.913 76.9524 178.704 76.4527 177.768C75.9531 176.831 74.8643 176.522 74.0209 177.077C73.1775 177.632 72.8988 178.84 73.3985 179.777C73.8982 180.713 74.987 181.023 75.8304 180.468Z" stroke="#181818" stroke-width="0.833333" stroke-linecap="round" stroke-linejoin="round"/>
<path d="M85.3372 174.214C86.1806 173.659 86.4593 172.45 85.9596 171.514C85.4599 170.577 84.3711 170.268 83.5277 170.823C82.6843 171.377 82.4057 172.586 82.9054 173.523C83.405 174.459 84.4938 174.769 85.3372 174.214Z" stroke="#181818" stroke-width="0.833333" stroke-linecap="round" stroke-linejoin="round"/>
<path d="M84.8708 172.596C85.1678 172.4 85.2659 171.974 85.0899 171.645C84.914 171.315 84.5306 171.206 84.2336 171.401C83.9367 171.597 83.8386 172.022 84.0145 172.352C84.1904 172.682 84.5738 172.791 84.8708 172.596Z" fill="#181818"/>
<path d="M75.4213 178.812C75.7183 178.616 75.8164 178.191 75.6405 177.861C75.4645 177.531 75.0811 177.422 74.7842 177.618C74.4872 177.813 74.3891 178.239 74.565 178.569C74.741 178.898 75.1243 179.007 75.4213 178.812Z" fill="#181818"/>
<path d="M89.5953 177.22L96.0845 191.343M86.5172 179.729L93.5119 193.638M82.8994 182.679L90.4627 196.364M76.9294 185.886L84.9985 199.012M74.335 186.27L82.6041 198.845" stroke="#181818" stroke-width="0.833333" stroke-linecap="round" stroke-linejoin="round"/>
</g>
<g clip-path="url(#clip7_295_1009)">
<path d="M49.4052 649.653L57.3288 663.305M42.0366 650.747L49.4052 649.653L62.1339 639.29L68.2854 653.505L57.3288 663.305L50.5925 662.843L42.0366 650.747V650.747Z" stroke="#181818" stroke-width="0.833333" stroke-linecap="round" stroke-linejoin="round"/>
<path d="M61.6936 639.59C61.7476 639.092 60.9686 638.54 60.5501 638.772C60.5501 638.772 62.2175 636.869 61.0252 635.233C59.8329 633.598 57.3849 634.401 57.3849 634.401C57.3849 634.401 56.0985 622.169 47.703 627.692C40.7414 632.272 42.8467 638.233 42.8467 638.233C42.8467 638.233 38.3479 635.901 37.1782 640.316C35.916 645.212 40.5712 644.86 40.5712 644.86C40.5712 644.86 38.9961 647.155 39.7735 648.611C40.7334 650.411 43.0721 650.582 43.0721 650.582" stroke="#181818" stroke-width="0.833333" stroke-linecap="round" stroke-linejoin="round"/>
<path d="M52.0821 644.795C54.5125 643.196 52.4786 640.092 51.9346 640.289C51.3458 640.591 50.7861 640.96 50.2641 641.388C49.6776 641.689 49.1203 642.055 48.6007 642.482C48.2125 642.952 49.6588 646.389 52.0821 644.795Z" stroke="#181818" stroke-width="0.833333" stroke-linecap="round" stroke-linejoin="round"/>
<path d="M45.8304 644.605C46.6738 644.051 46.9524 642.842 46.4527 641.905C45.9531 640.969 44.8643 640.659 44.0209 641.214C43.1775 641.769 42.8988 642.978 43.3985 643.914C43.8982 644.851 44.987 645.16 45.8304 644.605Z" stroke="#181818" stroke-width="0.833333" stroke-linecap="round" stroke-linejoin="round"/>
<path d="M55.3372 638.351C56.1806 637.796 56.4593 636.588 55.9596 635.651C55.4599 634.715 54.3711 634.405 53.5277 634.96C52.6843 635.515 52.4057 636.724 52.9054 637.66C53.405 638.597 54.4938 638.906 55.3372 638.351Z" stroke="#181818" stroke-width="0.833333" stroke-linecap="round" stroke-linejoin="round"/>
<path d="M54.8708 636.733C55.1678 636.538 55.2659 636.112 55.0899 635.782C54.914 635.452 54.5306 635.343 54.2336 635.539C53.9367 635.734 53.8386 636.16 54.0145 636.49C54.1904 636.819 54.5738 636.928 54.8708 636.733Z" fill="#181818"/>
<path d="M45.4213 642.949C45.7183 642.754 45.8164 642.328 45.6405 641.998C45.4645 641.669 45.0811 641.56 44.7842 641.755C44.4872 641.951 44.3891 642.376 44.565 642.706C44.741 643.036 45.1243 643.145 45.4213 642.949Z" fill="#181818"/>
<path d="M59.5953 641.358L66.0845 655.48M56.5172 643.867L63.5119 657.775M52.8994 646.817L60.4627 660.502M46.9294 650.024L54.9985 663.15M44.335 650.407L52.6041 662.983" stroke="#181818" stroke-width="0.833333" stroke-linecap="round" stroke-linejoin="round"/>
</g>
<g clip-path="url(#clip8_295_1009)">
<path d="M138.166 353.527C138.594 350.953 138.447 348.302 137.737 345.807C137.027 343.311 135.776 341.048 134.095 339.214L137.684 337.401L136.649 334.874L131.912 337.267C129.563 335.556 126.814 334.646 124.004 334.651C121.194 334.656 118.448 335.574 116.103 337.293C114.86 336.416 113.357 336.115 111.916 336.456C110.475 336.796 109.213 337.75 108.399 339.114C107.585 340.477 107.286 342.14 107.565 343.746C107.844 345.352 108.68 346.772 109.892 347.701C109.378 350.781 109.692 353.961 110.794 356.845C111.895 359.729 113.737 362.189 116.089 363.919C118.44 365.65 121.198 366.574 124.02 366.577C126.841 366.579 129.6 365.66 131.955 363.935C133.198 364.812 134.701 365.113 136.142 364.772C137.582 364.432 138.845 363.477 139.659 362.114C140.472 360.751 140.772 359.087 140.493 357.482C140.214 355.876 139.378 354.456 138.166 353.527ZM135.62 362.057C134.82 362.248 133.985 362.081 133.296 361.592L131.929 360.627L130.578 361.618C128.633 363.044 126.353 363.803 124.022 363.801C121.691 363.799 119.412 363.036 117.469 361.606C115.526 360.176 114.005 358.144 113.095 355.761C112.184 353.379 111.925 350.751 112.35 348.206L112.645 346.438L111.312 345.417C110.639 344.901 110.174 344.112 110.019 343.22C109.864 342.328 110.03 341.404 110.482 340.646C110.934 339.889 111.636 339.359 112.436 339.17C113.236 338.981 114.072 339.148 114.762 339.636L116.129 340.6L117.48 339.61C119.425 338.184 121.705 337.425 124.036 337.427C126.367 337.429 128.646 338.192 130.589 339.622C132.532 341.051 134.053 343.084 134.963 345.467C135.873 347.849 136.132 350.477 135.708 353.021L135.413 354.789L136.746 355.811C137.248 356.196 137.638 356.736 137.867 357.364C138.096 357.992 138.154 358.681 138.034 359.346C137.914 360.01 137.622 360.621 137.193 361.103C136.764 361.585 136.217 361.917 135.62 362.057Z" fill="#181818"/>
<path d="M120.024 343.505L122.629 345.421L120.903 348.314L118.298 346.397L120.024 343.505ZM128.881 350.021L131.486 351.938L129.76 354.831L127.155 352.914L128.881 350.021ZM119.196 358.713C119.88 359.216 120.647 359.565 121.452 359.74C122.258 359.914 123.087 359.91 123.891 359.729C124.695 359.548 125.46 359.193 126.14 358.683C126.821 358.174 127.405 357.521 127.858 356.761L117.438 349.095C116.985 349.854 116.671 350.706 116.513 351.6C116.356 352.495 116.36 353.415 116.523 354.308C116.852 356.112 117.814 357.696 119.196 358.713Z" fill="#181818"/>
</g>
<path d="M126.934 104.698C126.002 102.295 124.552 100.182 122.713 98.5462C120.873 96.9101 118.7 95.8005 116.384 95.3146L118.46 91.5911L116.334 90.1299L113.595 95.0432C110.786 95.071 108.045 96.0122 105.712 97.7503C103.379 99.4885 101.556 101.948 100.467 104.824C98.9948 104.862 97.5946 105.54 96.5675 106.712C95.5405 107.884 94.9687 109.457 94.975 111.093C94.9813 112.728 95.5652 114.296 96.6012 115.458C97.6372 116.62 99.0426 117.285 100.515 117.309C101.631 120.187 103.483 122.636 105.843 124.353C108.203 126.07 110.965 126.979 113.786 126.965C116.607 126.952 119.363 126.017 121.709 124.278C124.055 122.539 125.889 120.072 126.982 117.184C128.455 117.146 129.855 116.468 130.882 115.295C131.909 114.123 132.481 112.55 132.475 110.915C132.468 109.279 131.884 107.712 130.848 106.549C129.812 105.387 128.407 104.722 126.934 104.698ZM129.089 113.361C128.52 114.013 127.742 114.389 126.924 114.409L125.305 114.45L124.678 116.108C123.775 118.494 122.26 120.533 120.321 121.97C118.383 123.407 116.106 124.179 113.776 124.19C111.445 124.201 109.162 123.451 107.213 122.032C105.263 120.613 103.733 118.589 102.812 116.212L102.171 114.56L100.552 114.534C99.734 114.521 98.9532 114.151 98.3776 113.506C97.802 112.86 97.4775 111.989 97.474 111.081C97.4705 110.172 97.7882 109.299 98.3589 108.647C98.9295 107.996 99.7075 107.62 100.525 107.599L102.144 107.557L102.772 105.899C103.675 103.513 105.19 101.475 107.128 100.038C109.067 98.6007 111.343 97.8286 113.674 97.8175C116.005 97.8065 118.287 98.557 120.237 99.9756C122.186 101.394 123.717 103.418 124.638 105.796L125.278 107.447L126.897 107.474C127.508 107.484 128.102 107.692 128.607 108.073C129.111 108.453 129.505 108.99 129.738 109.616C129.971 110.243 130.034 110.931 129.918 111.596C129.803 112.262 129.515 112.875 129.089 113.361Z" fill="#181818"/>
<path d="M106.837 107.566L109.962 107.552L109.975 111.021L106.85 111.036L106.837 107.566ZM117.461 107.516L120.586 107.501L120.6 110.971L117.475 110.986L117.461 107.516ZM113.762 120.719C114.583 120.715 115.395 120.532 116.152 120.18C116.909 119.827 117.596 119.313 118.174 118.666C118.752 118.019 119.209 117.251 119.52 116.408C119.831 115.564 119.989 114.661 119.985 113.75L107.486 113.809C107.489 114.721 107.654 115.622 107.972 116.463C108.289 117.303 108.752 118.066 109.335 118.708C110.512 120.004 112.105 120.727 113.762 120.719Z" fill="#181818"/>
<path d="M110.167 575.408L113.583 581.348L115.4 580.059L111.983 574.119L110.166 575.408L110.167 575.408ZM103.774 582.455L102.951 584.668L108.817 587.357L109.639 585.144L103.774 582.455ZM120.429 570.642L120.161 577.682L122.314 577.784L122.584 570.744L120.429 570.642L120.429 570.642ZM115.426 582.329C110.982 585.481 109.102 591.034 111.229 594.731L124.647 606.865L131.599 601.934L127.326 583.315C125.199 579.617 119.872 579.176 115.427 582.328L115.426 582.329ZM101.998 594.363L102.468 596.7L108.661 595.168L108.193 592.83L101.998 594.363L101.998 594.363ZM130.906 573.86L127.048 579.457L128.76 580.913L132.618 575.316L130.906 573.86ZM111.77 599.642L107.489 604.844L109.078 606.459L113.36 601.259L111.77 599.641L111.77 599.642ZM131.111 585.924L131.764 588.206L137.814 586.078L137.162 583.798L131.111 585.924L131.111 585.924ZM125.191 608.057L126.728 610.73L133.883 605.656L132.345 602.983L125.191 608.058L125.191 608.057ZM127.493 612.059L129.03 614.731L136.185 609.657L134.647 606.985L127.493 612.059L127.493 612.059Z" fill="#181818"/>
<path opacity="0.7" d="M90.1665 254.209L93.5834 259.559L95.4003 258.398L91.9834 253.049L90.1663 254.209L90.1665 254.209ZM83.7741 260.556L82.9512 262.549L88.8171 264.97L89.6391 262.978L83.7741 260.556ZM100.429 249.918L100.161 256.257L102.314 256.349L102.584 250.009L100.429 249.917L100.429 249.918ZM95.4264 260.442C90.9815 263.281 89.1024 268.282 91.2295 271.612L104.647 282.539L111.599 278.099L107.326 261.33C105.199 258 99.8718 257.603 95.4268 260.442L95.4264 260.442ZM81.998 271.28L82.4684 273.385L88.661 272.005L88.1934 269.899L81.9979 271.28L81.998 271.28ZM110.906 252.815L107.048 257.856L108.76 259.167L112.618 254.127L110.906 252.815ZM91.7702 276.034L87.4893 280.72L89.0782 282.174L93.3605 277.49L91.7703 276.034L91.7702 276.034ZM111.111 263.68L111.764 265.735L117.814 263.819L117.162 261.766L111.111 263.68L111.111 263.68ZM105.191 283.613L106.728 286.02L113.883 281.45L112.345 279.044L105.191 283.614L105.191 283.613ZM107.493 287.217L109.03 289.624L116.185 285.054L114.647 282.647L107.493 287.217L107.493 287.217Z" fill="#181818"/>
<defs>
<clipPath id="clip0_295_1009">
<rect width="41.5629" height="42.9561" fill="white" transform="matrix(0.780657 -0.624959 0.54458 0.838709 148 84.8252)"/>
</clipPath>
<clipPath id="clip1_295_1009">
<rect width="42.2693" height="42.2612" fill="white" transform="matrix(-0.668531 -0.743684 0.669887 -0.742463 43.2583 129.435)"/>
</clipPath>
<clipPath id="clip2_295_1009">
<rect width="43.1818" height="41.3284" fill="white" transform="matrix(0.498721 0.866762 -0.815609 0.578603 159.708 158.784)"/>
</clipPath>
<clipPath id="clip3_295_1009">
<rect width="43.1818" height="41.3284" fill="white" transform="matrix(0.498721 0.866762 -0.815609 0.578603 117.708 493.007)"/>
</clipPath>
<clipPath id="clip4_295_1009">
<rect width="41.1926" height="43.3113" fill="white" transform="matrix(0.835433 -0.549592 0.470748 0.882268 69 22.6392)"/>
</clipPath>
<clipPath id="clip5_295_1009">
<rect width="41.1926" height="43.3113" fill="white" transform="matrix(0.835433 -0.549592 0.470748 0.882268 149 484.556)"/>
</clipPath>
<clipPath id="clip6_295_1009">
<rect width="41.1926" height="43.3113" fill="white" transform="matrix(0.835433 -0.549592 0.470748 0.882268 55 173.65)"/>
</clipPath>
<clipPath id="clip7_295_1009">
<rect width="41.1926" height="43.3113" fill="white" transform="matrix(0.835433 -0.549592 0.470748 0.882268 25 637.788)"/>
</clipPath>
<clipPath id="clip8_295_1009">
<rect width="41.3971" height="43.1159" fill="white" transform="matrix(0.805464 0.592644 -0.512455 0.858714 119.095 318.678)"/>
</clipPath>
</defs>
</svg>
